VotoSerifGX-ExtendedLightText.ufo
<glyph name="percent" format="2">
  <advance width="1096"/>
  <unicode hex="0025"/>
  <outline>
    <contour>
      <point x="284" y="0" type="line"/>
      <point x="318" y="0" type="line"/>
      <point x="808" y="714" type="line"/>
      <point x="774" y="714" type="line"/>
    </contour>
    <contour>
      <point x="251" y="280" type="curve" smooth="yes"/>
      <point x="383" y="280"/>
      <point x="425" y="383"/>
      <point x="425" y="503" type="curve" smooth="yes"/>
      <point x="425" y="629"/>
      <point x="368" y="724"/>
      <point x="252" y="724" type="curve" smooth="yes"/>
      <point x="126" y="724"/>
      <point x="75" y="627"/>
      <point x="75" y="503" type="curve" smooth="yes"/>
      <point x="75" y="376"/>
      <point x="123" y="280"/>
    </contour>
    <contour>
      <point x="247" y="305" type="curve" smooth="yes"/>
      <point x="153" y="305"/>
      <point x="103" y="376"/>
      <point x="103" y="503" type="curve" smooth="yes"/>
      <point x="103" y="595"/>
      <point x="143" y="699"/>
      <point x="249" y="699" type="curve" smooth="yes"/>
      <point x="342" y="699"/>
      <point x="397" y="635"/>
      <point x="397" y="503" type="curve" smooth="yes"/>
      <point x="397" y="402"/>
      <point x="356" y="305"/>
    </contour>
    <contour>
      <point x="846" y="-10" type="curve" smooth="yes"/>
      <point x="978" y="-10"/>
      <point x="1020" y="93"/>
      <point x="1020" y="213" type="curve" smooth="yes"/>
      <point x="1020" y="339"/>
      <point x="963" y="434"/>
      <point x="847" y="434" type="curve" smooth="yes"/>
      <point x="721" y="434"/>
      <point x="670" y="337"/>
      <point x="670" y="213" type="curve" smooth="yes"/>
      <point x="670" y="86"/>
      <point x="718" y="-10"/>
    </contour>
    <contour>
      <point x="842" y="15" type="curve" smooth="yes"/>
      <point x="748" y="15"/>
      <point x="698" y="86"/>
      <point x="698" y="213" type="curve" smooth="yes"/>
      <point x="698" y="305"/>
      <point x="738" y="409"/>
      <point x="844" y="409" type="curve" smooth="yes"/>
      <point x="937" y="409"/>
      <point x="992" y="345"/>
      <point x="992" y="213" type="curve" smooth="yes"/>
      <point x="992" y="112"/>
      <point x="951" y="15"/>
    </contour>
  </outline>
</glyph>
<glyph name="two" format="2">
  <advance width="693"/>
  <unicode hex="0032"/>
  <outline>
    <contour>
      <point x="68" y="0" type="line"/>
      <point x="581" y="0" type="line"/>
      <point x="589" y="123" type="line"/>
      <point x="569" y="123" type="line"/>
      <point x="566" y="94" type="line" smooth="yes"/>
      <point x="561" y="33"/>
      <point x="555" y="22"/>
      <point x="504" y="22" type="curve" smooth="yes"/>
      <point x="106" y="22" type="line"/>
      <point x="346" y="215" type="line" smooth="yes"/>
      <point x="499" y="358"/>
      <point x="554" y="397"/>
      <point x="554" y="524" type="curve" smooth="yes"/>
      <point x="554" y="615"/>
      <point x="491" y="724"/>
      <point x="309" y="724" type="curve" smooth="yes"/>
      <point x="160" y="724"/>
      <point x="87" y="650"/>
      <point x="87" y="602" type="curve" smooth="yes"/>
      <point x="87" y="582"/>
      <point x="96" y="565"/>
      <point x="110" y="565" type="curve"/>
      <point x="110" y="659"/>
      <point x="192" y="699"/>
      <point x="309" y="699" type="curve" smooth="yes"/>
      <point x="479" y="699"/>
      <point x="526" y="585"/>
      <point x="526" y="525" type="curve" smooth="yes"/>
      <point x="526" y="409"/>
      <point x="470" y="365"/>
      <point x="316" y="226" type="curve" smooth="yes"/>
      <point x="68" y="22" type="line"/>
    </contour>
  </outline>
</glyph>
<glyph name="six" format="2">
  <advance width="693"/>
  <unicode hex="0036"/>
  <outline>
    <contour>
      <point x="359" y="-10" type="curve" smooth="yes"/>
      <point x="554" y="-10"/>
      <point x="603" y="123"/>
      <point x="603" y="224" type="curve" smooth="yes"/>
      <point x="603" y="356"/>
      <point x="496" y="425"/>
      <point x="366" y="425" type="curve" smooth="yes"/>
      <point x="280" y="425"/>
      <point x="201" y="401"/>
      <point x="132" y="360" type="curve"/>
      <point x="133" y="584"/>
      <point x="259" y="699"/>
      <point x="403" y="699" type="curve" smooth="yes"/>
      <point x="491" y="699"/>
      <point x="545" y="671"/>
      <point x="545" y="591" type="curve"/>
      <point x="563" y="591"/>
      <point x="569" y="614"/>
      <point x="569" y="623" type="curve" smooth="yes"/>
      <point x="569" y="662"/>
      <point x="529" y="724"/>
      <point x="404" y="724" type="curve" smooth="yes"/>
      <point x="245" y="724"/>
      <point x="104" y="611"/>
      <point x="104" y="337" type="curve" smooth="yes"/>
      <point x="104" y="111"/>
      <point x="201" y="-10"/>
    </contour>
    <contour>
      <point x="364" y="15" type="curve" smooth="yes"/>
      <point x="205" y="15"/>
      <point x="138" y="140"/>
      <point x="132" y="333" type="curve"/>
      <point x="172" y="352"/>
      <point x="254" y="400"/>
      <point x="366" y="400" type="curve" smooth="yes"/>
      <point x="507" y="400"/>
      <point x="575" y="304"/>
      <point x="575" y="225" type="curve" smooth="yes"/>
      <point x="575" y="121"/>
      <point x="518" y="15"/>
    </contour>
  </outline>
</glyph>
<glyph name="nine" format="2">
  <advance width="693"/>
  <unicode hex="0039"/>
  <outline>
    <contour>
      <point x="276" y="-9" type="curve" smooth="yes"/>
      <point x="512" y="-9"/>
      <point x="590" y="159"/>
      <point x="590" y="388" type="curve" smooth="yes"/>
      <point x="590" y="587"/>
      <point x="508" y="724"/>
      <point x="324" y="724" type="curve" smooth="yes"/>
      <point x="165" y="724"/>
      <point x="91" y="615"/>
      <point x="91" y="504" type="curve" smooth="yes"/>
      <point x="91" y="397"/>
      <point x="153" y="289"/>
      <point x="335" y="289" type="curve" smooth="yes"/>
      <point x="437" y="289"/>
      <point x="494" y="309"/>
      <point x="562" y="359" type="curve"/>
      <point x="568" y="156"/>
      <point x="465" y="16"/>
      <point x="291" y="16" type="curve" smooth="yes"/>
      <point x="221" y="16"/>
      <point x="173" y="18"/>
      <point x="139" y="80" type="curve"/>
      <point x="133" y="77"/>
      <point x="130" y="70"/>
      <point x="130" y="65" type="curve" smooth="yes"/>
      <point x="130" y="36"/>
      <point x="168" y="-9"/>
    </contour>
    <contour>
      <point x="327" y="314" type="curve" smooth="yes"/>
      <point x="192" y="314"/>
      <point x="119" y="400"/>
      <point x="119" y="500" type="curve" smooth="yes"/>
      <point x="119" y="591"/>
      <point x="175" y="699"/>
      <point x="324" y="699" type="curve" smooth="yes"/>
      <point x="485" y="699"/>
      <point x="562" y="575"/>
      <point x="562" y="381" type="curve"/>
      <point x="492" y="340"/>
      <point x="433" y="314"/>
    </contour>
  </outline>
</glyph>
<glyph name="colon" format="2">
  <advance width="262"/>
  <unicode hex="003A"/>
  <outline>
    <contour>
      <point x="126" y="436" type="curve" smooth="yes"/>
      <point x="144" y="436"/>
      <point x="156" y="445"/>
      <point x="156" y="477" type="curve" smooth="yes"/>
      <point x="156" y="507"/>
      <point x="144" y="514"/>
      <point x="126" y="514" type="curve" smooth="yes"/>
      <point x="113" y="514"/>
      <point x="98" y="507"/>
      <point x="98" y="477" type="curve" smooth="yes"/>
      <point x="98" y="445"/>
      <point x="113" y="436"/>
    </contour>
    <contour>
      <point x="126" y="-5" type="curve" smooth="yes"/>
      <point x="144" y="-5"/>
      <point x="156" y="4"/>
      <point x="156" y="36" type="curve" smooth="yes"/>
      <point x="156" y="66"/>
      <point x="144" y="73"/>
      <point x="126" y="73" type="curve" smooth="yes"/>
      <point x="113" y="73"/>
      <point x="98" y="66"/>
      <point x="98" y="36" type="curve" smooth="yes"/>
      <point x="98" y="4"/>
      <point x="113" y="-5"/>
    </contour>
  </outline>
</glyph>
<glyph name="less" format="2">
  <advance width="693"/>
  <unicode hex="003C"/>
  <outline>
    <contour>
      <point x="613" y="119" type="line"/>
      <point x="613" y="145" type="line"/>
      <point x="109" y="357" type="line"/>
      <point x="613" y="571" type="line"/>
      <point x="613" y="597" type="line"/>
      <point x="80" y="371" type="line"/>
      <point x="80" y="344" type="line"/>
    </contour>
  </outline>
</glyph>
<glyph name="question" format="2">
  <advance width="478"/>
  <unicode hex="003F"/>
  <outline>
    <contour>
      <point x="217" y="167" type="line"/>
      <point x="239" y="167" type="line"/>
      <point x="243" y="323" type="line"/>
      <point x="373" y="381"/>
      <point x="440" y="444"/>
      <point x="440" y="550" type="curve" smooth="yes"/>
      <point x="440" y="636"/>
      <point x="364" y="724"/>
      <point x="231" y="724" type="curve" smooth="yes"/>
      <point x="68" y="724"/>
      <point x="32" y="630"/>
      <point x="32" y="610" type="curve" smooth="yes"/>
      <point x="32" y="587"/>
      <point x="37" y="569"/>
      <point x="55" y="569" type="curve"/>
      <point x="55" y="616"/>
      <point x="94" y="699"/>
      <point x="235" y="699" type="curve" smooth="yes"/>
      <point x="340" y="699"/>
      <point x="412" y="634"/>
      <point x="412" y="552" type="curve" smooth="yes"/>
      <point x="412" y="443"/>
      <point x="346" y="393"/>
      <point x="214" y="337" type="curve"/>
    </contour>
    <contour>
      <point x="225" y="-5" type="curve" smooth="yes"/>
      <point x="240" y="-5"/>
      <point x="252" y="4"/>
      <point x="252" y="36" type="curve" smooth="yes"/>
      <point x="252" y="66"/>
      <point x="240" y="73"/>
      <point x="225" y="73" type="curve" smooth="yes"/>
      <point x="210" y="73"/>
      <point x="195" y="66"/>
      <point x="195" y="36" type="curve" smooth="yes"/>
      <point x="195" y="4"/>
      <point x="210" y="-5"/>
    </contour>
  </outline>
</glyph>
<glyph name="G" format="2">
  <advance width="788"/>
  <unicode hex="0047"/>
  <anchor x="464" y="0" name="bottom"/>
  <anchor x="484" y="714" name="top"/>
  <anchor x="768" y="714" name="topright"/>
  <outline>
    <contour>
      <point x="458" y="-10" type="curve" smooth="yes"/>
      <point x="556" y="-10"/>
      <point x="625" y="1"/>
      <point x="688" y="25" type="curve"/>
      <point x="688" y="203" type="line" smooth="yes"/>
      <point x="688" y="287"/>
      <point x="692" y="301"/>
      <point x="747" y="301" type="curve" smooth="yes"/>
      <point x="781" y="301" type="line"/>
      <point x="781" y="321" type="line"/>
      <point x="555" y="321" type="line"/>
      <point x="555" y="301" type="line"/>
      <point x="610" y="301" type="line" smooth="yes"/>
      <point x="656" y="301"/>
      <point x="660" y="287"/>
      <point x="660" y="202" type="curve" smooth="yes"/>
      <point x="660" y="42" type="line"/>
      <point x="615" y="25"/>
      <point x="539" y="15"/>
      <point x="478" y="15" type="curve" smooth="yes"/>
      <point x="217" y="15"/>
      <point x="102" y="163"/>
      <point x="102" y="358" type="curve" smooth="yes"/>
      <point x="102" y="564"/>
      <point x="249" y="699"/>
      <point x="457" y="699" type="curve" smooth="yes"/>
      <point x="627" y="699"/>
      <point x="669" y="669"/>
      <point x="669" y="567" type="curve"/>
      <point x="682" y="567"/>
      <point x="690" y="580"/>
      <point x="690" y="605" type="curve" smooth="yes"/>
      <point x="690" y="673"/>
      <point x="643" y="724"/>
      <point x="465" y="724" type="curve" smooth="yes"/>
      <point x="229" y="724"/>
      <point x="74" y="568"/>
      <point x="74" y="358" type="curve" smooth="yes"/>
      <point x="74" y="153"/>
      <point x="202" y="-10"/>
    </contour>
  </outline>
</glyph>
<glyph name="J" format="2">
  <advance width="429"/>
  <unicode hex="004A"/>
  <anchor x="97" y="-240" name="bottom"/>
  <anchor x="217" y="714" name="top"/>
  <anchor x="409" y="714" name="topright"/>
  <outline>
    <contour>
      <point x="36" y="-240" type="line"/>
      <point x="40" y="-240" type="line" smooth="yes"/>
      <point x="217" y="-241"/>
      <point x="246" y="-158"/>
      <point x="246" y="-17" type="curve" smooth="yes"/>
      <point x="246" y="606" type="line" smooth="yes"/>
      <point x="246" y="683"/>
      <point x="252" y="694"/>
      <point x="302" y="694" type="curve" smooth="yes"/>
      <point x="366" y="694" type="line"/>
      <point x="366" y="714" type="line"/>
      <point x="100" y="714" type="line"/>
      <point x="100" y="694" type="line"/>
      <point x="162" y="694" type="line" smooth="yes"/>
      <point x="212" y="694"/>
      <point x="218" y="683"/>
      <point x="218" y="606" type="curve" smooth="yes"/>
      <point x="218" y="-18" type="line" smooth="yes"/>
      <point x="218" y="-141"/>
      <point x="189" y="-215"/>
      <point x="51" y="-215" type="curve" smooth="yes"/>
      <point x="36" y="-215" type="line"/>
    </contour>
  </outline>
</glyph>
<glyph name="P" format="2">
  <advance width="691"/>
  <unicode hex="0050"/>
  <anchor x="203" y="0" name="bottom"/>
  <anchor x="345" y="714" name="top"/>
  <anchor x="666" y="714" name="topright"/>
  <outline>
    <contour>
      <point x="64" y="0" type="line"/>
      <point x="364" y="0" type="line"/>
      <point x="364" y="20" type="line"/>
      <point x="273" y="20" type="line" smooth="yes"/>
      <point x="223" y="20"/>
      <point x="217" y="31"/>
      <point x="217" y="108" type="curve" smooth="yes"/>
      <point x="217" y="284" type="line"/>
      <point x="347" y="284" type="line" smooth="yes"/>
      <point x="555" y="284"/>
      <point x="629" y="367"/>
      <point x="629" y="509" type="curve" smooth="yes"/>
      <point x="629" y="631"/>
      <point x="559" y="714"/>
      <point x="381" y="714" type="curve" smooth="yes"/>
      <point x="64" y="714" type="line"/>
      <point x="64" y="694" type="line"/>
      <point x="133" y="694" type="line" smooth="yes"/>
      <point x="183" y="694"/>
      <point x="189" y="683"/>
      <point x="189" y="606" type="curve" smooth="yes"/>
      <point x="189" y="107" type="line" smooth="yes"/>
      <point x="189" y="31"/>
      <point x="183" y="20"/>
      <point x="133" y="20" type="curve" smooth="yes"/>
      <point x="64" y="20" type="line"/>
    </contour>
    <contour>
      <point x="217" y="309" type="line"/>
      <point x="217" y="689" type="line"/>
      <point x="381" y="689" type="line" smooth="yes"/>
      <point x="535" y="689"/>
      <point x="601" y="619"/>
      <point x="601" y="509" type="curve" smooth="yes"/>
      <point x="601" y="382"/>
      <point x="543" y="309"/>
      <point x="342" y="309" type="curve" smooth="yes"/>
    </contour>
  </outline>
</glyph>
<glyph name="X" format="2">
  <advance width="693"/>
  <unicode hex="0058"/>
  <anchor x="346" y="0" name="bottom"/>
  <anchor x="346" y="714" name="top"/>
  <anchor x="673" y="714" name="topright"/>
  <outline>
    <contour>
      <point x="8" y="0" type="line"/>
      <point x="277" y="0" type="line"/>
      <point x="277" y="20" type="line"/>
      <point x="207" y="20" type="line" smooth="yes"/>
      <point x="175" y="20"/>
      <point x="173" y="29"/>
      <point x="173" y="40" type="curve" smooth="yes"/>
      <point x="173" y="59"/>
      <point x="189" y="80"/>
      <point x="227" y="143" type="curve" smooth="yes"/>
      <point x="354" y="343" type="line"/>
      <point x="495" y="119" type="line" smooth="yes"/>
      <point x="521" y="80"/>
      <point x="533" y="65"/>
      <point x="533" y="44" type="curve" smooth="yes"/>
      <point x="533" y="30"/>
      <point x="531" y="20"/>
      <point x="503" y="20" type="curve" smooth="yes"/>
      <point x="457" y="20" type="line"/>
      <point x="457" y="0" type="line"/>
      <point x="687" y="0" type="line"/>
      <point x="687" y="20" type="line"/>
      <point x="643" y="20" type="line" smooth="yes"/>
      <point x="591" y="20"/>
      <point x="592" y="25"/>
      <point x="564" y="68" type="curve" smooth="yes"/>
      <point x="368" y="367" type="line"/>
      <point x="544" y="648" type="line" smooth="yes"/>
      <point x="568" y="688"/>
      <point x="571" y="694"/>
      <point x="621" y="694" type="curve" smooth="yes"/>
      <point x="675" y="694" type="line"/>
      <point x="675" y="714" type="line"/>
      <point x="430" y="714" type="line"/>
      <point x="430" y="694" type="line"/>
      <point x="477" y="694" type="line" smooth="yes"/>
      <point x="511" y="694"/>
      <point x="514" y="686"/>
      <point x="514" y="674" type="curve" smooth="yes"/>
      <point x="514" y="658"/>
      <point x="500" y="635"/>
      <point x="482" y="607" type="curve" smooth="yes"/>
      <point x="350" y="394" type="line"/>
      <point x="218" y="608" type="line" smooth="yes"/>
      <point x="198" y="638"/>
      <point x="189" y="649"/>
      <point x="189" y="672" type="curve" smooth="yes"/>
      <point x="189" y="684"/>
      <point x="192" y="694"/>
      <point x="228" y="694" type="curve" smooth="yes"/>
      <point x="258" y="694" type="line"/>
      <point x="258" y="714" type="line"/>
      <point x="27" y="714" type="line"/>
      <point x="27" y="694" type="line"/>
      <point x="85" y="694" type="line" smooth="yes"/>
      <point x="132" y="694"/>
      <point x="131" y="689"/>
      <point x="159" y="647" type="curve" smooth="yes"/>
      <point x="334" y="372" type="line"/>
      <point x="144" y="67" type="line" smooth="yes"/>
      <point x="117" y="26"/>
      <point x="116" y="20"/>
      <point x="72" y="20" type="curve" smooth="yes"/>
      <point x="8" y="20" type="line"/>
    </contour>
  </outline>
</glyph>
<glyph name="a" format="2">
  <advance width="634"/>
  <unicode hex="0061"/>
  <anchor x="318" y="0" name="bottom"/>
  <anchor x="318" y="536" name="top"/>
  <anchor x="614" y="536" name="topright"/>
  <outline>
    <contour>
      <point x="241" y="-10" type="curve" smooth="yes"/>
      <point x="366" y="-10"/>
      <point x="441" y="89"/>
      <point x="463" y="117" type="curve"/>
      <point x="465" y="117" type="line"/>
      <point x="472" y="0" type="line"/>
      <point x="572" y="0" type="line"/>
      <point x="572" y="20" type="line"/>
      <point x="560" y="20" type="line" smooth="yes"/>
      <point x="490" y="20"/>
      <point x="493" y="41"/>
      <point x="493" y="117" type="curve" smooth="yes"/>
      <point x="493" y="406" type="line" smooth="yes"/>
      <point x="493" y="467"/>
      <point x="449" y="542"/>
      <point x="293" y="542" type="curve" smooth="yes"/>
      <point x="137" y="542"/>
      <point x="123" y="468"/>
      <point x="123" y="444" type="curve" smooth="yes"/>
      <point x="123" y="407"/>
      <point x="129" y="395"/>
      <point x="144" y="395" type="curve"/>
      <point x="144" y="460"/>
      <point x="159" y="517"/>
      <point x="294" y="517" type="curve" smooth="yes"/>
      <point x="456" y="517"/>
      <point x="465" y="435"/>
      <point x="465" y="371" type="curve" smooth="yes"/>
      <point x="465" y="306" type="line"/>
      <point x="362" y="303" type="line" smooth="yes"/>
      <point x="159" y="296"/>
      <point x="70" y="252"/>
      <point x="70" y="146" type="curve" smooth="yes"/>
      <point x="70" y="37"/>
      <point x="150" y="-10"/>
    </contour>
    <contour>
      <point x="247" y="15" type="curve" smooth="yes"/>
      <point x="138" y="15"/>
      <point x="98" y="85"/>
      <point x="98" y="144" type="curve" smooth="yes"/>
      <point x="98" y="222"/>
      <point x="150" y="274"/>
      <point x="355" y="280" type="curve" smooth="yes"/>
      <point x="465" y="283" type="line"/>
      <point x="465" y="149" type="line" smooth="yes"/>
      <point x="465" y="116"/>
      <point x="366" y="15"/>
    </contour>
  </outline>
</glyph>
<glyph name="s" format="2">
  <advance width="495"/>
  <unicode hex="0073"/>
  <anchor x="248" y="0" name="bottom"/>
  <anchor x="248" y="536" name="top"/>
  <anchor x="405" y="536" name="topright"/>
  <outline>
    <contour>
      <point x="261" y="-10" type="curve" smooth="yes"/>
      <point x="355" y="-10"/>
      <point x="430" y="53"/>
      <point x="430" y="136" type="curve" smooth="yes"/>
      <point x="430" y="197"/>
      <point x="410" y="226"/>
      <point x="284" y="283" type="curve" smooth="yes"/>
      <point x="186" y="324"/>
      <point x="124" y="351"/>
      <point x="124" y="422" type="curve" smooth="yes"/>
      <point x="124" y="479"/>
      <point x="169" y="518"/>
      <point x="258" y="518" type="curve" smooth="yes"/>
      <point x="335" y="518"/>
      <point x="387" y="504"/>
      <point x="387" y="405" type="curve"/>
      <point x="400" y="405"/>
      <point x="408" y="417"/>
      <point x="408" y="440" type="curve" smooth="yes"/>
      <point x="408" y="474"/>
      <point x="382" y="543"/>
      <point x="264" y="543" type="curve" smooth="yes"/>
      <point x="161" y="543"/>
      <point x="96" y="493"/>
      <point x="96" y="423" type="curve" smooth="yes"/>
      <point x="96" y="343"/>
      <point x="143" y="313"/>
      <point x="294" y="245" type="curve" smooth="yes"/>
      <point x="388" y="207"/>
      <point x="402" y="186"/>
      <point x="402" y="135" type="curve" smooth="yes"/>
      <point x="402" y="86"/>
      <point x="355" y="15"/>
      <point x="260" y="15" type="curve" smooth="yes"/>
      <point x="134" y="15"/>
      <point x="113" y="62"/>
      <point x="113" y="135" type="curve"/>
      <point x="98" y="135"/>
      <point x="92" y="121"/>
      <point x="92" y="97" type="curve" smooth="yes"/>
      <point x="92" y="50"/>
      <point x="118" y="-10"/>
    </contour>
  </outline>
</glyph>
<glyph name="y" format="2">
  <advance width="677"/>
  <unicode hex="0079"/>
  <anchor x="199" y="-240" name="bottom"/>
  <anchor x="339" y="536" name="top"/>
  <anchor x="667" y="536" name="topright"/>
  <outline>
    <contour>
      <point x="66" y="-240" type="line"/>
      <point x="67" y="-240" type="line" smooth="yes"/>
      <point x="291" y="-240"/>
      <point x="299" y="-178"/>
      <point x="395" y="62" type="curve" smooth="yes"/>
      <point x="582" y="504" type="line" smooth="yes"/>
      <point x="594" y="524"/>
      <point x="601" y="516"/>
      <point x="677" y="516" type="curve" smooth="yes"/>
      <point x="680" y="516" type="line"/>
      <point x="680" y="536" type="line"/>
      <point x="450" y="536" type="line"/>
      <point x="450" y="516" type="line"/>
      <point x="508" y="516" type="line" smooth="yes"/>
      <point x="542" y="516"/>
      <point x="549" y="510"/>
      <point x="549" y="496" type="curve" smooth="yes"/>
      <point x="549" y="485"/>
      <point x="538" y="456"/>
      <point x="524" y="422" type="curve" smooth="yes"/>
      <point x="411" y="141" type="line" smooth="yes"/>
      <point x="385" y="86"/>
      <point x="371" y="56"/>
      <point x="356" y="7" type="curve"/>
      <point x="338" y="61"/>
      <point x="292" y="157"/>
      <point x="269" y="199" type="curve" smooth="yes"/>
      <point x="177" y="391" type="line" smooth="yes"/>
      <point x="144" y="467"/>
      <point x="134" y="480"/>
      <point x="134" y="495" type="curve" smooth="yes"/>
      <point x="134" y="506"/>
      <point x="135" y="516"/>
      <point x="171" y="516" type="curve" smooth="yes"/>
      <point x="218" y="516" type="line"/>
      <point x="218" y="536" type="line"/>
      <point x="13" y="536" type="line"/>
      <point x="13" y="516" type="line"/>
      <point x="18" y="516" type="line" smooth="yes"/>
      <point x="85" y="516"/>
      <point x="89" y="519"/>
      <point x="107" y="483" type="curve" smooth="yes"/>
      <point x="343" y="-12" type="line"/>
      <point x="278" y="-151"/>
      <point x="247" y="-215"/>
      <point x="66" y="-215" type="curve"/>
    </contour>
  </outline>
</glyph>
<glyph name="z" format="2">
  <advance width="603"/>
  <unicode hex="007A"/>
  <anchor x="302" y="0" name="bottom"/>
  <anchor x="302" y="536" name="top"/>
  <anchor x="553" y="536" name="topright"/>
  <outline>
    <contour>
      <point x="88" y="0" type="line"/>
      <point x="518" y="0" type="line"/>
      <point x="523" y="138" type="line"/>
      <point x="503" y="138" type="line"/>
      <point x="501" y="95" type="line" smooth="yes"/>
      <point x="498" y="39"/>
      <point x="492" y="25"/>
      <point x="440" y="25" type="curve" smooth="yes"/>
      <point x="124" y="25" type="line"/>
      <point x="512" y="514" type="line"/>
      <point x="512" y="536" type="line"/>
      <point x="97" y="536" type="line"/>
      <point x="89" y="420" type="line"/>
      <point x="109" y="420" type="line"/>
      <point x="111" y="442" type="line" smooth="yes"/>
      <point x="116" y="497"/>
      <point x="122" y="511"/>
      <point x="174" y="511" type="curve" smooth="yes"/>
      <point x="474" y="511" type="line"/>
      <point x="88" y="22" type="line"/>
    </contour>
  </outline>
</glyph>
<glyph name="braceleft" format="2">
  <advance width="506"/>
  <unicode hex="007B"/>
  <outline>
    <contour>
      <point x="372" y="-132" type="curve" smooth="yes"/>
      <point x="411" y="-132" type="line"/>
      <point x="411" y="-107" type="line"/>
      <point x="377" y="-107" type="line" smooth="yes"/>
      <point x="301" y="-107"/>
      <point x="273" y="-66"/>
      <point x="273" y="1" type="curve" smooth="yes"/>
      <point x="273" y="175" type="line" smooth="yes"/>
      <point x="273" y="258"/>
      <point x="226" y="303"/>
      <point x="151" y="313" type="curve"/>
      <point x="151" y="315" type="line"/>
      <point x="226" y="325"/>
      <point x="273" y="368"/>
      <point x="273" y="453" type="curve" smooth="yes"/>
      <point x="273" y="626" type="line" smooth="yes"/>
      <point x="273" y="696"/>
      <point x="301" y="735"/>
      <point x="377" y="735" type="curve" smooth="yes"/>
      <point x="411" y="735" type="line"/>
      <point x="411" y="760" type="line"/>
      <point x="374" y="760" type="line" smooth="yes"/>
      <point x="295" y="760"/>
      <point x="246" y="715"/>
      <point x="246" y="621" type="curve" smooth="yes"/>
      <point x="246" y="457" type="line" smooth="yes"/>
      <point x="246" y="353"/>
      <point x="184" y="333"/>
      <point x="100" y="326" type="curve"/>
      <point x="100" y="302" type="line"/>
      <point x="184" y="295"/>
      <point x="246" y="273"/>
      <point x="246" y="171" type="curve" smooth="yes"/>
      <point x="246" y="8" type="line" smooth="yes"/>
      <point x="246" y="-87"/>
      <point x="296" y="-132"/>
    </contour>
  </outline>
</glyph>
<glyph name="dieresis" format="2">
  <advance width="716"/>
  <unicode hex="00A8"/>
  <outline>
    <contour>
      <point x="453" y="654" type="curve" smooth="yes"/>
      <point x="467" y="654"/>
      <point x="476" y="662"/>
      <point x="476" y="698" type="curve" smooth="yes"/>
      <point x="476" y="730"/>
      <point x="467" y="740"/>
      <point x="453" y="740" type="curve" smooth="yes"/>
      <point x="441" y="740"/>
      <point x="430" y="730"/>
      <point x="430" y="698" type="curve" smooth="yes"/>
      <point x="430" y="662"/>
      <point x="441" y="654"/>
    </contour>
    <contour>
      <point x="264" y="654" type="curve" smooth="yes"/>
      <point x="278" y="654"/>
      <point x="287" y="662"/>
      <point x="287" y="698" type="curve" smooth="yes"/>
      <point x="287" y="730"/>
      <point x="278" y="740"/>
      <point x="264" y="740" type="curve" smooth="yes"/>
      <point x="253" y="740"/>
      <point x="240" y="730"/>
      <point x="240" y="698" type="curve" smooth="yes"/>
      <point x="240" y="662"/>
      <point x="253" y="654"/>
    </contour>
  </outline>
</glyph>
<glyph name="overscore" format="2">
  <advance width="571"/>
  <unicode hex="00AF"/>
  <outline>
    <contour>
      <point x="-7" y="760" type="line"/>
      <point x="577" y="760" type="line"/>
      <point x="577" y="753" type="line"/>
      <point x="-7" y="753" type="line"/>
    </contour>
  </outline>
</glyph>
<glyph name="micro" format="2">
  <advance width="674"/>
  <unicode hex="00B5"/>
  <outline>
    <contour>
      <point x="160" y="-240" type="curve" smooth="yes"/>
      <point x="205" y="-240"/>
      <point x="206" y="-226"/>
      <point x="206" y="-210" type="curve"/>
      <point x="169" y="-210"/>
      <point x="144" y="-222"/>
      <point x="142" y="82" type="curve"/>
      <point x="167" y="24"/>
      <point x="214" y="-10"/>
      <point x="304" y="-10" type="curve" smooth="yes"/>
      <point x="390" y="-10"/>
      <point x="461" y="40"/>
      <point x="506" y="126" type="curve"/>
      <point x="512" y="126" type="line"/>
      <point x="502" y="35"/>
      <point x="546" y="0"/>
      <point x="588" y="0" type="curve" smooth="yes"/>
      <point x="644" y="0" type="line"/>
      <point x="644" y="24" type="line"/>
      <point x="631" y="24" type="line" smooth="yes"/>
      <point x="550" y="24"/>
      <point x="543" y="52"/>
      <point x="543" y="114" type="curve" smooth="yes"/>
      <point x="543" y="536" type="line"/>
      <point x="515" y="536" type="line"/>
      <point x="515" y="225" type="line" smooth="yes"/>
      <point x="515" y="161"/>
      <point x="435" y="15"/>
      <point x="306" y="15" type="curve" smooth="yes"/>
      <point x="207" y="15"/>
      <point x="144" y="85"/>
      <point x="144" y="166" type="curve" smooth="yes"/>
      <point x="144" y="536" type="line"/>
      <point x="116" y="536" type="line"/>
      <point x="116" y="47" type="line" smooth="yes"/>
      <point x="116" y="-92"/>
      <point x="112" y="-52"/>
      <point x="112" y="-160" type="curve" smooth="yes"/>
      <point x="112" y="-215"/>
      <point x="141" y="-240"/>
    </contour>
  </outline>
</glyph>
<glyph name="paragraph" format="2">
  <advance width="759"/>
  <unicode hex="00B6"/>
  <outline>
    <contour>
      <point x="218" y="-111" type="line"/>
      <point x="364" y="-111" type="line"/>
      <point x="364" y="745" type="line"/>
      <point x="558" y="745" type="line"/>
      <point x="558" y="-111" type="line"/>
      <point x="704" y="-111" type="line"/>
      <point x="704" y="-91" type="line"/>
      <point x="662" y="-91" type="line" smooth="yes"/>
      <point x="618" y="-91"/>
      <point x="586" y="-75"/>
      <point x="586" y="-37" type="curve" smooth="yes"/>
      <point x="586" y="672" type="line" smooth="yes"/>
      <point x="586" y="728"/>
      <point x="654" y="740"/>
      <point x="684" y="740" type="curve" smooth="yes"/>
      <point x="704" y="740" type="line"/>
      <point x="704" y="760" type="line"/>
      <point x="228" y="760" type="line" smooth="yes"/>
      <point x="111" y="760"/>
      <point x="58" y="689"/>
      <point x="58" y="582" type="curve" smooth="yes"/>
      <point x="58" y="478"/>
      <point x="103" y="386"/>
      <point x="226" y="386" type="curve" smooth="yes"/>
      <point x="336" y="386" type="line"/>
      <point x="336" y="-53" type="line" smooth="yes"/>
      <point x="336" y="-74"/>
      <point x="294" y="-91"/>
      <point x="269" y="-91" type="curve" smooth="yes"/>
      <point x="218" y="-91" type="line"/>
    </contour>
  </outline>
</glyph>
<glyph name="AE" format="2">
  <advance width="1099"/>
  <unicode hex="00C6"/>
  <anchor x="550" y="0" name="bottom"/>
  <anchor x="550" y="714" name="top"/>
  <outline>
    <contour>
      <point x="-6" y="0" type="line"/>
      <point x="262" y="0" type="line"/>
      <point x="262" y="20" type="line"/>
      <point x="197" y="20" type="line" smooth="yes"/>
      <point x="160" y="20"/>
      <point x="139" y="20"/>
      <point x="139" y="41" type="curve" smooth="yes"/>
      <point x="139" y="51"/>
      <point x="149" y="67"/>
      <point x="163" y="82" type="curve" smooth="yes"/>
      <point x="272" y="277" type="line"/>
      <point x="567" y="277" type="line"/>
      <point x="567" y="115" type="line" smooth="yes"/>
      <point x="567" y="31"/>
      <point x="567" y="20"/>
      <point x="492" y="20" type="curve" smooth="yes"/>
      <point x="442" y="20" type="line"/>
      <point x="442" y="0" type="line"/>
      <point x="1020" y="0" type="line"/>
      <point x="1030" y="162" type="line"/>
      <point x="1010" y="162" type="line"/>
      <point x="1002" y="64" type="line" smooth="yes"/>
      <point x="1000" y="26"/>
      <point x="980" y="25"/>
      <point x="926" y="25" type="curve" smooth="yes"/>
      <point x="595" y="25" type="line"/>
      <point x="593" y="362" type="line"/>
      <point x="893" y="362" type="line"/>
      <point x="893" y="387" type="line"/>
      <point x="593" y="387" type="line"/>
      <point x="593" y="689" type="line"/>
      <point x="931" y="689" type="line" smooth="yes"/>
      <point x="929" y="689"/>
      <point x="956" y="678"/>
      <point x="957" y="676" type="curve" smooth="yes"/>
      <point x="967" y="552" type="line"/>
      <point x="987" y="552" type="line"/>
      <point x="978" y="714" type="line"/>
      <point x="378" y="714" type="line"/>
      <point x="378" y="684" type="line"/>
      <point x="489" y="686" type="line"/>
      <point x="92" y="9" type="line" smooth="yes"/>
      <point x="89" y="22"/>
      <point x="60" y="20"/>
      <point x="59" y="20" type="curve" smooth="yes"/>
      <point x="-6" y="20" type="line"/>
    </contour>
    <contour>
      <point x="286" y="302" type="line"/>
      <point x="517" y="689" type="line"/>
      <point x="567" y="689" type="line"/>
      <point x="567" y="302" type="line"/>
    </contour>
  </outline>
</glyph>
<glyph name="ae" format="2">
  <advance width="957"/>
  <unicode hex="00E6"/>
  <anchor x="479" y="0" name="bottom"/>
  <anchor x="479" y="536" name="top"/>
  <outline>
    <contour>
      <point x="239" y="-10" type="curve" smooth="yes"/>
      <point x="350" y="-10"/>
      <point x="448" y="41"/>
      <point x="457" y="164" type="curve"/>
      <point x="482" y="48"/>
      <point x="565" y="-10"/>
      <point x="685" y="-10" type="curve" smooth="yes"/>
      <point x="814" y="-10"/>
      <point x="877" y="58"/>
      <point x="877" y="93" type="curve" smooth="yes"/>
      <point x="877" y="100"/>
      <point x="873" y="103"/>
      <point x="868" y="107" type="curve"/>
      <point x="842" y="61"/>
      <point x="787" y="15"/>
      <point x="687" y="15" type="curve" smooth="yes"/>
      <point x="552" y="15"/>
      <point x="459" y="124"/>
      <point x="464" y="282" type="curve"/>
      <point x="892" y="282" type="line"/>
      <point x="892" y="285" type="line" smooth="yes"/>
      <point x="892" y="437"/>
      <point x="810" y="542"/>
      <point x="677" y="542" type="curve" smooth="yes"/>
      <point x="547" y="542"/>
      <point x="500" y="469"/>
      <point x="465" y="399" type="curve"/>
      <point x="459" y="454"/>
      <point x="467" y="542"/>
      <point x="292" y="542" type="curve" smooth="yes"/>
      <point x="138" y="542"/>
      <point x="123" y="469"/>
      <point x="123" y="442" type="curve" smooth="yes"/>
      <point x="123" y="407"/>
      <point x="129" y="395"/>
      <point x="144" y="395" type="curve"/>
      <point x="144" y="471"/>
      <point x="168" y="517"/>
      <point x="294" y="517" type="curve" smooth="yes"/>
      <point x="445" y="517"/>
      <point x="438" y="451"/>
      <point x="438" y="371" type="curve" smooth="yes"/>
      <point x="438" y="294" type="line"/>
      <point x="362" y="297" type="line" smooth="yes"/>
      <point x="159" y="302"/>
      <point x="70" y="252"/>
      <point x="70" y="146" type="curve" smooth="yes"/>
      <point x="70" y="38"/>
      <point x="150" y="-10"/>
    </contour>
    <contour>
      <point x="247" y="15" type="curve" smooth="yes"/>
      <point x="136" y="15"/>
      <point x="98" y="87"/>
      <point x="98" y="144" type="curve" smooth="yes"/>
      <point x="98" y="220"/>
      <point x="149" y="276"/>
      <point x="355" y="272" type="curve" smooth="yes"/>
      <point x="438" y="269" type="line"/>
      <point x="437" y="170" type="line" smooth="yes"/>
      <point x="436" y="117"/>
      <point x="368" y="15"/>
    </contour>
    <contour>
      <point x="468" y="305" type="line"/>
      <point x="482" y="418"/>
      <point x="518" y="517"/>
      <point x="673" y="517" type="curve" smooth="yes"/>
      <point x="797" y="517"/>
      <point x="862" y="419"/>
      <point x="864" y="305" type="curve"/>
    </contour>
  </outline>
</glyph>
<glyph name="kgreenlandic" format="2">
  <advance width="637"/>
  <unicode hex="0138"/>
  <anchor x="319" y="0" name="bottom"/>
  <anchor x="319" y="536" name="top"/>
  <outline>
    <contour>
      <point x="26" y="0" type="line"/>
      <point x="285" y="0" type="line"/>
      <point x="285" y="20" type="line"/>
      <point x="258" y="20" type="line" smooth="yes"/>
      <point x="180" y="20"/>
      <point x="176" y="22"/>
      <point x="176" y="92" type="curve" smooth="yes"/>
      <point x="176" y="174" type="line"/>
      <point x="318" y="301" type="line"/>
      <point x="455" y="119" type="line" smooth="yes"/>
      <point x="537" y="8"/>
      <point x="542" y="0"/>
      <point x="618" y="0" type="curve" smooth="yes"/>
      <point x="640" y="0" type="line"/>
      <point x="640" y="20" type="line"/>
      <point x="639" y="20" type="line" smooth="yes"/>
      <point x="595" y="20"/>
      <point x="553" y="37"/>
      <point x="489" y="118" type="curve" smooth="yes"/>
      <point x="338" y="314" type="line"/>
      <point x="490" y="457" type="line" smooth="yes"/>
      <point x="546" y="494"/>
      <point x="541" y="516"/>
      <point x="609" y="516" type="curve"/>
      <point x="609" y="536" type="line"/>
      <point x="407" y="536" type="line"/>
      <point x="407" y="516" type="line"/>
      <point x="485" y="516"/>
      <point x="495" y="516"/>
      <point x="495" y="500" type="curve" smooth="yes"/>
      <point x="495" y="465"/>
      <point x="415" y="400"/>
      <point x="333" y="338" type="curve" smooth="yes"/>
      <point x="176" y="208" type="line"/>
      <point x="173" y="278"/>
      <point x="176" y="308"/>
      <point x="176" y="375" type="curve" smooth="yes"/>
      <point x="176" y="536" type="line"/>
      <point x="26" y="536" type="line"/>
      <point x="26" y="516" type="line"/>
      <point x="85" y="516" type="line" smooth="yes"/>
      <point x="140" y="516"/>
      <point x="148" y="512"/>
      <point x="148" y="444" type="curve" smooth="yes"/>
      <point x="148" y="92" type="line" smooth="yes"/>
      <point x="148" y="22"/>
      <point x="146" y="20"/>
      <point x="63" y="20" type="curve" smooth="yes"/>
      <point x="26" y="20" type="line"/>
    </contour>
  </outline>
</glyph>
<glyph name="Eng" format="2">
  <advance width="903"/>
  <unicode hex="014A"/>
  <anchor x="452" y="-240" name="bottom"/>
  <anchor x="452" y="714" name="top"/>
  <outline>
    <contour>
      <point x="550" y="-240" type="line"/>
      <point x="579" y="-240" type="line" smooth="yes"/>
      <point x="653" y="-240"/>
      <point x="727" y="-188"/>
      <point x="727" y="-4" type="curve" smooth="yes"/>
      <point x="727" y="606" type="line" smooth="yes"/>
      <point x="727" y="683"/>
      <point x="731" y="694"/>
      <point x="789" y="694" type="curve" smooth="yes"/>
      <point x="847" y="694" type="line"/>
      <point x="847" y="714" type="line"/>
      <point x="592" y="714" type="line"/>
      <point x="592" y="694" type="line"/>
      <point x="648" y="694" type="line" smooth="yes"/>
      <point x="698" y="694"/>
      <point x="702" y="683"/>
      <point x="702" y="604" type="curve" smooth="yes"/>
      <point x="702" y="43" type="line"/>
      <point x="209" y="714" type="line"/>
      <point x="64" y="714" type="line"/>
      <point x="64" y="694" type="line"/>
      <point x="140" y="694" type="line" smooth="yes"/>
      <point x="180" y="694"/>
      <point x="188" y="683"/>
      <point x="188" y="608" type="curve" smooth="yes"/>
      <point x="188" y="108" type="line" smooth="yes"/>
      <point x="188" y="31"/>
      <point x="180" y="20"/>
      <point x="136" y="20" type="curve" smooth="yes"/>
      <point x="64" y="20" type="line"/>
      <point x="64" y="0" type="line"/>
      <point x="323" y="0" type="line"/>
      <point x="323" y="20" type="line"/>
      <point x="247" y="20" type="line" smooth="yes"/>
      <point x="227" y="20"/>
      <point x="213" y="31"/>
      <point x="213" y="108" type="curve" smooth="yes"/>
      <point x="213" y="667" type="line"/>
      <point x="700" y="2" type="line"/>
      <point x="700" y="-6" type="line" smooth="yes"/>
      <point x="700" y="-155"/>
      <point x="646" y="-215"/>
      <point x="568" y="-215" type="curve" smooth="yes"/>
      <point x="550" y="-215" type="line"/>
    </contour>
  </outline>
</glyph>
<glyph name="OE" format="2">
  <advance width="1083"/>
  <unicode hex="0152"/>
  <anchor x="542" y="0" name="bottom"/>
  <anchor x="542" y="714" name="top"/>
  <outline>
    <contour>
      <point x="420" y="-4" type="curve" smooth="yes"/>
      <point x="455" y="-4"/>
      <point x="505" y="-1"/>
      <point x="546" y="0" type="curve"/>
      <point x="1005" y="0" type="line"/>
      <point x="1015" y="162" type="line"/>
      <point x="995" y="162" type="line"/>
      <point x="989" y="70" type="line" smooth="yes"/>
      <point x="987" y="23"/>
      <point x="954" y="25"/>
      <point x="925" y="25" type="curve" smooth="yes"/>
      <point x="580" y="25" type="line"/>
      <point x="578" y="362" type="line"/>
      <point x="878" y="362" type="line"/>
      <point x="878" y="387" type="line"/>
      <point x="578" y="387" type="line"/>
      <point x="578" y="689" type="line"/>
      <point x="886" y="689" type="line" smooth="yes"/>
      <point x="924" y="689"/>
      <point x="942" y="684"/>
      <point x="944" y="654" type="curve" smooth="yes"/>
      <point x="952" y="552" type="line"/>
      <point x="972" y="552" type="line"/>
      <point x="963" y="714" type="line"/>
      <point x="544" y="714" type="line"/>
      <point x="504" y="719"/>
      <point x="455" y="719"/>
      <point x="421" y="719" type="curve" smooth="yes"/>
      <point x="194" y="719"/>
      <point x="72" y="588"/>
      <point x="72" y="359" type="curve" smooth="yes"/>
      <point x="72" y="113"/>
      <point x="188" y="-4"/>
    </contour>
    <contour>
      <point x="420" y="21" type="curve" smooth="yes"/>
      <point x="205" y="21"/>
      <point x="100" y="133"/>
      <point x="100" y="358" type="curve" smooth="yes"/>
      <point x="100" y="572"/>
      <point x="211" y="694"/>
      <point x="421" y="694" type="curve" smooth="yes"/>
      <point x="457" y="694"/>
      <point x="507" y="695"/>
      <point x="552" y="691" type="curve"/>
      <point x="552" y="23" type="line"/>
      <point x="526" y="22"/>
      <point x="499" y="21"/>
    </contour>
  </outline>
</glyph>
<glyph name="uni0188" format="2">
  <advance width="549"/>
  <unicode hex="0188"/>
  <anchor x="274" y="0" name="bottom"/>
  <anchor x="274" y="760" name="top"/>
  <outline>
    <contour>
      <point x="315" y="-10" type="curve" smooth="yes"/>
      <point x="440" y="-10"/>
      <point x="506" y="60"/>
      <point x="506" y="89" type="curve" smooth="yes"/>
      <point x="506" y="98"/>
      <point x="505" y="107"/>
      <point x="498" y="118" type="curve"/>
      <point x="469" y="55"/>
      <point x="424" y="17"/>
      <point x="315" y="15" type="curve" smooth="yes"/>
      <point x="216" y="13"/>
      <point x="108" y="120"/>
      <point x="108" y="264" type="curve" smooth="yes"/>
      <point x="108" y="442"/>
      <point x="195" y="517"/>
      <point x="316" y="517" type="curve" smooth="yes"/>
      <point x="420" y="517"/>
      <point x="468" y="444"/>
      <point x="468" y="406" type="curve"/>
      <point x="486" y="408"/>
      <point x="493" y="420"/>
      <point x="493" y="429" type="curve" smooth="yes"/>
      <point x="493" y="651" type="line" smooth="yes"/>
      <point x="493" y="711"/>
      <point x="506" y="733"/>
      <point x="551" y="733" type="curve" smooth="yes"/>
      <point x="579" y="733"/>
      <point x="587" y="726"/>
      <point x="617" y="726" type="curve"/>
      <point x="621" y="727"/>
      <point x="622" y="730"/>
      <point x="622" y="729" type="curve" smooth="yes"/>
      <point x="622" y="738"/>
      <point x="597" y="760"/>
      <point x="559" y="760" type="curve" smooth="yes"/>
      <point x="461" y="760"/>
      <point x="465" y="696"/>
      <point x="465" y="667" type="curve" smooth="yes"/>
      <point x="465" y="491" type="line"/>
      <point x="436" y="520"/>
      <point x="390" y="542"/>
      <point x="324" y="542" type="curve" smooth="yes"/>
      <point x="188" y="542"/>
      <point x="80" y="471"/>
      <point x="80" y="263" type="curve" smooth="yes"/>
      <point x="80" y="101"/>
      <point x="188" y="-10"/>
    </contour>
  </outline>
</glyph>
<glyph name="uni0193" format="2">
  <advance width="789"/>
  <unicode hex="0193"/>
  <anchor x="394" y="0" name="bottom"/>
  <anchor x="394" y="714" name="top"/>
  <outline>
    <contour>
      <point x="458" y="-10" type="curve" smooth="yes"/>
      <point x="556" y="-10"/>
      <point x="625" y="1"/>
      <point x="688" y="25" type="curve"/>
      <point x="688" y="247" type="line" smooth="yes"/>
      <point x="688" y="307"/>
      <point x="696" y="301"/>
      <point x="705" y="301" type="curve" smooth="yes"/>
      <point x="781" y="301" type="line"/>
      <point x="781" y="321" type="line"/>
      <point x="555" y="321" type="line"/>
      <point x="555" y="301" type="line"/>
      <point x="632" y="301" type="line" smooth="yes"/>
      <point x="650" y="301"/>
      <point x="660" y="303"/>
      <point x="660" y="254" type="curve" smooth="yes"/>
      <point x="660" y="42" type="line"/>
      <point x="615" y="25"/>
      <point x="539" y="15"/>
      <point x="478" y="15" type="curve" smooth="yes"/>
      <point x="217" y="15"/>
      <point x="102" y="163"/>
      <point x="102" y="358" type="curve" smooth="yes"/>
      <point x="102" y="622"/>
      <point x="239" y="699"/>
      <point x="457" y="699" type="curve" smooth="yes"/>
      <point x="627" y="699"/>
      <point x="665" y="669"/>
      <point x="665" y="567" type="curve"/>
      <point x="676" y="567"/>
      <point x="690" y="580"/>
      <point x="690" y="605" type="curve" smooth="yes"/>
      <point x="690" y="737" type="line" smooth="yes"/>
      <point x="690" y="790"/>
      <point x="698" y="809"/>
      <point x="754" y="809" type="curve" smooth="yes"/>
      <point x="776" y="809"/>
      <point x="785" y="806"/>
      <point x="815" y="806" type="curve"/>
      <point x="817" y="808"/>
      <point x="819" y="813"/>
      <point x="819" y="815" type="curve" smooth="yes"/>
      <point x="819" y="826"/>
      <point x="782" y="832"/>
      <point x="760" y="832" type="curve" smooth="yes"/>
      <point x="657" y="832"/>
      <point x="662" y="777"/>
      <point x="662" y="747" type="curve" smooth="yes"/>
      <point x="662" y="669" type="line"/>
      <point x="629" y="701"/>
      <point x="570" y="724"/>
      <point x="465" y="724" type="curve" smooth="yes"/>
      <point x="249" y="724"/>
      <point x="74" y="656"/>
      <point x="74" y="358" type="curve" smooth="yes"/>
      <point x="74" y="153"/>
      <point x="202" y="-10"/>
    </contour>
  </outline>
</glyph>
<glyph name="uni0198" format="2">
  <advance width="810"/>
  <unicode hex="0198"/>
  <anchor x="405" y="0" name="bottom"/>
  <anchor x="405" y="714" name="top"/>
  <outline>
    <contour>
      <point x="64" y="0" type="line"/>
      <point x="337" y="0" type="line"/>
      <point x="337" y="20" type="line"/>
      <point x="274" y="20" type="line" smooth="yes"/>
      <point x="221" y="20"/>
      <point x="216" y="31"/>
      <point x="216" y="104" type="curve" smooth="yes"/>
      <point x="216" y="195" type="line"/>
      <point x="384" y="373" type="line"/>
      <point x="680" y="119" type="line" smooth="yes"/>
      <point x="780" y="21"/>
      <point x="803" y="0"/>
      <point x="846" y="0" type="curve" smooth="yes"/>
      <point x="852" y="0" type="line"/>
      <point x="852" y="30" type="line"/>
      <point x="853" y="30" type="line" smooth="yes"/>
      <point x="830" y="30"/>
      <point x="798" y="41"/>
      <point x="727" y="106" type="curve" smooth="yes"/>
      <point x="404" y="394" type="line"/>
      <point x="595" y="608" type="line" smooth="yes"/>
      <point x="654" y="672"/>
      <point x="674" y="687"/>
      <point x="705" y="687" type="curve" smooth="yes"/>
      <point x="719" y="687"/>
      <point x="745" y="683"/>
      <point x="757" y="654" type="curve"/>
      <point x="771" y="651"/>
      <point x="781" y="662"/>
      <point x="781" y="670" type="curve" smooth="yes"/>
      <point x="781" y="693"/>
      <point x="763" y="722"/>
      <point x="706" y="722" type="curve" smooth="yes"/>
      <point x="661" y="722"/>
      <point x="646" y="717"/>
      <point x="616" y="690" type="curve" smooth="yes"/>
      <point x="216" y="227" type="line"/>
      <point x="216" y="603" type="line" smooth="yes"/>
      <point x="216" y="683"/>
      <point x="220" y="694"/>
      <point x="278" y="694" type="curve" smooth="yes"/>
      <point x="333" y="694" type="line"/>
      <point x="333" y="714" type="line"/>
      <point x="64" y="714" type="line"/>
      <point x="64" y="694" type="line"/>
      <point x="130" y="694" type="line" smooth="yes"/>
      <point x="184" y="694"/>
      <point x="188" y="683"/>
      <point x="188" y="603" type="curve" smooth="yes"/>
      <point x="188" y="108" type="line" smooth="yes"/>
      <point x="188" y="31"/>
      <point x="182" y="20"/>
      <point x="128" y="20" type="curve" smooth="yes"/>
      <point x="64" y="20" type="line"/>
    </contour>
  </outline>
</glyph>
<glyph name="uni019B" format="2">
  <advance width="603"/>
  <unicode hex="019B"/>
  <anchor x="302" y="0" name="bottom"/>
  <anchor x="302" y="770" name="top"/>
  <outline>
    <contour>
      <point x="22" y="0" type="line"/>
      <point x="56" y="0" type="line"/>
      <point x="223" y="294" type="line" smooth="yes"/>
      <point x="257" y="357"/>
      <point x="296" y="432"/>
      <point x="322" y="465" type="curve"/>
      <point x="325" y="465" type="line"/>
      <point x="368" y="311"/>
      <point x="379" y="320"/>
      <point x="416" y="157" type="curve"/>
      <point x="434" y="54"/>
      <point x="460" y="0"/>
      <point x="566" y="0" type="curve" smooth="yes"/>
      <point x="598" y="0" type="line"/>
      <point x="598" y="30" type="line"/>
      <point x="592" y="30" type="line" smooth="yes"/>
      <point x="524" y="30"/>
      <point x="484" y="37"/>
      <point x="461" y="104" type="curve" smooth="yes"/>
      <point x="330" y="566" type="line" smooth="yes"/>
      <point x="322" y="591"/>
      <point x="315" y="613"/>
      <point x="306" y="631" type="curve"/>
      <point x="420" y="687" type="line"/>
      <point x="420" y="718" type="line"/>
      <point x="298" y="658" type="line"/>
      <point x="246" y="772"/>
      <point x="193" y="770"/>
      <point x="134" y="770" type="curve" smooth="yes"/>
      <point x="81" y="770"/>
      <point x="35" y="742"/>
      <point x="35" y="721" type="curve" smooth="yes"/>
      <point x="35" y="703"/>
      <point x="48" y="704"/>
      <point x="57" y="703" type="curve"/>
      <point x="76" y="738"/>
      <point x="111" y="749"/>
      <point x="150" y="745" type="curve" smooth="yes"/>
      <point x="201" y="741"/>
      <point x="232" y="705"/>
      <point x="264" y="641" type="curve"/>
      <point x="158" y="590" type="line"/>
      <point x="158" y="561" type="line"/>
      <point x="275" y="617" type="line"/>
      <point x="289" y="585"/>
      <point x="301" y="547"/>
      <point x="317" y="502" type="curve"/>
    </contour>
  </outline>
</glyph>
<glyph name="uni019D" format="2">
  <advance width="910"/>
  <unicode hex="019D"/>
  <anchor x="456" y="-240" name="bottom"/>
  <anchor x="456" y="714" name="top"/>
  <outline>
    <contour>
      <point x="1" y="-240" type="line"/>
      <point x="14" y="-240" type="line" smooth="yes"/>
      <point x="140" y="-240"/>
      <point x="213" y="-230"/>
      <point x="213" y="-38" type="curve" smooth="yes"/>
      <point x="213" y="667" type="line"/>
      <point x="702" y="0" type="line"/>
      <point x="727" y="0" type="line"/>
      <point x="727" y="604" type="line" smooth="yes"/>
      <point x="727" y="683"/>
      <point x="733" y="694"/>
      <point x="785" y="694" type="curve" smooth="yes"/>
      <point x="847" y="694" type="line"/>
      <point x="847" y="714" type="line"/>
      <point x="592" y="714" type="line"/>
      <point x="592" y="694" type="line"/>
      <point x="626" y="694" type="line" smooth="yes"/>
      <point x="706" y="694"/>
      <point x="702" y="683"/>
      <point x="702" y="604" type="curve" smooth="yes"/>
      <point x="702" y="43" type="line"/>
      <point x="209" y="714" type="line"/>
      <point x="64" y="714" type="line"/>
      <point x="64" y="694" type="line"/>
      <point x="140" y="694" type="line" smooth="yes"/>
      <point x="180" y="694"/>
      <point x="188" y="683"/>
      <point x="188" y="604" type="curve" smooth="yes"/>
      <point x="188" y="-10" type="line" smooth="yes"/>
      <point x="188" y="-158"/>
      <point x="167" y="-215"/>
      <point x="12" y="-215" type="curve" smooth="yes"/>
      <point x="1" y="-215" type="line"/>
    </contour>
  </outline>
</glyph>
<glyph name="uni01AA" format="2">
  <advance width="440"/>
  <unicode hex="01AA"/>
  <anchor x="220" y="-240" name="bottom"/>
  <anchor x="220" y="751" name="top"/>
  <outline>
    <contour>
      <point x="274" y="-240" type="curve" smooth="yes"/>
      <point x="300" y="-240"/>
      <point x="326" y="-239"/>
      <point x="347" y="-237" type="curve"/>
      <point x="347" y="-212" type="line"/>
      <point x="325" y="-214"/>
      <point x="300" y="-215"/>
      <point x="278" y="-215" type="curve" smooth="yes"/>
      <point x="202" y="-215"/>
      <point x="186" y="-185"/>
      <point x="186" y="-83" type="curve" smooth="yes"/>
      <point x="186" y="646" type="line" smooth="yes"/>
      <point x="186" y="699"/>
      <point x="156" y="751"/>
      <point x="80" y="751" type="curve" smooth="yes"/>
      <point x="11" y="751"/>
      <point x="-37" y="711"/>
      <point x="-37" y="652" type="curve" smooth="yes"/>
      <point x="-37" y="599"/>
      <point x="10" y="564"/>
      <point x="78" y="564" type="curve" smooth="yes"/>
      <point x="113" y="564"/>
      <point x="139" y="575"/>
      <point x="158" y="596" type="curve"/>
      <point x="158" y="-89" type="line" smooth="yes"/>
      <point x="158" y="-195"/>
      <point x="185" y="-240"/>
    </contour>
    <contour>
      <point x="80" y="589" type="curve" smooth="yes"/>
      <point x="43" y="589"/>
      <point x="-9" y="596"/>
      <point x="-9" y="652" type="curve" smooth="yes"/>
      <point x="-9" y="691"/>
      <point x="30" y="726"/>
      <point x="80" y="726" type="curve" smooth="yes"/>
      <point x="139" y="726"/>
      <point x="158" y="681"/>
      <point x="158" y="646" type="curve" smooth="yes"/>
      <point x="158" y="622"/>
      <point x="139" y="589"/>
    </contour>
  </outline>
</glyph>
<glyph name="uni01AD" format="2">
  <advance width="343"/>
  <unicode hex="01AD"/>
  <anchor x="171" y="0" name="bottom"/>
  <anchor x="171" y="762" name="top"/>
  <outline>
    <contour>
      <point x="237" y="-10" type="curve" smooth="yes"/>
      <point x="262" y="-10"/>
      <point x="282" y="-10"/>
      <point x="309" y="-5" type="curve"/>
      <point x="309" y="20" type="line"/>
      <point x="284" y="15"/>
      <point x="265" y="15"/>
      <point x="237" y="15" type="curve" smooth="yes"/>
      <point x="167" y="15"/>
      <point x="145" y="52"/>
      <point x="145" y="124" type="curve" smooth="yes"/>
      <point x="145" y="511" type="line"/>
      <point x="299" y="511" type="line"/>
      <point x="299" y="536" type="line"/>
      <point x="145" y="536" type="line"/>
      <point x="145" y="697" type="line" smooth="yes"/>
      <point x="145" y="717"/>
      <point x="157" y="733"/>
      <point x="198" y="733" type="curve" smooth="yes"/>
      <point x="231" y="733"/>
      <point x="246" y="726"/>
      <point x="276" y="715" type="curve"/>
      <point x="273" y="723"/>
      <point x="271" y="723"/>
      <point x="271" y="722" type="curve" smooth="yes"/>
      <point x="271" y="744"/>
      <point x="235" y="762"/>
      <point x="212" y="762" type="curve" smooth="yes"/>
      <point x="125" y="762"/>
      <point x="126" y="710"/>
      <point x="110" y="626" type="curve" smooth="yes"/>
      <point x="100" y="568"/>
      <point x="112" y="526"/>
      <point x="21" y="532" type="curve"/>
      <point x="21" y="511" type="line"/>
      <point x="117" y="511" type="line"/>
      <point x="117" y="141" type="line" smooth="yes"/>
      <point x="117" y="34"/>
      <point x="151" y="-10"/>
    </contour>
  </outline>
</glyph>
<glyph name="uni01B3" format="2">
  <advance width="704"/>
  <unicode hex="01B3"/>
  <anchor x="351" y="0" name="bottom"/>
  <anchor x="351" y="714" name="top"/>
  <anchor x="636" y="714" name="topright"/>
  <outline>
    <contour>
      <point x="190" y="0" type="line"/>
      <point x="472" y="0" type="line"/>
      <point x="472" y="20" type="line"/>
      <point x="402" y="20" type="line" smooth="yes"/>
      <point x="352" y="20"/>
      <point x="346" y="31"/>
      <point x="346" y="108" type="curve" smooth="yes"/>
      <point x="346" y="356" type="line"/>
      <point x="501" y="574" type="line" smooth="yes"/>
      <point x="529" y="607"/>
      <point x="560" y="678"/>
      <point x="612" y="678" type="curve" smooth="yes"/>
      <point x="615" y="678"/>
      <point x="639" y="688"/>
      <point x="659" y="704" type="curve"/>
      <point x="654" y="714"/>
      <point x="649" y="721"/>
      <point x="649" y="713" type="curve" smooth="yes"/>
      <point x="649" y="723"/>
      <point x="628" y="719"/>
      <point x="609" y="719" type="curve" smooth="yes"/>
      <point x="537" y="719"/>
      <point x="514" y="650"/>
      <point x="480" y="604" type="curve" smooth="yes"/>
      <point x="394" y="474" type="line" smooth="yes"/>
      <point x="367" y="435"/>
      <point x="341" y="402"/>
      <point x="331" y="382" type="curve"/>
      <point x="307" y="417"/>
      <point x="274" y="458"/>
      <point x="243" y="496" type="curve" smooth="yes"/>
      <point x="139" y="633" type="line" smooth="yes"/>
      <point x="126" y="648"/>
      <point x="116" y="662"/>
      <point x="116" y="676" type="curve" smooth="yes"/>
      <point x="116" y="685"/>
      <point x="120" y="694"/>
      <point x="151" y="694" type="curve" smooth="yes"/>
      <point x="186" y="694" type="line"/>
      <point x="186" y="714" type="line"/>
      <point x="-14" y="714" type="line"/>
      <point x="-14" y="694" type="line"/>
      <point x="2" y="694" type="line" smooth="yes"/>
      <point x="59" y="694"/>
      <point x="59" y="688"/>
      <point x="89" y="651" type="curve" smooth="yes"/>
      <point x="318" y="354" type="line"/>
      <point x="318" y="108" type="line" smooth="yes"/>
      <point x="318" y="31"/>
      <point x="312" y="20"/>
      <point x="262" y="20" type="curve" smooth="yes"/>
      <point x="190" y="20" type="line"/>
    </contour>
  </outline>
</glyph>
<glyph name="uni01BA" format="2">
  <advance width="571"/>
  <unicode hex="01BA"/>
  <anchor x="286" y="-240" name="bottom"/>
  <anchor x="286" y="536" name="top"/>
  <outline>
    <contour>
      <point x="256" y="-240" type="curve" smooth="yes"/>
      <point x="357" y="-240"/>
      <point x="486" y="-208"/>
      <point x="486" y="-143" type="curve" smooth="yes"/>
      <point x="486" y="-136"/>
      <point x="482" y="-129"/>
      <point x="478" y="-124" type="curve"/>
      <point x="473" y="-149"/>
      <point x="398" y="-215"/>
      <point x="255" y="-215" type="curve" smooth="yes"/>
      <point x="111" y="-215"/>
      <point x="94" y="-182"/>
      <point x="94" y="-107" type="curve" smooth="yes"/>
      <point x="94" y="-34"/>
      <point x="212" y="-38"/>
      <point x="284" y="-24" type="curve" smooth="yes"/>
      <point x="347" y="-13"/>
      <point x="514" y="-20"/>
      <point x="514" y="158" type="curve" smooth="yes"/>
      <point x="514" y="233"/>
      <point x="478" y="303"/>
      <point x="239" y="308" type="curve"/>
      <point x="492" y="520" type="line"/>
      <point x="492" y="536" type="line"/>
      <point x="105" y="536" type="line"/>
      <point x="98" y="427" type="line"/>
      <point x="118" y="427" type="line"/>
      <point x="123" y="467" type="line" smooth="yes"/>
      <point x="130" y="511"/>
      <point x="134" y="511"/>
      <point x="164" y="511" type="curve" smooth="yes"/>
      <point x="438" y="511" type="line"/>
      <point x="199" y="304" type="line"/>
      <point x="199" y="280" type="line"/>
      <point x="254" y="280" type="line" smooth="yes"/>
      <point x="395" y="280"/>
      <point x="486" y="242"/>
      <point x="486" y="156" type="curve" smooth="yes"/>
      <point x="486" y="-1"/>
      <point x="335" y="18"/>
      <point x="267" y="3" type="curve" smooth="yes"/>
      <point x="173" y="-17"/>
      <point x="66" y="-14"/>
      <point x="66" y="-115" type="curve" smooth="yes"/>
      <point x="66" y="-195"/>
      <point x="92" y="-240"/>
    </contour>
  </outline>
</glyph>
<glyph name="uni01BB" format="2">
  <advance width="663"/>
  <unicode hex="01BB"/>
  <anchor x="332" y="0" name="bottom"/>
  <anchor x="332" y="756" name="top"/>
  <outline>
    <contour>
      <point x="71" y="0" type="line"/>
      <point x="582" y="0" type="line"/>
      <point x="590" y="123" type="line"/>
      <point x="570" y="123" type="line"/>
      <point x="567" y="90" type="line" smooth="yes"/>
      <point x="562" y="19"/>
      <point x="562" y="22"/>
      <point x="455" y="22" type="curve" smooth="yes"/>
      <point x="113" y="22" type="line"/>
      <point x="429" y="315" type="line" smooth="yes"/>
      <point x="450" y="330"/>
      <point x="470" y="349"/>
      <point x="492" y="369" type="curve"/>
      <point x="595" y="369" type="line"/>
      <point x="595" y="394" type="line"/>
      <point x="514" y="394" type="line"/>
      <point x="553" y="442"/>
      <point x="582" y="499"/>
      <point x="582" y="565" type="curve" smooth="yes"/>
      <point x="582" y="675"/>
      <point x="518" y="756"/>
      <point x="346" y="756" type="curve" smooth="yes"/>
      <point x="171" y="756"/>
      <point x="108" y="692"/>
      <point x="108" y="656" type="curve" smooth="yes"/>
      <point x="108" y="628"/>
      <point x="138" y="615"/>
      <point x="145" y="615" type="curve"/>
      <point x="145" y="655"/>
      <point x="177" y="731"/>
      <point x="346" y="731" type="curve" smooth="yes"/>
      <point x="511" y="731"/>
      <point x="554" y="633"/>
      <point x="554" y="568" type="curve" smooth="yes"/>
      <point x="554" y="509"/>
      <point x="524" y="449"/>
      <point x="476" y="394" type="curve"/>
      <point x="146" y="394" type="line"/>
      <point x="146" y="369" type="line"/>
      <point x="456" y="369" type="line"/>
      <point x="433" y="344"/>
      <point x="407" y="320"/>
      <point x="378" y="298" type="curve" smooth="yes"/>
      <point x="71" y="22" type="line"/>
    </contour>
  </outline>
</glyph>
<glyph name="uni01BC" format="2">
  <advance width="700"/>
  <unicode hex="01BC"/>
  <anchor x="350" y="0" name="bottom"/>
  <anchor x="350" y="714" name="top"/>
  <outline>
    <contour>
      <point x="295" y="-10" type="curve" smooth="yes"/>
      <point x="530" y="-10"/>
      <point x="600" y="111"/>
      <point x="600" y="218" type="curve" smooth="yes"/>
      <point x="600" y="358"/>
      <point x="505" y="429"/>
      <point x="358" y="428" type="curve" smooth="yes"/>
      <point x="208" y="428" type="line"/>
      <point x="208" y="689" type="line"/>
      <point x="475" y="689" type="line" smooth="yes"/>
      <point x="533" y="689"/>
      <point x="539" y="687"/>
      <point x="541" y="642" type="curve" smooth="yes"/>
      <point x="545" y="592" type="line"/>
      <point x="565" y="592" type="line"/>
      <point x="563" y="714" type="line"/>
      <point x="50" y="714" type="line"/>
      <point x="50" y="694" type="line"/>
      <point x="72" y="694" type="line" smooth="yes"/>
      <point x="170" y="694"/>
      <point x="180" y="687"/>
      <point x="180" y="634" type="curve" smooth="yes"/>
      <point x="180" y="403" type="line"/>
      <point x="362" y="403" type="line" smooth="yes"/>
      <point x="490" y="403"/>
      <point x="572" y="342"/>
      <point x="572" y="218" type="curve" smooth="yes"/>
      <point x="572" y="116"/>
      <point x="507" y="15"/>
      <point x="301" y="15" type="curve" smooth="yes"/>
      <point x="152" y="15"/>
      <point x="104" y="73"/>
      <point x="102" y="159" type="curve"/>
      <point x="97" y="159"/>
      <point x="78" y="150"/>
      <point x="78" y="113" type="curve" smooth="yes"/>
      <point x="78" y="39"/>
      <point x="172" y="-10"/>
    </contour>
  </outline>
</glyph>
<glyph name="uni01BD" format="2">
  <advance width="562"/>
  <unicode hex="01BD"/>
  <anchor x="281" y="0" name="bottom"/>
  <anchor x="281" y="536" name="top"/>
  <outline>
    <contour>
      <point x="246" y="-10" type="curve" smooth="yes"/>
      <point x="417" y="-10"/>
      <point x="481" y="59"/>
      <point x="481" y="157" type="curve" smooth="yes"/>
      <point x="481" y="272"/>
      <point x="419" y="313"/>
      <point x="260" y="313" type="curve" smooth="yes"/>
      <point x="176" y="313" type="line"/>
      <point x="176" y="511" type="line"/>
      <point x="352" y="511" type="line" smooth="yes"/>
      <point x="390" y="511"/>
      <point x="388" y="510"/>
      <point x="389" y="516" type="curve" smooth="yes"/>
      <point x="396" y="422" type="line"/>
      <point x="416" y="422" type="line"/>
      <point x="416" y="536" type="line"/>
      <point x="57" y="536" type="line"/>
      <point x="57" y="516" type="line"/>
      <point x="137" y="516"/>
      <point x="148" y="511"/>
      <point x="148" y="514" type="curve" smooth="yes"/>
      <point x="148" y="288" type="line"/>
      <point x="276" y="288" type="line" smooth="yes"/>
      <point x="395" y="288"/>
      <point x="453" y="251"/>
      <point x="453" y="156" type="curve" smooth="yes"/>
      <point x="453" y="65"/>
      <point x="396" y="15"/>
      <point x="249" y="15" type="curve" smooth="yes"/>
      <point x="134" y="15"/>
      <point x="92" y="65"/>
      <point x="92" y="118" type="curve"/>
      <point x="96" y="118"/>
      <point x="71" y="116"/>
      <point x="71" y="90" type="curve" smooth="yes"/>
      <point x="71" y="32"/>
      <point x="127" y="-10"/>
    </contour>
  </outline>
</glyph>
<glyph name="uni0239" format="2">
  <advance width="1075"/>
  <unicode hex="0239"/>
  <anchor x="537" y="-241" name="bottom"/>
  <anchor x="537" y="536" name="top"/>
  <outline>
    <contour>
      <point x="385" y="-241" type="line"/>
      <point x="694" y="-241" type="line"/>
      <point x="694" y="-221" type="line"/>
      <point x="627" y="-221" type="line" smooth="yes"/>
      <point x="557" y="-221"/>
      <point x="551" y="-219"/>
      <point x="551" y="-141" type="curve" smooth="yes"/>
      <point x="551" y="-27" type="line" smooth="yes"/>
      <point x="551" y="6"/>
      <point x="550" y="89"/>
      <point x="544" y="150" type="curve"/>
      <point x="548" y="150" type="line"/>
      <point x="578" y="40"/>
      <point x="653" y="-14"/>
      <point x="766" y="-14" type="curve" smooth="yes"/>
      <point x="935" y="-14"/>
      <point x="995" y="96"/>
      <point x="995" y="270" type="curve" smooth="yes"/>
      <point x="995" y="433"/>
      <point x="903" y="542"/>
      <point x="755" y="542" type="curve" smooth="yes"/>
      <point x="715" y="542"/>
      <point x="570" y="558"/>
      <point x="538" y="351" type="curve"/>
      <point x="504" y="561"/>
      <point x="352" y="542"/>
      <point x="318" y="542" type="curve" smooth="yes"/>
      <point x="173" y="542"/>
      <point x="80" y="441"/>
      <point x="80" y="271" type="curve" smooth="yes"/>
      <point x="80" y="77"/>
      <point x="151" y="-14"/>
      <point x="305" y="-14" type="curve" smooth="yes"/>
      <point x="421" y="-14"/>
      <point x="494" y="41"/>
      <point x="525" y="149" type="curve"/>
      <point x="529" y="149" type="line"/>
      <point x="525" y="103"/>
      <point x="523" y="35"/>
      <point x="523" y="-24" type="curve" smooth="yes"/>
      <point x="523" y="-141" type="line" smooth="yes"/>
      <point x="523" y="-219"/>
      <point x="517" y="-221"/>
      <point x="448" y="-221" type="curve" smooth="yes"/>
      <point x="385" y="-221" type="line"/>
    </contour>
    <contour>
      <point x="315" y="11" type="curve" smooth="yes"/>
      <point x="173" y="11"/>
      <point x="108" y="86"/>
      <point x="108" y="265" type="curve" smooth="yes"/>
      <point x="108" y="412"/>
      <point x="177" y="517"/>
      <point x="314" y="517" type="curve" smooth="yes"/>
      <point x="473" y="517"/>
      <point x="525" y="410"/>
      <point x="525" y="259" type="curve" smooth="yes"/>
      <point x="525" y="113"/>
      <point x="457" y="11"/>
    </contour>
    <contour>
      <point x="760" y="11" type="curve" smooth="yes"/>
      <point x="618" y="11"/>
      <point x="549" y="109"/>
      <point x="549" y="259" type="curve" smooth="yes"/>
      <point x="549" y="408"/>
      <point x="593" y="517"/>
      <point x="759" y="517" type="curve" smooth="yes"/>
      <point x="894" y="517"/>
      <point x="967" y="405"/>
      <point x="967" y="264" type="curve" smooth="yes"/>
      <point x="967" y="102"/>
      <point x="909" y="11"/>
    </contour>
  </outline>
</glyph>
<glyph name="uni023F" format="2">
  <advance width="495"/>
  <unicode hex="023F"/>
  <anchor x="248" y="-238" name="bottom"/>
  <anchor x="248" y="536" name="top"/>
  <anchor x="405" y="536" name="topright"/>
  <outline>
    <contour>
      <point x="364" y="-238" type="curve" smooth="yes"/>
      <point x="429" y="-238"/>
      <point x="450" y="-197"/>
      <point x="450" y="-169" type="curve" smooth="yes"/>
      <point x="450" y="-156"/>
      <point x="440" y="-146"/>
      <point x="433" y="-146" type="curve"/>
      <point x="433" y="-208"/>
      <point x="402" y="-213"/>
      <point x="368" y="-213" type="curve" smooth="yes"/>
      <point x="333" y="-213"/>
      <point x="307" y="-220"/>
      <point x="293" y="-165" type="curve" smooth="yes"/>
      <point x="281" y="-113"/>
      <point x="258" y="-45"/>
      <point x="218" y="-10" type="curve"/>
      <point x="131" y="27" type="line"/>
      <point x="184" y="-10"/>
      <point x="232" y="-44"/>
      <point x="254" y="-109" type="curve" smooth="yes"/>
      <point x="275" y="-187"/>
      <point x="282" y="-238"/>
    </contour>
    <component base="s"/>
  </outline>
</glyph>
<glyph name="uni0241" format="2">
  <advance width="571"/>
  <unicode hex="0241"/>
  <anchor x="285" y="0" name="bottom"/>
  <anchor x="285" y="714" name="top"/>
  <outline>
    <contour>
      <point x="78" y="0" type="line"/>
      <point x="344" y="0" type="line"/>
      <point x="344" y="20" type="line"/>
      <point x="279" y="20" type="line" smooth="yes"/>
      <point x="234" y="20"/>
      <point x="227" y="31"/>
      <point x="227" y="108" type="curve" smooth="yes"/>
      <point x="227" y="254" type="line"/>
      <point x="431" y="304"/>
      <point x="507" y="427"/>
      <point x="507" y="513" type="curve" smooth="yes"/>
      <point x="507" y="605"/>
      <point x="456" y="725"/>
      <point x="269" y="725" type="curve" smooth="yes"/>
      <point x="153" y="725"/>
      <point x="57" y="688"/>
      <point x="57" y="613" type="curve" smooth="yes"/>
      <point x="57" y="594"/>
      <point x="72" y="589"/>
      <point x="86" y="589" type="curve"/>
      <point x="86" y="634"/>
      <point x="122" y="700"/>
      <point x="261" y="700" type="curve" smooth="yes"/>
      <point x="397" y="700"/>
      <point x="479" y="646"/>
      <point x="479" y="491" type="curve" smooth="yes"/>
      <point x="479" y="400"/>
      <point x="337" y="297"/>
      <point x="199" y="277" type="curve"/>
      <point x="199" y="108" type="line" smooth="yes"/>
      <point x="199" y="31"/>
      <point x="195" y="20"/>
      <point x="141" y="20" type="curve" smooth="yes"/>
      <point x="78" y="20" type="line"/>
    </contour>
  </outline>
</glyph>
<glyph name="uni0244" format="2">
  <advance width="837"/>
  <unicode hex="0244"/>
  <anchor x="419" y="0" name="bottom"/>
  <anchor x="419" y="714" name="top"/>
  <anchor x="813" y="714" name="topright"/>
  <outline>
    <contour>
      <point x="12" y="368" type="line"/>
      <point x="821" y="368" type="line"/>
      <point x="821" y="393" type="line"/>
      <point x="12" y="393" type="line"/>
    </contour>
    <component base="U"/>
  </outline>
</glyph>
<glyph name="uni024E" format="2">
  <advance width="656"/>
  <unicode hex="024E"/>
  <anchor x="329" y="0" name="bottom"/>
  <anchor x="329" y="714" name="top"/>
  <anchor x="636" y="714" name="topright"/>
  <outline>
    <contour>
      <point x="-9" y="529" type="line"/>
      <point x="664" y="529" type="line"/>
      <point x="664" y="554" type="line"/>
      <point x="-9" y="554" type="line"/>
    </contour>
    <component base="Y"/>
  </outline>
</glyph>
<glyph name="uni0256" format="2">
  <advance width="701"/>
  <unicode hex="0256"/>
  <anchor x="350" y="-240" name="bottom"/>
  <anchor x="350" y="760" name="top"/>
  <outline>
    <contour>
      <point x="649" y="-240" type="curve" smooth="yes"/>
      <point x="682" y="-240"/>
      <point x="701" y="-239"/>
      <point x="730" y="-237" type="curve"/>
      <point x="730" y="-211" type="line"/>
      <point x="702" y="-216"/>
      <point x="684" y="-215"/>
      <point x="655" y="-215" type="curve" smooth="yes"/>
      <point x="579" y="-215"/>
      <point x="568" y="-189"/>
      <point x="568" y="-103" type="curve" smooth="yes"/>
      <point x="568" y="760" type="line"/>
      <point x="423" y="760" type="line"/>
      <point x="423" y="740" type="line"/>
      <point x="474" y="740" type="line" smooth="yes"/>
      <point x="530" y="740"/>
      <point x="540" y="737"/>
      <point x="540" y="668" type="curve" smooth="yes"/>
      <point x="540" y="542" type="line" smooth="yes"/>
      <point x="540" y="521"/>
      <point x="541" y="480"/>
      <point x="539" y="437" type="curve"/>
      <point x="535" y="437" type="line"/>
      <point x="504" y="506"/>
      <point x="424" y="542"/>
      <point x="310" y="542" type="curve" smooth="yes"/>
      <point x="140" y="542"/>
      <point x="83" y="410"/>
      <point x="83" y="267" type="curve" smooth="yes"/>
      <point x="83" y="116"/>
      <point x="170" y="-10"/>
      <point x="324" y="-10" type="curve" smooth="yes"/>
      <point x="436" y="-10"/>
      <point x="511" y="59"/>
      <point x="543" y="129" type="curve"/>
      <point x="546" y="129" type="line"/>
      <point x="544" y="107"/>
      <point x="540" y="73"/>
      <point x="540" y="29" type="curve" smooth="yes"/>
      <point x="540" y="-95" type="line" smooth="yes"/>
      <point x="540" y="-190"/>
      <point x="557" y="-240"/>
    </contour>
    <contour>
      <point x="317" y="13" type="curve" smooth="yes"/>
      <point x="205" y="9"/>
      <point x="111" y="119"/>
      <point x="111" y="263" type="curve" smooth="yes"/>
      <point x="111" y="400"/>
      <point x="156" y="517"/>
      <point x="314" y="517" type="curve" smooth="yes"/>
      <point x="490" y="517"/>
      <point x="541" y="435"/>
      <point x="541" y="265" type="curve" smooth="yes"/>
      <point x="541" y="135"/>
      <point x="471" y="17"/>
    </contour>
  </outline>
</glyph>
<glyph name="uni025E" format="2">
  <advance width="613"/>
  <unicode hex="025E"/>
  <anchor x="307" y="0" name="bottom"/>
  <anchor x="307" y="536" name="top"/>
  <outline>
    <contour>
      <point x="309" y="-10" type="curve" smooth="yes"/>
      <point x="489" y="-10"/>
      <point x="535" y="87"/>
      <point x="535" y="149" type="curve" smooth="yes"/>
      <point x="535" y="232"/>
      <point x="484" y="263"/>
      <point x="425" y="285" type="curve"/>
      <point x="425" y="291" type="line"/>
      <point x="473" y="307"/>
      <point x="518" y="327"/>
      <point x="518" y="414" type="curve" smooth="yes"/>
      <point x="518" y="489"/>
      <point x="447" y="542"/>
      <point x="331" y="542" type="curve" smooth="yes"/>
      <point x="162" y="542"/>
      <point x="82" y="454"/>
      <point x="82" y="267" type="curve" smooth="yes"/>
      <point x="82" y="79"/>
      <point x="167" y="-10"/>
    </contour>
    <contour>
      <point x="308" y="15" type="curve" smooth="yes"/>
      <point x="171" y="15"/>
      <point x="112" y="101"/>
      <point x="110" y="267" type="curve" smooth="yes"/>
      <point x="108" y="430"/>
      <point x="162" y="517"/>
      <point x="331" y="517" type="curve" smooth="yes"/>
      <point x="442" y="517"/>
      <point x="490" y="453"/>
      <point x="490" y="416" type="curve" smooth="yes"/>
      <point x="490" y="321"/>
      <point x="428" y="300"/>
      <point x="358" y="300" type="curve" smooth="yes"/>
      <point x="259" y="300" type="line"/>
      <point x="259" y="275" type="line"/>
      <point x="351" y="275" type="line" smooth="yes"/>
      <point x="440" y="275"/>
      <point x="507" y="236"/>
      <point x="507" y="149" type="curve" smooth="yes"/>
      <point x="507" y="65"/>
      <point x="450" y="15"/>
    </contour>
  </outline>
</glyph>
<glyph name="rfishhookreversed" format="2">
  <advance width="467"/>
  <unicode hex="027F"/>
  <anchor x="234" y="-240" name="bottom"/>
  <anchor x="234" y="536" name="top"/>
  <outline>
    <contour>
      <point x="144" y="-240" type="line"/>
      <point x="460" y="-240" type="line"/>
      <point x="460" y="-220" type="line"/>
      <point x="389" y="-220" type="line" smooth="yes"/>
      <point x="328" y="-220"/>
      <point x="330" y="-217"/>
      <point x="330" y="-140" type="curve" smooth="yes"/>
      <point x="330" y="410" type="line" smooth="yes"/>
      <point x="330" y="515"/>
      <point x="265" y="548"/>
      <point x="156" y="548" type="curve" smooth="yes"/>
      <point x="68" y="548"/>
      <point x="22" y="495"/>
      <point x="22" y="460" type="curve" smooth="yes"/>
      <point x="22" y="436"/>
      <point x="33" y="423"/>
      <point x="49" y="423" type="curve"/>
      <point x="49" y="493"/>
      <point x="97" y="523"/>
      <point x="164" y="523" type="curve" smooth="yes"/>
      <point x="257" y="523"/>
      <point x="302" y="487"/>
      <point x="302" y="416" type="curve" smooth="yes"/>
      <point x="302" y="-140" type="line" smooth="yes"/>
      <point x="302" y="-217"/>
      <point x="300" y="-220"/>
      <point x="245" y="-220" type="curve" smooth="yes"/>
      <point x="144" y="-220" type="line"/>
    </contour>
  </outline>
</glyph>
<glyph name="uni0288" format="2">
  <advance width="343"/>
  <unicode hex="0288"/>
  <anchor x="171" y="-240" name="bottom"/>
  <anchor x="171" y="657" name="top"/>
  <outline>
    <contour>
      <point x="237" y="-240" type="curve" smooth="yes"/>
      <point x="262" y="-240"/>
      <point x="282" y="-240"/>
      <point x="309" y="-235" type="curve"/>
      <point x="309" y="-210" type="line"/>
      <point x="284" y="-215"/>
      <point x="265" y="-215"/>
      <point x="237" y="-215" type="curve" smooth="yes"/>
      <point x="167" y="-215"/>
      <point x="145" y="-178"/>
      <point x="145" y="-106" type="curve" smooth="yes"/>
      <point x="145" y="511" type="line"/>
      <point x="299" y="511" type="line"/>
      <point x="299" y="536" type="line"/>
      <point x="145" y="536" type="line"/>
      <point x="145" y="657" type="line"/>
      <point x="125" y="657" type="line"/>
      <point x="126" y="574"/>
      <point x="104" y="551"/>
      <point x="95" y="549" type="curve" smooth="yes"/>
      <point x="78" y="538"/>
      <point x="52" y="530"/>
      <point x="21" y="532" type="curve"/>
      <point x="21" y="511" type="line"/>
      <point x="117" y="511" type="line"/>
      <point x="117" y="-89" type="line" smooth="yes"/>
      <point x="117" y="-196"/>
      <point x="151" y="-240"/>
    </contour>
  </outline>
</glyph>
<glyph name="dzlig" format="2">
  <advance width="1062"/>
  <unicode hex="02A3"/>
  <anchor x="531" y="0" name="bottom"/>
  <anchor x="531" y="760" name="top"/>
  <outline>
    <contour>
      <point x="324" y="-10" type="curve" smooth="yes"/>
      <point x="440" y="-10"/>
      <point x="511" y="67"/>
      <point x="538" y="149" type="curve"/>
      <point x="540" y="149" type="line"/>
      <point x="536" y="0" type="line"/>
      <point x="977" y="0" type="line"/>
      <point x="982" y="138" type="line"/>
      <point x="962" y="138" type="line"/>
      <point x="960" y="125" type="line" smooth="yes"/>
      <point x="951" y="39"/>
      <point x="933" y="25"/>
      <point x="875" y="25" type="curve" smooth="yes"/>
      <point x="588" y="25" type="line"/>
      <point x="971" y="514" type="line"/>
      <point x="971" y="536" type="line"/>
      <point x="568" y="536" type="line"/>
      <point x="568" y="760" type="line"/>
      <point x="423" y="760" type="line"/>
      <point x="423" y="740" type="line"/>
      <point x="476" y="740" type="line" smooth="yes"/>
      <point x="528" y="740"/>
      <point x="540" y="737"/>
      <point x="540" y="668" type="curve" smooth="yes"/>
      <point x="540" y="542" type="line" smooth="yes"/>
      <point x="540" y="521"/>
      <point x="541" y="480"/>
      <point x="539" y="437" type="curve"/>
      <point x="535" y="437" type="line"/>
      <point x="504" y="506"/>
      <point x="424" y="542"/>
      <point x="310" y="542" type="curve" smooth="yes"/>
      <point x="140" y="542"/>
      <point x="83" y="410"/>
      <point x="83" y="267" type="curve" smooth="yes"/>
      <point x="83" y="116"/>
      <point x="170" y="-10"/>
    </contour>
    <contour>
      <point x="317" y="13" type="curve" smooth="yes"/>
      <point x="205" y="9"/>
      <point x="111" y="119"/>
      <point x="111" y="263" type="curve" smooth="yes"/>
      <point x="111" y="400"/>
      <point x="156" y="517"/>
      <point x="314" y="517" type="curve" smooth="yes"/>
      <point x="490" y="517"/>
      <point x="541" y="435"/>
      <point x="541" y="265" type="curve" smooth="yes"/>
      <point x="541" y="135"/>
      <point x="471" y="17"/>
    </contour>
    <contour>
      <point x="568" y="46" type="line"/>
      <point x="568" y="511" type="line"/>
      <point x="933" y="511" type="line"/>
    </contour>
  </outline>
</glyph>
<glyph name="uni02BE" format="2">
  <advance width="190"/>
  <unicode hex="02BE"/>
  <outline>
    <contour>
      <point x="30" y="581" type="line"/>
      <point x="110" y="581"/>
      <point x="160" y="621"/>
      <point x="160" y="692" type="curve" smooth="yes"/>
      <point x="160" y="762"/>
      <point x="110" y="791"/>
      <point x="30" y="791" type="curve"/>
      <point x="30" y="772" type="line"/>
      <point x="86" y="772"/>
      <point x="140" y="753"/>
      <point x="140" y="692" type="curve" smooth="yes"/>
      <point x="140" y="631"/>
      <point x="86" y="600"/>
      <point x="30" y="600" type="curve"/>
    </contour>
  </outline>
</glyph>
<glyph name="uni02C2" format="2">
  <advance width="335"/>
  <unicode hex="02C2"/>
  <outline>
    <contour>
      <point x="290" y="546" type="curve"/>
      <point x="302" y="546" type="line"/>
      <point x="302" y="564" type="line"/>
      <point x="263" y="571"/>
      <point x="100" y="640"/>
      <point x="60" y="655" type="curve"/>
      <point x="100" y="670"/>
      <point x="263" y="738"/>
      <point x="302" y="746" type="curve"/>
      <point x="302" y="764" type="line"/>
      <point x="290" y="764" type="line"/>
      <point x="211" y="740"/>
      <point x="128" y="696"/>
      <point x="38" y="664" type="curve"/>
      <point x="38" y="645" type="line"/>
      <point x="118" y="618"/>
      <point x="208" y="570"/>
    </contour>
  </outline>
</glyph>
<glyph name="uni02C4" format="2">
  <advance width="335"/>
  <unicode hex="02C4"/>
  <outline>
    <contour>
      <point x="28" y="571" type="line"/>
      <point x="54" y="571" type="line"/>
      <point x="69" y="595"/>
      <point x="147" y="750"/>
      <point x="169" y="776" type="curve"/>
      <point x="188" y="750"/>
      <point x="266" y="595"/>
      <point x="284" y="571" type="curve"/>
      <point x="309" y="571" type="line"/>
      <point x="309" y="581" type="line"/>
      <point x="263" y="661"/>
      <point x="209" y="740"/>
      <point x="180" y="783" type="curve"/>
      <point x="161" y="783" type="line"/>
      <point x="120" y="708"/>
      <point x="65" y="635"/>
      <point x="28" y="581" type="curve"/>
    </contour>
  </outline>
</glyph>
<glyph name="uni02D6" format="2">
  <advance width="300"/>
  <unicode hex="02D6"/>
  <outline>
    <contour>
      <point x="44" y="254" type="line"/>
      <point x="256" y="254" type="line"/>
      <point x="256" y="279" type="line"/>
      <point x="44" y="279" type="line"/>
    </contour>
    <contour>
      <point x="138" y="160" type="line"/>
      <point x="163" y="160" type="line"/>
      <point x="163" y="372" type="line"/>
      <point x="138" y="372" type="line"/>
    </contour>
  </outline>
</glyph>
<glyph name="rhotichookmod" format="2">
  <advance width="159"/>
  <unicode hex="02DE"/>
  <outline>
    <contour>
      <point x="102" y="203" type="curve" smooth="yes"/>
      <point x="122" y="203"/>
      <point x="159" y="214"/>
      <point x="159" y="235" type="curve" smooth="yes"/>
      <point x="159" y="240"/>
      <point x="153" y="245"/>
      <point x="147" y="243" type="curve"/>
      <point x="132" y="230"/>
      <point x="118" y="225"/>
      <point x="98" y="225" type="curve" smooth="yes"/>
      <point x="62" y="225"/>
      <point x="48" y="255"/>
      <point x="24" y="319" type="curve" smooth="yes"/>
      <point x="9" y="358" type="line"/>
      <point x="-140" y="308" type="line"/>
      <point x="-147" y="276" type="line"/>
      <point x="-3" y="323" type="line"/>
      <point x="1" y="312" type="line" smooth="yes"/>
      <point x="22" y="263"/>
      <point x="26" y="203"/>
    </contour>
  </outline>
</glyph>
<glyph name="uni02F0" format="2">
  <advance width="359"/>
  <unicode hex="02F0"/>
  <outline>
    <contour>
      <point x="40" y="-240" type="line"/>
      <point x="64" y="-240" type="line"/>
      <point x="82" y="-211"/>
      <point x="156" y="-60"/>
      <point x="180" y="-31" type="curve"/>
      <point x="199" y="-60"/>
      <point x="277" y="-211"/>
      <point x="295" y="-240" type="curve"/>
      <point x="319" y="-240" type="line"/>
      <point x="319" y="-230" type="line"/>
      <point x="283" y="-166"/>
      <point x="226" y="-91"/>
      <point x="191" y="-28" type="curve"/>
      <point x="171" y="-28" type="line"/>
      <point x="136" y="-92"/>
      <point x="78" y="-171"/>
      <point x="40" y="-230" type="curve"/>
    </contour>
  </outline>
</glyph>
<glyph name="uni02F8" format="2">
  <advance width="262"/>
  <unicode hex="02F8"/>
  <outline>
    <contour>
      <point x="126" y="711" type="curve" smooth="yes"/>
      <point x="144" y="711"/>
      <point x="156" y="720"/>
      <point x="156" y="752" type="curve" smooth="yes"/>
      <point x="156" y="782"/>
      <point x="144" y="789"/>
      <point x="126" y="789" type="curve" smooth="yes"/>
      <point x="113" y="789"/>
      <point x="98" y="782"/>
      <point x="98" y="752" type="curve" smooth="yes"/>
      <point x="98" y="720"/>
      <point x="113" y="711"/>
    </contour>
    <contour>
      <point x="126" y="202" type="curve" smooth="yes"/>
      <point x="144" y="202"/>
      <point x="156" y="211"/>
      <point x="156" y="243" type="curve" smooth="yes"/>
      <point x="156" y="273"/>
      <point x="144" y="280"/>
      <point x="126" y="280" type="curve" smooth="yes"/>
      <point x="113" y="280"/>
      <point x="98" y="273"/>
      <point x="98" y="243" type="curve" smooth="yes"/>
      <point x="98" y="211"/>
      <point x="113" y="202"/>
    </contour>
  </outline>
</glyph>
<glyph name="leftangleabovecomb" format="2">
  <unicode hex="031A"/>
  <anchor x="138" y="625" name="_topright"/>
  <outline>
    <contour>
      <point x="138" y="625" type="line"/>
      <point x="152" y="625" type="line"/>
      <point x="152" y="734" type="line"/>
      <point x="-152" y="734" type="line"/>
      <point x="-152" y="712" type="line"/>
      <point x="138" y="712" type="line"/>
    </contour>
  </outline>
</glyph>
<glyph name="commaaccent" format="2">
  <unicode hex="0326"/>
  <anchor x="-3" y="0" name="_bottom"/>
  <anchor x="-3" y="-221" name="bottom"/>
  <outline>
    <contour>
      <point x="-43" y="-221" type="line"/>
      <point x="-43" y="-221" type="line"/>
      <point x="-20" y="-183"/>
      <point x="10" y="-113"/>
      <point x="36" y="-71" type="curve"/>
      <point x="36" y="-61" type="line"/>
      <point x="-13" y="-61" type="line"/>
      <point x="-20" y="-96"/>
      <point x="-30" y="-157"/>
      <point x="-43" y="-208" type="curve"/>
    </contour>
  </outline>
</glyph>
<glyph name="bridgebelowcomb" format="2">
  <unicode hex="032A"/>
  <anchor x="0" y="0" name="_bottom"/>
  <anchor x="0" y="-226" name="bottom"/>
  <outline>
    <contour>
      <point x="-224" y="-226" type="line"/>
      <point x="-165" y="-226" type="line"/>
      <point x="-165" y="-214" type="line" smooth="yes"/>
      <point x="-165" y="-163"/>
      <point x="-140" y="-132"/>
      <point x="-55" y="-132" type="curve" smooth="yes"/>
      <point x="55" y="-132" type="line" smooth="yes"/>
      <point x="140" y="-132"/>
      <point x="164" y="-160"/>
      <point x="164" y="-214" type="curve" smooth="yes"/>
      <point x="164" y="-226" type="line"/>
      <point x="224" y="-226" type="line"/>
      <point x="224" y="-72" type="line"/>
      <point x="-224" y="-72" type="line"/>
    </contour>
  </outline>
</glyph>
<glyph name="breveinvertedbelowcomb" format="2">
  <unicode hex="032F"/>
  <anchor x="-1" y="0" name="_bottom"/>
  <anchor x="-1" y="-192" name="bottom"/>
  <outline>
    <contour>
      <point x="-140" y="-192" type="curve"/>
      <point x="-124" y="-192" type="line"/>
      <point x="-113" y="-146"/>
      <point x="-59" y="-117"/>
      <point x="-4" y="-117" type="curve" smooth="yes"/>
      <point x="53" y="-117"/>
      <point x="113" y="-148"/>
      <point x="123" y="-192" type="curve"/>
      <point x="138" y="-192" type="line"/>
      <point x="135" y="-135"/>
      <point x="75" y="-83"/>
      <point x="-4" y="-83" type="curve" smooth="yes"/>
      <point x="-78" y="-83"/>
      <point x="-137" y="-136"/>
    </contour>
  </outline>
</glyph>
<glyph name="slashshortoverlaycomb" format="2">
  <unicode hex="0337"/>
  <anchor x="-11" y="283" name="_center"/>
  <outline>
    <contour>
      <point x="-157" y="194" type="line"/>
      <point x="148" y="348" type="line"/>
      <point x="136" y="372" type="line"/>
      <point x="-169" y="218" type="line"/>
    </contour>
  </outline>
</glyph>
<glyph name="xbelowcomb" format="2">
  <unicode hex="0353"/>
  <anchor x="0" y="0" name="_bottom"/>
  <anchor x="0" y="-240" name="bottom"/>
  <outline>
    <contour>
      <point x="-73" y="-240" type="line"/>
      <point x="0" y="-182" type="line"/>
      <point x="72" y="-240" type="line"/>
      <point x="120" y="-202" type="line"/>
      <point x="47" y="-144" type="line"/>
      <point x="120" y="-85" type="line"/>
      <point x="73" y="-48" type="line"/>
      <point x="0" y="-106" type="line"/>
      <point x="-73" y="-48" type="line"/>
      <point x="-120" y="-85" type="line"/>
      <point x="-45" y="-144" type="line"/>
      <point x="-120" y="-202" type="line"/>
    </contour>
  </outline>
</glyph>
<glyph name="doublebrevebelowcomb" format="2">
  <unicode hex="035C"/>
  <anchor x="-300" y="0" name="_bottom"/>
  <anchor x="0" y="-211" name="bottom"/>
  <outline>
    <contour>
      <point x="0" y="-211" type="curve" smooth="yes"/>
      <point x="206" y="-211"/>
      <point x="376" y="-144"/>
      <point x="467" y="-19" type="curve"/>
      <point x="436" y="-19" type="line"/>
      <point x="383" y="-104"/>
      <point x="225" y="-189"/>
      <point x="0" y="-189" type="curve" smooth="yes"/>
      <point x="-229" y="-189"/>
      <point x="-383" y="-104"/>
      <point x="-438" y="-19" type="curve"/>
      <point x="-467" y="-19" type="line"/>
      <point x="-378" y="-146"/>
      <point x="-206" y="-211"/>
    </contour>
  </outline>
</glyph>
<glyph name="delta" format="2">
  <advance width="651"/>
  <unicode hex="03B4"/>
  <anchor x="326" y="0" name="bottom"/>
  <anchor x="326" y="765" name="top"/>
  <outline>
    <contour>
      <point x="315" y="-10" type="curve" smooth="yes"/>
      <point x="460" y="-10"/>
      <point x="569" y="79"/>
      <point x="569" y="228" type="curve" smooth="yes"/>
      <point x="569" y="398"/>
      <point x="449" y="443"/>
      <point x="335" y="497" type="curve" smooth="yes"/>
      <point x="221" y="559"/>
      <point x="212" y="593"/>
      <point x="212" y="656" type="curve" smooth="yes"/>
      <point x="212" y="707"/>
      <point x="281" y="740"/>
      <point x="365" y="740" type="curve" smooth="yes"/>
      <point x="467" y="740"/>
      <point x="524" y="686"/>
      <point x="524" y="602" type="curve"/>
      <point x="530" y="602"/>
      <point x="543" y="607"/>
      <point x="543" y="619" type="curve" smooth="yes"/>
      <point x="543" y="698"/>
      <point x="478" y="765"/>
      <point x="371" y="765" type="curve" smooth="yes"/>
      <point x="279" y="765"/>
      <point x="184" y="733"/>
      <point x="184" y="643" type="curve" smooth="yes"/>
      <point x="184" y="550"/>
      <point x="260" y="505"/>
      <point x="310" y="481" type="curve"/>
      <point x="188" y="451"/>
      <point x="77" y="345"/>
      <point x="77" y="206" type="curve" smooth="yes"/>
      <point x="77" y="71"/>
      <point x="183" y="-10"/>
    </contour>
    <contour>
      <point x="316" y="15" type="curve" smooth="yes"/>
      <point x="198" y="15"/>
      <point x="105" y="86"/>
      <point x="105" y="219" type="curve" smooth="yes"/>
      <point x="105" y="357"/>
      <point x="242" y="456"/>
      <point x="336" y="462" type="curve"/>
      <point x="422" y="440"/>
      <point x="541" y="370"/>
      <point x="541" y="230" type="curve" smooth="yes"/>
      <point x="541" y="104"/>
      <point x="453" y="15"/>
    </contour>
  </outline>
</glyph>
<glyph name="epsilon" format="2">
  <advance width="544"/>
  <unicode hex="03B5"/>
  <anchor x="272" y="0" name="bottom"/>
  <anchor x="272" y="536" name="top"/>
  <outline>
    <contour>
      <point x="292" y="-10" type="curve" smooth="yes"/>
      <point x="415" y="-10"/>
      <point x="513" y="55"/>
      <point x="513" y="85" type="curve" smooth="yes"/>
      <point x="513" y="99"/>
      <point x="506" y="101"/>
      <point x="498" y="104" type="curve"/>
      <point x="459" y="59"/>
      <point x="393" y="15"/>
      <point x="293" y="15" type="curve" smooth="yes"/>
      <point x="209" y="15"/>
      <point x="126" y="49"/>
      <point x="126" y="144" type="curve" smooth="yes"/>
      <point x="126" y="233"/>
      <point x="203" y="272"/>
      <point x="264" y="288" type="curve"/>
      <point x="316" y="275"/>
      <point x="329" y="271"/>
      <point x="368" y="271" type="curve" smooth="yes"/>
      <point x="377" y="271"/>
      <point x="402" y="270"/>
      <point x="402" y="290" type="curve" smooth="yes"/>
      <point x="402" y="307"/>
      <point x="386" y="313"/>
      <point x="368" y="313" type="curve" smooth="yes"/>
      <point x="335" y="313"/>
      <point x="297" y="306"/>
      <point x="282" y="308" type="curve"/>
      <point x="204" y="312"/>
      <point x="151" y="354"/>
      <point x="151" y="415" type="curve" smooth="yes"/>
      <point x="151" y="482"/>
      <point x="216" y="516"/>
      <point x="311" y="516" type="curve" smooth="yes"/>
      <point x="436" y="516"/>
      <point x="469" y="469"/>
      <point x="469" y="403" type="curve"/>
      <point x="476" y="403"/>
      <point x="493" y="402"/>
      <point x="493" y="429" type="curve" smooth="yes"/>
      <point x="493" y="484"/>
      <point x="445" y="541"/>
      <point x="309" y="541" type="curve" smooth="yes"/>
      <point x="188" y="541"/>
      <point x="123" y="481"/>
      <point x="123" y="420" type="curve" smooth="yes"/>
      <point x="123" y="344"/>
      <point x="163" y="313"/>
      <point x="238" y="294" type="curve"/>
      <point x="238" y="295" type="line"/>
      <point x="167" y="278"/>
      <point x="98" y="234"/>
      <point x="98" y="147" type="curve" smooth="yes"/>
      <point x="98" y="58"/>
      <point x="159" y="-10"/>
    </contour>
  </outline>
</glyph>
<glyph name="theta" format="2">
  <advance width="660"/>
  <unicode hex="03B8"/>
  <anchor x="331" y="0" name="bottom"/>
  <anchor x="331" y="764" name="top"/>
  <anchor x="640" y="764" name="topright"/>
  <outline>
    <contour>
      <point x="328" y="-10" type="curve" smooth="yes"/>
      <point x="509" y="-10"/>
      <point x="574" y="139"/>
      <point x="574" y="378" type="curve" smooth="yes"/>
      <point x="574" y="616"/>
      <point x="511" y="764"/>
      <point x="329" y="764" type="curve" smooth="yes"/>
      <point x="148" y="764"/>
      <point x="82" y="618"/>
      <point x="82" y="379" type="curve" smooth="yes"/>
      <point x="82" y="141"/>
      <point x="149" y="-10"/>
    </contour>
    <contour>
      <point x="328" y="15" type="curve" smooth="yes"/>
      <point x="159" y="15"/>
      <point x="108" y="170"/>
      <point x="110" y="369" type="curve"/>
      <point x="546" y="369" type="line"/>
      <point x="552" y="169"/>
      <point x="498" y="15"/>
    </contour>
    <contour>
      <point x="110" y="394" type="line"/>
      <point x="108" y="600"/>
      <point x="156" y="739"/>
      <point x="327" y="739" type="curve" smooth="yes"/>
      <point x="502" y="739"/>
      <point x="545" y="600"/>
      <point x="544" y="394" type="curve"/>
    </contour>
  </outline>
</glyph>
<glyph name="uni03D1" format="2">
  <advance width="593"/>
  <unicode hex="03D1"/>
  <outline>
    <contour>
      <point x="264" y="-10" type="curve" smooth="yes"/>
      <point x="406" y="-10"/>
      <point x="501" y="130"/>
      <point x="501" y="371" type="curve" smooth="yes"/>
      <point x="501" y="392"/>
      <point x="500" y="412"/>
      <point x="498" y="427" type="curve"/>
      <point x="581" y="427" type="line"/>
      <point x="581" y="452" type="line"/>
      <point x="495" y="452" type="line"/>
      <point x="477" y="680"/>
      <point x="379" y="764"/>
      <point x="288" y="764" type="curve" smooth="yes"/>
      <point x="178" y="764"/>
      <point x="110" y="698"/>
      <point x="110" y="630" type="curve" smooth="yes"/>
      <point x="110" y="517"/>
      <point x="187" y="430"/>
      <point x="470" y="427" type="curve"/>
      <point x="471" y="411"/>
      <point x="473" y="385"/>
      <point x="473" y="373" type="curve" smooth="yes"/>
      <point x="473" y="115"/>
      <point x="388" y="15"/>
      <point x="250" y="15" type="curve" smooth="yes"/>
      <point x="147" y="15"/>
      <point x="109" y="99"/>
      <point x="109" y="201" type="curve" smooth="yes"/>
      <point x="109" y="232"/>
      <point x="123" y="279"/>
      <point x="123" y="313" type="curve" smooth="yes"/>
      <point x="123" y="369"/>
      <point x="106" y="406"/>
      <point x="17" y="406" type="curve" smooth="yes"/>
      <point x="-1" y="406" type="line"/>
      <point x="-1" y="375" type="line"/>
      <point x="38" y="375" type="line" smooth="yes"/>
      <point x="83" y="375"/>
      <point x="95" y="357"/>
      <point x="95" y="325" type="curve" smooth="yes"/>
      <point x="95" y="321"/>
      <point x="81" y="208"/>
      <point x="81" y="172" type="curve" smooth="yes"/>
      <point x="81" y="81"/>
      <point x="127" y="-10"/>
    </contour>
    <contour>
      <point x="471" y="456" type="curve"/>
      <point x="125" y="461"/>
      <point x="136" y="595"/>
      <point x="136" y="638" type="curve" smooth="yes"/>
      <point x="136" y="673"/>
      <point x="189" y="737"/>
      <point x="273" y="737" type="curve" smooth="yes"/>
      <point x="391" y="737"/>
      <point x="445" y="624"/>
    </contour>
  </outline>
</glyph>
<glyph name="afii10059" format="2">
  <advance width="1126"/>
  <unicode hex="040A"/>
  <anchor x="563" y="0" name="bottom"/>
  <anchor x="563" y="714" name="top"/>
  <outline>
    <contour>
      <point x="63" y="0" type="line"/>
      <point x="337" y="0" type="line"/>
      <point x="337" y="20" type="line"/>
      <point x="270" y="20" type="line" smooth="yes"/>
      <point x="222" y="20"/>
      <point x="216" y="31"/>
      <point x="216" y="108" type="curve" smooth="yes"/>
      <point x="216" y="361" type="line"/>
      <point x="659" y="361" type="line"/>
      <point x="659" y="108" type="line" smooth="yes"/>
      <point x="659" y="31"/>
      <point x="651" y="20"/>
      <point x="607" y="20" type="curve" smooth="yes"/>
      <point x="534" y="20" type="line"/>
      <point x="534" y="0" type="line"/>
      <point x="775" y="0" type="line" smooth="yes"/>
      <point x="972" y="0"/>
      <point x="1061" y="87"/>
      <point x="1061" y="191" type="curve" smooth="yes"/>
      <point x="1061" y="317"/>
      <point x="973" y="386"/>
      <point x="808" y="386" type="curve" smooth="yes"/>
      <point x="687" y="386" type="line"/>
      <point x="687" y="604" type="line" smooth="yes"/>
      <point x="687" y="683"/>
      <point x="691" y="694"/>
      <point x="747" y="694" type="curve" smooth="yes"/>
      <point x="806" y="694" type="line"/>
      <point x="806" y="714" type="line"/>
      <point x="534" y="714" type="line"/>
      <point x="534" y="694" type="line"/>
      <point x="595" y="694" type="line" smooth="yes"/>
      <point x="657" y="694"/>
      <point x="659" y="683"/>
      <point x="659" y="604" type="curve" smooth="yes"/>
      <point x="659" y="386" type="line"/>
      <point x="216" y="386" type="line"/>
      <point x="216" y="604" type="line" smooth="yes"/>
      <point x="216" y="683"/>
      <point x="224" y="694"/>
      <point x="270" y="694" type="curve" smooth="yes"/>
      <point x="337" y="694" type="line"/>
      <point x="337" y="714" type="line"/>
      <point x="63" y="714" type="line"/>
      <point x="63" y="694" type="line"/>
      <point x="132" y="694" type="line" smooth="yes"/>
      <point x="184" y="694"/>
      <point x="188" y="683"/>
      <point x="188" y="604" type="curve" smooth="yes"/>
      <point x="188" y="108" type="line" smooth="yes"/>
      <point x="188" y="31"/>
      <point x="180" y="20"/>
      <point x="136" y="20" type="curve" smooth="yes"/>
      <point x="63" y="20" type="line"/>
    </contour>
    <contour>
      <point x="687" y="25" type="line"/>
      <point x="687" y="361" type="line"/>
      <point x="793" y="361" type="line" smooth="yes"/>
      <point x="943" y="361"/>
      <point x="1033" y="300"/>
      <point x="1033" y="191" type="curve" smooth="yes"/>
      <point x="1033" y="73"/>
      <point x="948" y="25"/>
      <point x="763" y="25" type="curve" smooth="yes"/>
    </contour>
  </outline>
</glyph>
<glyph name="afii10037" format="2">
  <advance width="799"/>
  <unicode hex="0423"/>
  <anchor x="399" y="0" name="bottom"/>
  <anchor x="399" y="714" name="top"/>
  <outline>
    <contour>
      <point x="128" y="0" type="line"/>
      <point x="208" y="0" type="line" smooth="yes"/>
      <point x="323" y="0"/>
      <point x="383" y="76"/>
      <point x="438" y="170" type="curve" smooth="yes"/>
      <point x="674" y="571" type="line" smooth="yes"/>
      <point x="717" y="656"/>
      <point x="719" y="694"/>
      <point x="766" y="694" type="curve" smooth="yes"/>
      <point x="795" y="694" type="line"/>
      <point x="795" y="714" type="line"/>
      <point x="574" y="714" type="line"/>
      <point x="574" y="694" type="line"/>
      <point x="626" y="694" type="line" smooth="yes"/>
      <point x="649" y="694"/>
      <point x="670" y="690"/>
      <point x="670" y="659" type="curve" smooth="yes"/>
      <point x="670" y="643"/>
      <point x="668" y="633"/>
      <point x="647" y="591" type="curve" smooth="yes"/>
      <point x="521" y="378" type="line" smooth="yes"/>
      <point x="489" y="326"/>
      <point x="434" y="216"/>
      <point x="407" y="176" type="curve"/>
      <point x="382" y="207"/>
      <point x="360" y="245"/>
      <point x="332" y="292" type="curve" smooth="yes"/>
      <point x="135" y="591" type="line" smooth="yes"/>
      <point x="121" y="615"/>
      <point x="107" y="646"/>
      <point x="107" y="658" type="curve" smooth="yes"/>
      <point x="107" y="697"/>
      <point x="128" y="694"/>
      <point x="151" y="694" type="curve" smooth="yes"/>
      <point x="219" y="694" type="line"/>
      <point x="219" y="714" type="line"/>
      <point x="0" y="714" type="line"/>
      <point x="0" y="694" type="line"/>
      <point x="27" y="694" type="line" smooth="yes"/>
      <point x="30" y="694"/>
      <point x="59" y="677"/>
      <point x="90" y="622" type="curve" smooth="yes"/>
      <point x="387" y="156" type="line"/>
      <point x="330" y="52"/>
      <point x="284" y="25"/>
      <point x="180" y="25" type="curve" smooth="yes"/>
      <point x="128" y="25" type="line"/>
    </contour>
  </outline>
</glyph>
<glyph name="afii10078" format="2">
  <advance width="847"/>
  <unicode hex="043C"/>
  <anchor x="424" y="0" name="bottom"/>
  <anchor x="424" y="536" name="top"/>
  <outline>
    <contour>
      <point x="41" y="0" type="line"/>
      <point x="316" y="0" type="line"/>
      <point x="316" y="20" type="line"/>
      <point x="280" y="20" type="line" smooth="yes"/>
      <point x="211" y="20"/>
      <point x="205" y="22"/>
      <point x="205" y="92" type="curve" smooth="yes"/>
      <point x="205" y="456" type="line"/>
      <point x="207" y="456" type="line"/>
      <point x="402" y="0" type="line"/>
      <point x="429" y="0" type="line"/>
      <point x="631" y="436" type="line"/>
      <point x="635" y="436" type="line"/>
      <point x="635" y="94" type="line" smooth="yes"/>
      <point x="635" y="22"/>
      <point x="627" y="20"/>
      <point x="560" y="20" type="curve" smooth="yes"/>
      <point x="543" y="20" type="line"/>
      <point x="543" y="0" type="line"/>
      <point x="781" y="0" type="line"/>
      <point x="781" y="20" type="line"/>
      <point x="743" y="20" type="line" smooth="yes"/>
      <point x="667" y="20"/>
      <point x="663" y="22"/>
      <point x="663" y="94" type="curve" smooth="yes"/>
      <point x="663" y="458" type="line" smooth="yes"/>
      <point x="663" y="506"/>
      <point x="669" y="516"/>
      <point x="727" y="516" type="curve" smooth="yes"/>
      <point x="781" y="516" type="line"/>
      <point x="781" y="536" type="line"/>
      <point x="637" y="536" type="line"/>
      <point x="417" y="24" type="line"/>
      <point x="207" y="536" type="line"/>
      <point x="41" y="536" type="line"/>
      <point x="41" y="516" type="line"/>
      <point x="117" y="516" type="line" smooth="yes"/>
      <point x="172" y="516"/>
      <point x="178" y="512"/>
      <point x="178" y="444" type="curve" smooth="yes"/>
      <point x="178" y="91" type="line" smooth="yes"/>
      <point x="178" y="22"/>
      <point x="176" y="20"/>
      <point x="81" y="20" type="curve" smooth="yes"/>
      <point x="41" y="20" type="line"/>
    </contour>
  </outline>
</glyph>
<glyph name="afii10081" format="2">
  <advance width="830"/>
  <unicode hex="043F"/>
  <anchor x="415" y="0" name="bottom"/>
  <anchor x="415" y="536" name="top"/>
  <outline>
    <contour>
      <point x="41" y="0" type="line"/>
      <point x="328" y="0" type="line"/>
      <point x="328" y="20" type="line"/>
      <point x="282" y="20" type="line" smooth="yes"/>
      <point x="206" y="20"/>
      <point x="201" y="23"/>
      <point x="201" y="92" type="curve" smooth="yes"/>
      <point x="201" y="511" type="line"/>
      <point x="627" y="511" type="line"/>
      <point x="627" y="92" type="line" smooth="yes"/>
      <point x="627" y="22"/>
      <point x="621" y="20"/>
      <point x="542" y="20" type="curve" smooth="yes"/>
      <point x="501" y="20" type="line"/>
      <point x="501" y="0" type="line"/>
      <point x="788" y="0" type="line"/>
      <point x="788" y="20" type="line"/>
      <point x="731" y="20" type="line" smooth="yes"/>
      <point x="660" y="20"/>
      <point x="655" y="22"/>
      <point x="655" y="92" type="curve" smooth="yes"/>
      <point x="655" y="442" type="line" smooth="yes"/>
      <point x="655" y="510"/>
      <point x="655" y="514"/>
      <point x="739" y="514" type="curve" smooth="yes"/>
      <point x="788" y="514" type="line"/>
      <point x="788" y="536" type="line"/>
      <point x="41" y="536" type="line"/>
      <point x="41" y="516" type="line"/>
      <point x="96" y="516" type="line" smooth="yes"/>
      <point x="169" y="516"/>
      <point x="173" y="512"/>
      <point x="173" y="444" type="curve" smooth="yes"/>
      <point x="173" y="92" type="line" smooth="yes"/>
      <point x="173" y="23"/>
      <point x="169" y="20"/>
      <point x="92" y="20" type="curve" smooth="yes"/>
      <point x="41" y="20" type="line"/>
    </contour>
  </outline>
</glyph>
<glyph name="afii10091" format="2">
  <advance width="1113"/>
  <unicode hex="0449"/>
  <anchor x="556" y="0" name="bottom"/>
  <anchor x="556" y="536" name="top"/>
  <outline>
    <contour>
      <point x="1025" y="-210" type="line"/>
      <point x="1045" y="-210" type="line"/>
      <point x="1045" y="30" type="line"/>
      <point x="957" y="30" type="line" smooth="yes"/>
      <point x="937" y="30"/>
      <point x="931" y="56"/>
      <point x="931" y="92" type="curve" smooth="yes"/>
      <point x="931" y="444" type="line" smooth="yes"/>
      <point x="931" y="512"/>
      <point x="938" y="516"/>
      <point x="997" y="516" type="curve" smooth="yes"/>
      <point x="1063" y="516" type="line"/>
      <point x="1063" y="536" type="line"/>
      <point x="777" y="536" type="line"/>
      <point x="777" y="516" type="line"/>
      <point x="828" y="516" type="line" smooth="yes"/>
      <point x="897" y="516"/>
      <point x="903" y="512"/>
      <point x="903" y="444" type="curve" smooth="yes"/>
      <point x="903" y="25" type="line"/>
      <point x="566" y="25" type="line"/>
      <point x="566" y="444" type="line" smooth="yes"/>
      <point x="566" y="512"/>
      <point x="569" y="516"/>
      <point x="644" y="516" type="curve" smooth="yes"/>
      <point x="692" y="516" type="line"/>
      <point x="692" y="536" type="line"/>
      <point x="401" y="536" type="line"/>
      <point x="401" y="516" type="line"/>
      <point x="461" y="516" type="line" smooth="yes"/>
      <point x="534" y="516"/>
      <point x="538" y="512"/>
      <point x="538" y="444" type="curve" smooth="yes"/>
      <point x="538" y="25" type="line"/>
      <point x="201" y="25" type="line"/>
      <point x="201" y="444" type="line" smooth="yes"/>
      <point x="201" y="511"/>
      <point x="208" y="516"/>
      <point x="270" y="516" type="curve" smooth="yes"/>
      <point x="327" y="516" type="line"/>
      <point x="327" y="536" type="line"/>
      <point x="41" y="536" type="line"/>
      <point x="41" y="516" type="line"/>
      <point x="96" y="516" type="line" smooth="yes"/>
      <point x="171" y="516"/>
      <point x="173" y="511"/>
      <point x="173" y="444" type="curve" smooth="yes"/>
      <point x="173" y="92" type="line" smooth="yes"/>
      <point x="173" y="22"/>
      <point x="169" y="20"/>
      <point x="92" y="20" type="curve" smooth="yes"/>
      <point x="41" y="20" type="line"/>
      <point x="41" y="0" type="line"/>
      <point x="1042" y="0" type="line" smooth="yes"/>
      <point x="995" y="0"/>
      <point x="999" y="8"/>
      <point x="1000" y="92" type="curve" smooth="yes"/>
    </contour>
  </outline>
</glyph>
<glyph name="uni0468" format="2">
  <advance width="1178"/>
  <unicode hex="0468"/>
  <anchor x="589" y="0" name="bottom"/>
  <anchor x="589" y="714" name="top"/>
  <outline>
    <contour>
      <point x="63" y="0" type="line"/>
      <point x="327" y="0" type="line"/>
      <point x="327" y="20" type="line"/>
      <point x="266" y="20" type="line" smooth="yes"/>
      <point x="224" y="20"/>
      <point x="216" y="31"/>
      <point x="216" y="108" type="curve" smooth="yes"/>
      <point x="216" y="365" type="line"/>
      <point x="658" y="365" type="line"/>
      <point x="652" y="390" type="line"/>
      <point x="218" y="390" type="line"/>
      <point x="216" y="604" type="line" smooth="yes"/>
      <point x="216" y="683"/>
      <point x="218" y="694"/>
      <point x="272" y="694" type="curve" smooth="yes"/>
      <point x="327" y="694" type="line"/>
      <point x="327" y="714" type="line"/>
      <point x="63" y="714" type="line"/>
      <point x="63" y="694" type="line"/>
      <point x="134" y="694" type="line" smooth="yes"/>
      <point x="180" y="694"/>
      <point x="188" y="683"/>
      <point x="188" y="604" type="curve" smooth="yes"/>
      <point x="188" y="108" type="line" smooth="yes"/>
      <point x="188" y="31"/>
      <point x="184" y="20"/>
      <point x="128" y="20" type="curve" smooth="yes"/>
      <point x="63" y="20" type="line"/>
    </contour>
    <component base="uni0466" xOffset="387"/>
  </outline>
</glyph>
<glyph name="uni046F" format="2">
  <advance width="549"/>
  <unicode hex="046F"/>
  <anchor x="275" y="-187" name="bottom"/>
  <anchor x="275" y="659" name="top"/>
  <outline>
    <contour>
      <point x="516" y="-187" type="curve"/>
      <point x="532" y="-181"/>
      <point x="538" y="-169"/>
      <point x="538" y="-148" type="curve" smooth="yes"/>
      <point x="538" y="-109"/>
      <point x="514" y="-87"/>
      <point x="476" y="-87" type="curve" smooth="yes"/>
      <point x="390" y="-87"/>
      <point x="291" y="-144"/>
      <point x="192" y="-144" type="curve" smooth="yes"/>
      <point x="121" y="-144"/>
      <point x="78" y="-134"/>
      <point x="78" y="-64" type="curve" smooth="yes"/>
      <point x="78" y="-17"/>
      <point x="120" y="-1"/>
      <point x="255" y="18" type="curve" smooth="yes"/>
      <point x="361" y="33"/>
      <point x="470" y="73"/>
      <point x="470" y="167" type="curve" smooth="yes"/>
      <point x="470" y="264"/>
      <point x="421" y="273"/>
      <point x="356" y="288" type="curve"/>
      <point x="356" y="293" type="line"/>
      <point x="403" y="304"/>
      <point x="452" y="330"/>
      <point x="452" y="413" type="curve" smooth="yes"/>
      <point x="452" y="475"/>
      <point x="409" y="523"/>
      <point x="324" y="537" type="curve"/>
      <point x="390" y="628"/>
      <point x="414" y="628"/>
      <point x="435" y="628" type="curve" smooth="yes"/>
      <point x="441" y="628"/>
      <point x="456" y="624"/>
      <point x="457" y="625" type="curve"/>
      <point x="458" y="628"/>
      <point x="459" y="636"/>
      <point x="459" y="636" type="curve" smooth="yes"/>
      <point x="459" y="654"/>
      <point x="446" y="657"/>
      <point x="431" y="657" type="curve" smooth="yes"/>
      <point x="396" y="657"/>
      <point x="342" y="609"/>
      <point x="293" y="535" type="curve"/>
      <point x="276" y="574"/>
      <point x="227" y="630"/>
      <point x="191" y="659" type="curve"/>
      <point x="177" y="659" type="line"/>
      <point x="177" y="646" type="line"/>
      <point x="210" y="615"/>
      <point x="229" y="583"/>
      <point x="254" y="544" type="curve"/>
      <point x="170" y="541"/>
      <point x="80" y="509"/>
      <point x="80" y="440" type="curve" smooth="yes"/>
      <point x="80" y="421"/>
      <point x="82" y="410"/>
      <point x="91" y="410" type="curve"/>
      <point x="91" y="485"/>
      <point x="190" y="518"/>
      <point x="276" y="518" type="curve" smooth="yes"/>
      <point x="381" y="518"/>
      <point x="424" y="457"/>
      <point x="424" y="419" type="curve" smooth="yes"/>
      <point x="424" y="329"/>
      <point x="361" y="302"/>
      <point x="286" y="302" type="curve" smooth="yes"/>
      <point x="242" y="302" type="line"/>
      <point x="242" y="277" type="line"/>
      <point x="280" y="277" type="line" smooth="yes"/>
      <point x="379" y="277"/>
      <point x="442" y="256"/>
      <point x="442" y="164" type="curve" smooth="yes"/>
      <point x="442" y="135"/>
      <point x="420" y="70"/>
      <point x="244" y="43" type="curve" smooth="yes"/>
      <point x="100" y="19"/>
      <point x="47" y="-14"/>
      <point x="47" y="-65" type="curve" smooth="yes"/>
      <point x="47" y="-178"/>
      <point x="149" y="-169"/>
      <point x="179" y="-169" type="curve" smooth="yes"/>
      <point x="275" y="-169"/>
      <point x="401" y="-111"/>
      <point x="467" y="-111" type="curve" smooth="yes"/>
      <point x="510" y="-111"/>
      <point x="516" y="-139"/>
    </contour>
  </outline>
</glyph>
<glyph name="uni047B" format="2">
  <advance width="692"/>
  <unicode hex="047B"/>
  <outline>
    <contour>
      <point x="341" y="-41" type="curve" smooth="yes"/>
      <point x="357" y="-41"/>
      <point x="365" y="-36"/>
      <point x="367" y="-9" type="curve"/>
      <point x="528" y="-3"/>
      <point x="610" y="91"/>
      <point x="610" y="267" type="curve" smooth="yes"/>
      <point x="610" y="459"/>
      <point x="522" y="534"/>
      <point x="377" y="541" type="curve"/>
      <point x="375" y="568"/>
      <point x="370" y="575"/>
      <point x="351" y="575" type="curve" smooth="yes"/>
      <point x="337" y="575"/>
      <point x="327" y="568"/>
      <point x="325" y="541" type="curve"/>
      <point x="168" y="533"/>
      <point x="82" y="447"/>
      <point x="82" y="267" type="curve" smooth="yes"/>
      <point x="82" y="93"/>
      <point x="173" y="2"/>
      <point x="315" y="-9" type="curve"/>
      <point x="317" y="-36"/>
      <point x="327" y="-41"/>
    </contour>
    <contour>
      <point x="315" y="16" type="curve"/>
      <point x="172" y="25"/>
      <point x="110" y="123"/>
      <point x="110" y="267" type="curve" smooth="yes"/>
      <point x="110" y="424"/>
      <point x="176" y="507"/>
      <point x="326" y="516" type="curve"/>
      <point x="327" y="491"/>
      <point x="337" y="486"/>
      <point x="351" y="486" type="curve" smooth="yes"/>
      <point x="369" y="486"/>
      <point x="375" y="491"/>
      <point x="377" y="517" type="curve"/>
      <point x="512" y="509"/>
      <point x="582" y="434"/>
      <point x="582" y="267" type="curve" smooth="yes"/>
      <point x="582" y="132"/>
      <point x="524" y="25"/>
      <point x="369" y="15" type="curve"/>
      <point x="367" y="41"/>
      <point x="359" y="48"/>
      <point x="341" y="48" type="curve" smooth="yes"/>
      <point x="327" y="48"/>
      <point x="317" y="41"/>
    </contour>
  </outline>
</glyph>
<glyph name="uni0498" format="2">
  <advance width="657"/>
  <unicode hex="0498"/>
  <anchor x="329" y="-216" name="bottom"/>
  <anchor x="329" y="714" name="top"/>
  <outline>
    <contour>
      <point x="341" y="-216" type="curve" smooth="yes"/>
      <point x="400" y="-216"/>
      <point x="437" y="-174"/>
      <point x="437" y="-114" type="curve" smooth="yes"/>
      <point x="437" y="-71"/>
      <point x="387" y="-27"/>
      <point x="349" y="-5" type="curve"/>
      <point x="479" y="11"/>
      <point x="569" y="102"/>
      <point x="569" y="203" type="curve" smooth="yes"/>
      <point x="569" y="291"/>
      <point x="518" y="365"/>
      <point x="426" y="370" type="curve"/>
      <point x="525" y="391"/>
      <point x="565" y="448"/>
      <point x="565" y="551" type="curve" smooth="yes"/>
      <point x="565" y="641"/>
      <point x="500" y="727"/>
      <point x="330" y="727" type="curve" smooth="yes"/>
      <point x="214" y="727"/>
      <point x="92" y="696"/>
      <point x="92" y="604" type="curve" smooth="yes"/>
      <point x="92" y="588"/>
      <point x="100" y="565"/>
      <point x="125" y="565" type="curve"/>
      <point x="125" y="642"/>
      <point x="177" y="702"/>
      <point x="330" y="702" type="curve" smooth="yes"/>
      <point x="476" y="702"/>
      <point x="537" y="625"/>
      <point x="537" y="544" type="curve" smooth="yes"/>
      <point x="537" y="429"/>
      <point x="483" y="384"/>
      <point x="333" y="384" type="curve" smooth="yes"/>
      <point x="238" y="384" type="line"/>
      <point x="238" y="359" type="line"/>
      <point x="335" y="359" type="line" smooth="yes"/>
      <point x="466" y="359"/>
      <point x="541" y="302"/>
      <point x="541" y="209" type="curve" smooth="yes"/>
      <point x="541" y="107"/>
      <point x="434" y="17"/>
      <point x="304" y="17" type="curve" smooth="yes"/>
      <point x="190" y="17"/>
      <point x="100" y="62"/>
      <point x="98" y="154" type="curve"/>
      <point x="77" y="154"/>
      <point x="68" y="151"/>
      <point x="68" y="136" type="curve" smooth="yes"/>
      <point x="68" y="40"/>
      <point x="176" y="-10"/>
      <point x="312" y="-8" type="curve"/>
      <point x="337" y="-10"/>
      <point x="409" y="-55"/>
      <point x="409" y="-113" type="curve" smooth="yes"/>
      <point x="409" y="-173"/>
      <point x="380" y="-190"/>
      <point x="337" y="-190" type="curve" smooth="yes"/>
      <point x="325" y="-190"/>
      <point x="295" y="-198"/>
      <point x="275" y="-197" type="curve"/>
      <point x="276" y="-196"/>
      <point x="275" y="-201"/>
      <point x="275" y="-199" type="curve" smooth="yes"/>
      <point x="275" y="-201"/>
      <point x="299" y="-216"/>
    </contour>
  </outline>
</glyph>
<glyph name="uni0499" format="2">
  <advance width="550"/>
  <unicode hex="0499"/>
  <anchor x="276" y="-218" name="bottom"/>
  <anchor x="276" y="536" name="top"/>
  <outline>
    <contour>
      <point x="274" y="-218" type="curve" smooth="yes"/>
      <point x="333" y="-218"/>
      <point x="370" y="-176"/>
      <point x="370" y="-116" type="curve" smooth="yes"/>
      <point x="370" y="-76"/>
      <point x="322" y="-32"/>
      <point x="284" y="-8" type="curve"/>
      <point x="420" y="-1"/>
      <point x="470" y="64"/>
      <point x="470" y="141" type="curve" smooth="yes"/>
      <point x="470" y="238"/>
      <point x="421" y="273"/>
      <point x="356" y="288" type="curve"/>
      <point x="356" y="293" type="line"/>
      <point x="403" y="304"/>
      <point x="452" y="330"/>
      <point x="452" y="413" type="curve" smooth="yes"/>
      <point x="452" y="489"/>
      <point x="393" y="543"/>
      <point x="272" y="543" type="curve" smooth="yes"/>
      <point x="187" y="543"/>
      <point x="80" y="516"/>
      <point x="80" y="440" type="curve" smooth="yes"/>
      <point x="80" y="421"/>
      <point x="84" y="410"/>
      <point x="93" y="410" type="curve"/>
      <point x="93" y="479"/>
      <point x="190" y="518"/>
      <point x="276" y="518" type="curve" smooth="yes"/>
      <point x="381" y="518"/>
      <point x="424" y="457"/>
      <point x="424" y="419" type="curve" smooth="yes"/>
      <point x="424" y="329"/>
      <point x="361" y="302"/>
      <point x="286" y="302" type="curve" smooth="yes"/>
      <point x="242" y="302" type="line"/>
      <point x="242" y="277" type="line"/>
      <point x="280" y="277" type="line" smooth="yes"/>
      <point x="379" y="277"/>
      <point x="442" y="230"/>
      <point x="442" y="138" type="curve" smooth="yes"/>
      <point x="442" y="56"/>
      <point x="382" y="15"/>
      <point x="251" y="15" type="curve" smooth="yes"/>
      <point x="130" y="15"/>
      <point x="77" y="81"/>
      <point x="77" y="134" type="curve"/>
      <point x="63" y="134"/>
      <point x="50" y="122"/>
      <point x="50" y="104" type="curve" smooth="yes"/>
      <point x="50" y="73"/>
      <point x="104" y="-6"/>
      <point x="246" y="-9" type="curve"/>
      <point x="272" y="-14"/>
      <point x="342" y="-59"/>
      <point x="342" y="-115" type="curve" smooth="yes"/>
      <point x="342" y="-175"/>
      <point x="313" y="-192"/>
      <point x="270" y="-192" type="curve" smooth="yes"/>
      <point x="258" y="-192"/>
      <point x="228" y="-200"/>
      <point x="208" y="-199" type="curve"/>
      <point x="209" y="-198"/>
      <point x="208" y="-203"/>
      <point x="208" y="-201" type="curve" smooth="yes"/>
      <point x="208" y="-203"/>
      <point x="232" y="-218"/>
    </contour>
  </outline>
</glyph>
<glyph name="uni049C" format="2">
  <advance width="862"/>
  <unicode hex="049C"/>
  <anchor x="431" y="0" name="bottom"/>
  <anchor x="431" y="714" name="top"/>
  <outline>
    <contour>
      <point x="64" y="0" type="line"/>
      <point x="327" y="0" type="line"/>
      <point x="327" y="20" type="line"/>
      <point x="270" y="20" type="line" smooth="yes"/>
      <point x="223" y="20"/>
      <point x="216" y="31"/>
      <point x="216" y="104" type="curve" smooth="yes"/>
      <point x="216" y="344" type="line"/>
      <point x="313" y="344" type="line"/>
      <point x="313" y="174" type="line"/>
      <point x="335" y="174" type="line"/>
      <point x="335" y="344" type="line"/>
      <point x="424" y="338"/>
      <point x="488" y="319"/>
      <point x="520" y="268" type="curve" smooth="yes"/>
      <point x="626" y="86" type="line" smooth="yes"/>
      <point x="685" y="-6"/>
      <point x="758" y="0"/>
      <point x="779" y="0" type="curve" smooth="yes"/>
      <point x="795" y="0" type="line"/>
      <point x="795" y="30" type="line"/>
      <point x="791" y="30" type="line" smooth="yes"/>
      <point x="745" y="30"/>
      <point x="699" y="33"/>
      <point x="670" y="72" type="curve" smooth="yes"/>
      <point x="560" y="250" type="line" smooth="yes"/>
      <point x="533" y="289"/>
      <point x="479" y="365"/>
      <point x="355" y="363" type="curve"/>
      <point x="394" y="352"/>
      <point x="440" y="409"/>
      <point x="486" y="529" type="curve" smooth="yes"/>
      <point x="545" y="679"/>
      <point x="584" y="695"/>
      <point x="640" y="695" type="curve" smooth="yes"/>
      <point x="709" y="695"/>
      <point x="759" y="661"/>
      <point x="759" y="606" type="curve"/>
      <point x="777" y="609"/>
      <point x="775" y="634"/>
      <point x="775" y="642" type="curve" smooth="yes"/>
      <point x="775" y="668"/>
      <point x="745" y="720"/>
      <point x="649" y="720" type="curve" smooth="yes"/>
      <point x="562" y="720"/>
      <point x="532" y="712"/>
      <point x="474" y="563" type="curve" smooth="yes"/>
      <point x="470" y="557"/>
      <point x="386" y="358"/>
      <point x="335" y="365" type="curve"/>
      <point x="335" y="544" type="line"/>
      <point x="313" y="544" type="line"/>
      <point x="313" y="371" type="line"/>
      <point x="216" y="371" type="line"/>
      <point x="216" y="603" type="line" smooth="yes"/>
      <point x="216" y="679"/>
      <point x="218" y="694"/>
      <point x="274" y="694" type="curve" smooth="yes"/>
      <point x="327" y="694" type="line"/>
      <point x="327" y="714" type="line"/>
      <point x="64" y="714" type="line"/>
      <point x="64" y="694" type="line"/>
      <point x="128" y="694" type="line" smooth="yes"/>
      <point x="184" y="694"/>
      <point x="188" y="683"/>
      <point x="188" y="603" type="curve" smooth="yes"/>
      <point x="188" y="108" type="line" smooth="yes"/>
      <point x="188" y="31"/>
      <point x="182" y="20"/>
      <point x="130" y="20" type="curve" smooth="yes"/>
      <point x="64" y="20" type="line"/>
    </contour>
  </outline>
</glyph>
<glyph name="uni049D" format="2">
  <advance width="704"/>
  <unicode hex="049D"/>
  <anchor x="353" y="0" name="bottom"/>
  <anchor x="353" y="536" name="top"/>
  <outline>
    <contour>
      <point x="33" y="0" type="line"/>
      <point x="318" y="0" type="line"/>
      <point x="318" y="20" type="line"/>
      <point x="269" y="20" type="line" smooth="yes"/>
      <point x="206" y="20"/>
      <point x="200" y="22"/>
      <point x="200" y="92" type="curve" smooth="yes"/>
      <point x="200" y="256" type="line"/>
      <point x="286" y="256" type="line"/>
      <point x="286" y="137" type="line"/>
      <point x="308" y="137" type="line"/>
      <point x="308" y="255" type="line"/>
      <point x="421" y="253"/>
      <point x="460" y="239"/>
      <point x="486" y="194" type="curve" smooth="yes"/>
      <point x="558" y="50" type="line" smooth="yes"/>
      <point x="560" y="52"/>
      <point x="592" y="0"/>
      <point x="678" y="0" type="curve" smooth="yes"/>
      <point x="693" y="0" type="line"/>
      <point x="693" y="30" type="line"/>
      <point x="672" y="30" type="line" smooth="yes"/>
      <point x="625" y="30"/>
      <point x="602" y="23"/>
      <point x="565" y="94" type="curve" smooth="yes"/>
      <point x="509" y="203" type="line"/>
      <point x="484" y="254"/>
      <point x="458" y="271"/>
      <point x="377" y="279" type="curve"/>
      <point x="415" y="297"/>
      <point x="440" y="342"/>
      <point x="476" y="396" type="curve" smooth="yes"/>
      <point x="516" y="455"/>
      <point x="553" y="517"/>
      <point x="604" y="517" type="curve" smooth="yes"/>
      <point x="663" y="517"/>
      <point x="674" y="486"/>
      <point x="673" y="433" type="curve"/>
      <point x="699" y="438"/>
      <point x="696" y="461"/>
      <point x="696" y="475" type="curve" smooth="yes"/>
      <point x="696" y="515"/>
      <point x="653" y="542"/>
      <point x="616" y="542" type="curve" smooth="yes"/>
      <point x="536" y="542"/>
      <point x="522" y="520"/>
      <point x="466" y="429" type="curve" smooth="yes"/>
      <point x="444" y="396"/>
      <point x="362" y="251"/>
      <point x="309" y="270" type="curve"/>
      <point x="309" y="425" type="line"/>
      <point x="286" y="425" type="line"/>
      <point x="286" y="281" type="line"/>
      <point x="200" y="281" type="line"/>
      <point x="200" y="444" type="line" smooth="yes"/>
      <point x="200" y="511"/>
      <point x="200" y="516"/>
      <point x="279" y="516" type="curve" smooth="yes"/>
      <point x="311" y="516" type="line"/>
      <point x="311" y="536" type="line"/>
      <point x="41" y="536" type="line"/>
      <point x="41" y="516" type="line"/>
      <point x="108" y="516" type="line" smooth="yes"/>
      <point x="161" y="516"/>
      <point x="172" y="512"/>
      <point x="172" y="444" type="curve" smooth="yes"/>
      <point x="172" y="93" type="line" smooth="yes"/>
      <point x="172" y="22"/>
      <point x="170" y="20"/>
      <point x="87" y="20" type="curve" smooth="yes"/>
      <point x="33" y="20" type="line"/>
    </contour>
  </outline>
</glyph>
<glyph name="uni04A3" format="2">
  <advance width="855"/>
  <unicode hex="04A3"/>
  <anchor x="427" y="0" name="bottom"/>
  <anchor x="427" y="536" name="top"/>
  <outline>
    <contour>
      <point x="797" y="-210" type="line"/>
      <point x="817" y="-210" type="line"/>
      <point x="817" y="30" type="line"/>
      <point x="696" y="30" type="line" smooth="yes"/>
      <point x="690" y="30"/>
      <point x="684" y="40"/>
      <point x="684" y="92" type="curve" smooth="yes"/>
      <point x="684" y="444" type="line" smooth="yes"/>
      <point x="684" y="512"/>
      <point x="684" y="516"/>
      <point x="768" y="516" type="curve" smooth="yes"/>
      <point x="817" y="516" type="line"/>
      <point x="817" y="536" type="line"/>
      <point x="530" y="536" type="line"/>
      <point x="530" y="516" type="line"/>
      <point x="571" y="516" type="line" smooth="yes"/>
      <point x="654" y="516"/>
      <point x="656" y="512"/>
      <point x="656" y="444" type="curve" smooth="yes"/>
      <point x="656" y="287" type="line"/>
      <point x="201" y="287" type="line"/>
      <point x="201" y="444" type="line" smooth="yes"/>
      <point x="201" y="492"/>
      <point x="199" y="516"/>
      <point x="253" y="516" type="curve" smooth="yes"/>
      <point x="328" y="516" type="line"/>
      <point x="328" y="536" type="line"/>
      <point x="41" y="536" type="line"/>
      <point x="41" y="516" type="line"/>
      <point x="130" y="516" type="line" smooth="yes"/>
      <point x="173" y="516"/>
      <point x="173" y="492"/>
      <point x="173" y="444" type="curve" smooth="yes"/>
      <point x="173" y="92" type="line" smooth="yes"/>
      <point x="173" y="23"/>
      <point x="171" y="20"/>
      <point x="88" y="20" type="curve" smooth="yes"/>
      <point x="41" y="20" type="line"/>
      <point x="41" y="0" type="line"/>
      <point x="328" y="0" type="line"/>
      <point x="328" y="20" type="line"/>
      <point x="278" y="20" type="line" smooth="yes"/>
      <point x="208" y="20"/>
      <point x="201" y="23"/>
      <point x="201" y="92" type="curve" smooth="yes"/>
      <point x="201" y="262" type="line"/>
      <point x="656" y="262" type="line"/>
      <point x="656" y="92" type="line" smooth="yes"/>
      <point x="656" y="22"/>
      <point x="652" y="20"/>
      <point x="569" y="20" type="curve" smooth="yes"/>
      <point x="530" y="20" type="line"/>
      <point x="530" y="0" type="line"/>
      <point x="844" y="0" type="line" smooth="yes"/>
      <point x="791" y="0"/>
      <point x="779" y="12"/>
      <point x="780" y="100" type="curve" smooth="yes"/>
    </contour>
  </outline>
</glyph>
<glyph name="uni04A6" format="2">
  <advance width="1199"/>
  <unicode hex="04A6"/>
  <anchor x="600" y="-242" name="bottom"/>
  <anchor x="600" y="714" name="top"/>
  <outline>
    <contour>
      <point x="824" y="-242" type="curve" smooth="yes"/>
      <point x="1055" y="-242"/>
      <point x="1129" y="-67"/>
      <point x="1129" y="115" type="curve" smooth="yes"/>
      <point x="1129" y="274"/>
      <point x="1095" y="396"/>
      <point x="834" y="396" type="curve" smooth="yes"/>
      <point x="780" y="396"/>
      <point x="719" y="380"/>
      <point x="679" y="364" type="curve"/>
      <point x="679" y="604" type="line" smooth="yes"/>
      <point x="679" y="683"/>
      <point x="685" y="694"/>
      <point x="735" y="694" type="curve" smooth="yes"/>
      <point x="802" y="694" type="line"/>
      <point x="802" y="714" type="line"/>
      <point x="63" y="714" type="line"/>
      <point x="63" y="694" type="line"/>
      <point x="128" y="694" type="line" smooth="yes"/>
      <point x="186" y="694"/>
      <point x="188" y="683"/>
      <point x="188" y="604" type="curve" smooth="yes"/>
      <point x="188" y="108" type="line" smooth="yes"/>
      <point x="188" y="31"/>
      <point x="184" y="20"/>
      <point x="130" y="20" type="curve" smooth="yes"/>
      <point x="63" y="20" type="line"/>
      <point x="63" y="0" type="line"/>
      <point x="337" y="0" type="line"/>
      <point x="337" y="20" type="line"/>
      <point x="276" y="20" type="line" smooth="yes"/>
      <point x="220" y="20"/>
      <point x="216" y="31"/>
      <point x="216" y="108" type="curve" smooth="yes"/>
      <point x="216" y="689" type="line"/>
      <point x="651" y="689" type="line"/>
      <point x="651" y="108" type="line" smooth="yes"/>
      <point x="651" y="31"/>
      <point x="645" y="20"/>
      <point x="595" y="20" type="curve" smooth="yes"/>
      <point x="530" y="20" type="line"/>
      <point x="530" y="0" type="line"/>
      <point x="802" y="0" type="line"/>
      <point x="802" y="20" type="line"/>
      <point x="733" y="20" type="line" smooth="yes"/>
      <point x="685" y="20"/>
      <point x="679" y="31"/>
      <point x="679" y="108" type="curve" smooth="yes"/>
      <point x="679" y="338" type="line"/>
      <point x="717" y="354"/>
      <point x="782" y="371"/>
      <point x="836" y="371" type="curve" smooth="yes"/>
      <point x="1073" y="371"/>
      <point x="1101" y="249"/>
      <point x="1101" y="117" type="curve" smooth="yes"/>
      <point x="1101" y="-39"/>
      <point x="1038" y="-217"/>
      <point x="826" y="-217" type="curve" smooth="yes"/>
      <point x="755" y="-217"/>
      <point x="669" y="-192"/>
      <point x="669" y="-98" type="curve"/>
      <point x="663" y="-98"/>
      <point x="642" y="-114"/>
      <point x="642" y="-136" type="curve" smooth="yes"/>
      <point x="642" y="-216"/>
      <point x="725" y="-242"/>
    </contour>
  </outline>
</glyph>
<glyph name="uni04AC" format="2">
  <advance width="690"/>
  <unicode hex="04AC"/>
  <anchor x="346" y="-210" name="bottom"/>
  <anchor x="346" y="714" name="top"/>
  <outline>
    <contour>
      <point x="487" y="-210" type="curve"/>
      <point x="507" y="-210" type="line"/>
      <point x="507" y="30" type="line"/>
      <point x="446" y="30" type="line" smooth="yes"/>
      <point x="356" y="30"/>
      <point x="356" y="31"/>
      <point x="356" y="110" type="curve" smooth="yes"/>
      <point x="356" y="689" type="line"/>
      <point x="556" y="689" type="line" smooth="yes"/>
      <point x="598" y="689"/>
      <point x="618" y="689"/>
      <point x="622" y="624" type="curve" smooth="yes"/>
      <point x="626" y="563" type="line"/>
      <point x="646" y="563" type="line"/>
      <point x="638" y="714" type="line"/>
      <point x="47" y="714" type="line"/>
      <point x="41" y="563" type="line"/>
      <point x="61" y="563" type="line"/>
      <point x="67" y="648" type="line" smooth="yes"/>
      <point x="71" y="683"/>
      <point x="87" y="689"/>
      <point x="133" y="689" type="curve" smooth="yes"/>
      <point x="328" y="689" type="line"/>
      <point x="328" y="108" type="line" smooth="yes"/>
      <point x="328" y="31"/>
      <point x="322" y="20"/>
      <point x="270" y="20" type="curve" smooth="yes"/>
      <point x="176" y="20" type="line"/>
      <point x="176" y="0" type="line"/>
      <point x="526" y="0" type="line" smooth="yes"/>
      <point x="490" y="0"/>
      <point x="487" y="-30"/>
    </contour>
  </outline>
</glyph>
<glyph name="uni04BE" format="2">
  <advance width="987"/>
  <unicode hex="04BE"/>
  <anchor x="587" y="-210" name="bottom"/>
  <anchor x="583" y="714" name="top"/>
  <outline>
    <contour>
      <point x="575" y="-210" type="curve"/>
      <point x="594" y="-210" type="line"/>
      <point x="594" y="-49"/>
      <point x="604" y="-33"/>
      <point x="618" y="-8" type="curve"/>
      <point x="768" y="3"/>
      <point x="857" y="72"/>
      <point x="857" y="86" type="curve" smooth="yes"/>
      <point x="857" y="93"/>
      <point x="849" y="106"/>
      <point x="843" y="107" type="curve"/>
      <point x="791" y="61"/>
      <point x="704" y="15"/>
      <point x="571" y="15" type="curve" smooth="yes"/>
      <point x="367" y="15"/>
      <point x="287" y="210"/>
      <point x="289" y="339" type="curve"/>
      <point x="904" y="339" type="line"/>
      <point x="904" y="355" type="line" smooth="yes"/>
      <point x="904" y="592"/>
      <point x="801" y="722"/>
      <point x="586" y="722" type="curve" smooth="yes"/>
      <point x="395" y="722"/>
      <point x="270" y="572"/>
      <point x="263" y="363" type="curve"/>
      <point x="147" y="363"/>
      <point x="96" y="385"/>
      <point x="96" y="434" type="curve" smooth="yes"/>
      <point x="96" y="456"/>
      <point x="107" y="465"/>
      <point x="95" y="473" type="curve"/>
      <point x="95" y="476"/>
      <point x="94" y="483"/>
      <point x="83" y="483" type="curve" smooth="yes"/>
      <point x="70" y="483"/>
      <point x="67" y="469"/>
      <point x="67" y="438" type="curve" smooth="yes"/>
      <point x="67" y="382"/>
      <point x="101" y="330"/>
      <point x="261" y="338" type="curve"/>
      <point x="257" y="155"/>
      <point x="368" y="-13"/>
      <point x="565" y="-16" type="curve"/>
      <point x="562" y="-32"/>
      <point x="575" y="-49"/>
    </contour>
    <contour>
      <point x="289" y="365" type="line"/>
      <point x="280" y="544"/>
      <point x="406" y="697"/>
      <point x="588" y="697" type="curve" smooth="yes"/>
      <point x="816" y="697"/>
      <point x="872" y="520"/>
      <point x="876" y="365" type="curve"/>
    </contour>
  </outline>
</glyph>
<glyph name="uni04C6" format="2">
  <advance width="727"/>
  <unicode hex="04C6"/>
  <anchor x="363" y="0" name="bottom"/>
  <anchor x="363" y="536" name="top"/>
  <outline>
    <contour>
      <point x="543" y="-210" type="line"/>
      <point x="584" y="-210" type="line"/>
      <point x="674" y="0" type="line"/>
      <point x="674" y="20" type="line"/>
      <point x="653" y="20" type="line"/>
      <point x="651" y="0" type="line"/>
    </contour>
    <component base="afii10077"/>
  </outline>
</glyph>
<glyph name="uni04CA" format="2">
  <advance width="857"/>
  <unicode hex="04CA"/>
  <anchor x="428" y="0" name="bottom"/>
  <anchor x="428" y="536" name="top"/>
  <outline>
    <contour>
      <point x="673" y="-210" type="line"/>
      <point x="715" y="-210" type="line"/>
      <point x="807" y="0" type="line"/>
      <point x="807" y="20" type="line"/>
      <point x="784" y="20" type="line"/>
      <point x="782" y="0" type="line"/>
    </contour>
    <component base="afii10079"/>
  </outline>
</glyph>
<glyph name="uni050A" format="2">
  <advance width="1172"/>
  <unicode hex="050A"/>
  <anchor x="586" y="0" name="bottom"/>
  <anchor x="586" y="714" name="top"/>
  <outline>
    <contour>
      <point x="888" y="-10" type="curve" smooth="yes"/>
      <point x="979" y="-10"/>
      <point x="1034" y="46"/>
      <point x="1034" y="96" type="curve" smooth="yes"/>
      <point x="1034" y="318" type="line" smooth="yes"/>
      <point x="1034" y="359"/>
      <point x="1046" y="364"/>
      <point x="1074" y="364" type="curve" smooth="yes"/>
      <point x="1154" y="364" type="line"/>
      <point x="1154" y="384" type="line"/>
      <point x="895" y="384" type="line"/>
      <point x="895" y="364" type="line"/>
      <point x="960" y="364" type="line" smooth="yes"/>
      <point x="994" y="364"/>
      <point x="1006" y="359"/>
      <point x="1006" y="318" type="curve" smooth="yes"/>
      <point x="1006" y="89" type="line" smooth="yes"/>
      <point x="1006" y="52"/>
      <point x="966" y="15"/>
      <point x="887" y="15" type="curve" smooth="yes"/>
      <point x="803" y="15"/>
      <point x="752" y="41"/>
      <point x="752" y="183" type="curve" smooth="yes"/>
      <point x="752" y="604" type="line" smooth="yes"/>
      <point x="752" y="683"/>
      <point x="756" y="694"/>
      <point x="810" y="694" type="curve" smooth="yes"/>
      <point x="875" y="694" type="line"/>
      <point x="875" y="714" type="line"/>
      <point x="603" y="714" type="line"/>
      <point x="603" y="694" type="line"/>
      <point x="670" y="694" type="line" smooth="yes"/>
      <point x="718" y="694"/>
      <point x="724" y="683"/>
      <point x="724" y="604" type="curve" smooth="yes"/>
      <point x="724" y="386" type="line"/>
      <point x="216" y="386" type="line"/>
      <point x="216" y="604" type="line" smooth="yes"/>
      <point x="216" y="683"/>
      <point x="222" y="694"/>
      <point x="274" y="694" type="curve" smooth="yes"/>
      <point x="337" y="694" type="line"/>
      <point x="337" y="714" type="line"/>
      <point x="63" y="714" type="line"/>
      <point x="63" y="694" type="line"/>
      <point x="132" y="694" type="line" smooth="yes"/>
      <point x="182" y="694"/>
      <point x="188" y="683"/>
      <point x="188" y="604" type="curve" smooth="yes"/>
      <point x="188" y="108" type="line" smooth="yes"/>
      <point x="188" y="31"/>
      <point x="182" y="20"/>
      <point x="130" y="20" type="curve" smooth="yes"/>
      <point x="63" y="20" type="line"/>
      <point x="63" y="0" type="line"/>
      <point x="337" y="0" type="line"/>
      <point x="337" y="20" type="line"/>
      <point x="272" y="20" type="line" smooth="yes"/>
      <point x="222" y="20"/>
      <point x="216" y="31"/>
      <point x="216" y="108" type="curve" smooth="yes"/>
      <point x="216" y="361" type="line"/>
      <point x="724" y="361" type="line"/>
      <point x="724" y="184" type="line" smooth="yes"/>
      <point x="724" y="-17"/>
      <point x="807" y="-10"/>
    </contour>
  </outline>
</glyph>
<glyph name="uni050C" format="2">
  <advance width="799"/>
  <unicode hex="050C"/>
  <anchor x="399" y="0" name="bottom"/>
  <anchor x="399" y="714" name="top"/>
  <outline>
    <contour>
      <point x="413" y="-10" type="curve" smooth="yes"/>
      <point x="599" y="-12"/>
      <point x="700" y="72"/>
      <point x="700" y="220" type="curve" smooth="yes"/>
      <point x="700" y="284"/>
      <point x="708" y="301"/>
      <point x="719" y="301" type="curve" smooth="yes"/>
      <point x="790" y="301" type="line"/>
      <point x="790" y="321" type="line"/>
      <point x="541" y="321" type="line"/>
      <point x="541" y="301" type="line"/>
      <point x="636" y="301" type="line" smooth="yes"/>
      <point x="656" y="301"/>
      <point x="673" y="284"/>
      <point x="672" y="220" type="curve" smooth="yes"/>
      <point x="670" y="53"/>
      <point x="547" y="15"/>
      <point x="415" y="15" type="curve" smooth="yes"/>
      <point x="176" y="15"/>
      <point x="102" y="183"/>
      <point x="102" y="358" type="curve" smooth="yes"/>
      <point x="102" y="622"/>
      <point x="239" y="699"/>
      <point x="469" y="699" type="curve" smooth="yes"/>
      <point x="627" y="699"/>
      <point x="665" y="669"/>
      <point x="665" y="567" type="curve"/>
      <point x="676" y="567"/>
      <point x="690" y="580"/>
      <point x="690" y="605" type="curve" smooth="yes"/>
      <point x="690" y="663"/>
      <point x="635" y="724"/>
      <point x="477" y="724" type="curve" smooth="yes"/>
      <point x="249" y="724"/>
      <point x="74" y="656"/>
      <point x="74" y="358" type="curve" smooth="yes"/>
      <point x="74" y="153"/>
      <point x="166" y="-7"/>
    </contour>
  </outline>
</glyph>
<glyph name="uni0514" format="2">
  <advance width="1100"/>
  <unicode hex="0514"/>
  <anchor x="550" y="0" name="bottom"/>
  <anchor x="550" y="714" name="top"/>
  <outline>
    <contour>
      <point x="100" y="-7" type="curve" smooth="yes"/>
      <point x="202" y="-7"/>
      <point x="232" y="57"/>
      <point x="264" y="159" type="curve" smooth="yes"/>
      <point x="316" y="336"/>
      <point x="348" y="586"/>
      <point x="362" y="689" type="curve"/>
      <point x="439" y="689" type="line" smooth="yes"/>
      <point x="466" y="689"/>
      <point x="515" y="684"/>
      <point x="543" y="644" type="curve" smooth="yes"/>
      <point x="726" y="372" type="line"/>
      <point x="566" y="109" type="line" smooth="yes"/>
      <point x="519" y="24"/>
      <point x="500" y="20"/>
      <point x="448" y="20" type="curve" smooth="yes"/>
      <point x="408" y="20" type="line"/>
      <point x="408" y="0" type="line"/>
      <point x="677" y="0" type="line"/>
      <point x="677" y="20" type="line"/>
      <point x="631" y="20" type="line" smooth="yes"/>
      <point x="611" y="20"/>
      <point x="573" y="15"/>
      <point x="573" y="46" type="curve" smooth="yes"/>
      <point x="573" y="71"/>
      <point x="601" y="104"/>
      <point x="623" y="143" type="curve" smooth="yes"/>
      <point x="740" y="349" type="line"/>
      <point x="895" y="119" type="line" smooth="yes"/>
      <point x="923" y="82"/>
      <point x="933" y="67"/>
      <point x="933" y="46" type="curve" smooth="yes"/>
      <point x="933" y="26"/>
      <point x="905" y="20"/>
      <point x="867" y="20" type="curve" smooth="yes"/>
      <point x="857" y="20" type="line"/>
      <point x="857" y="0" type="line"/>
      <point x="1087" y="0" type="line"/>
      <point x="1087" y="20" type="line"/>
      <point x="1037" y="20" type="line" smooth="yes"/>
      <point x="1017" y="20"/>
      <point x="986" y="41"/>
      <point x="962" y="74" type="curve" smooth="yes"/>
      <point x="760" y="367" type="line"/>
      <point x="902" y="600" type="line" smooth="yes"/>
      <point x="944" y="674"/>
      <point x="975" y="694"/>
      <point x="1035" y="694" type="curve" smooth="yes"/>
      <point x="1057" y="694" type="line"/>
      <point x="1057" y="714" type="line"/>
      <point x="812" y="714" type="line"/>
      <point x="812" y="694" type="line"/>
      <point x="811" y="694" type="line" smooth="yes"/>
      <point x="839" y="694"/>
      <point x="896" y="702"/>
      <point x="896" y="666" type="curve" smooth="yes"/>
      <point x="896" y="646"/>
      <point x="890" y="633"/>
      <point x="872" y="605" type="curve" smooth="yes"/>
      <point x="742" y="394" type="line"/>
      <point x="598" y="608" type="line" smooth="yes"/>
      <point x="590" y="614"/>
      <point x="571" y="645"/>
      <point x="571" y="664" type="curve" smooth="yes"/>
      <point x="571" y="684"/>
      <point x="576" y="694"/>
      <point x="640" y="694" type="curve" smooth="yes"/>
      <point x="640" y="694" type="line"/>
      <point x="640" y="714" type="line"/>
      <point x="211" y="714" type="line"/>
      <point x="211" y="694" type="line"/>
      <point x="278" y="694" type="line" smooth="yes"/>
      <point x="326" y="694"/>
      <point x="323" y="688"/>
      <point x="323" y="605" type="curve" smooth="yes"/>
      <point x="323" y="523"/>
      <point x="272" y="282"/>
      <point x="235" y="156" type="curve" smooth="yes"/>
      <point x="209" y="86"/>
      <point x="187" y="15"/>
      <point x="106" y="15" type="curve" smooth="yes"/>
      <point x="66" y="15"/>
      <point x="42" y="33"/>
      <point x="26" y="88" type="curve"/>
      <point x="15" y="88"/>
      <point x="0" y="79"/>
      <point x="0" y="62" type="curve" smooth="yes"/>
      <point x="0" y="18"/>
      <point x="46" y="-7"/>
    </contour>
  </outline>
</glyph>
<glyph name="uni0516" format="2">
  <advance width="1050"/>
  <unicode hex="0516"/>
  <anchor x="519" y="0" name="bottom"/>
  <anchor x="519" y="714" name="top"/>
  <outline>
    <contour>
      <point x="64" y="0" type="line"/>
      <point x="364" y="0" type="line"/>
      <point x="364" y="20" type="line"/>
      <point x="269" y="20" type="line" smooth="yes"/>
      <point x="225" y="20"/>
      <point x="217" y="31"/>
      <point x="217" y="108" type="curve" smooth="yes"/>
      <point x="217" y="284" type="line"/>
      <point x="347" y="284" type="line" smooth="yes"/>
      <point x="474" y="284"/>
      <point x="552" y="317"/>
      <point x="592" y="376" type="curve"/>
      <point x="796" y="119" type="line" smooth="yes"/>
      <point x="826" y="84"/>
      <point x="842" y="65"/>
      <point x="842" y="46" type="curve" smooth="yes"/>
      <point x="842" y="20"/>
      <point x="814" y="20"/>
      <point x="750" y="20" type="curve" smooth="yes"/>
      <point x="758" y="20" type="line"/>
      <point x="758" y="0" type="line"/>
      <point x="988" y="0" type="line"/>
      <point x="988" y="20" type="line"/>
      <point x="956" y="20" type="line" smooth="yes"/>
      <point x="938" y="20"/>
      <point x="907" y="17"/>
      <point x="879" y="50" type="curve" smooth="yes"/>
      <point x="623" y="383" type="line"/>
      <point x="951" y="644" type="line" smooth="yes"/>
      <point x="1007" y="692"/>
      <point x="1008" y="694"/>
      <point x="1040" y="694" type="curve" smooth="yes"/>
      <point x="1062" y="694" type="line"/>
      <point x="1062" y="714" type="line"/>
      <point x="817" y="714" type="line"/>
      <point x="817" y="694" type="line"/>
      <point x="838" y="694" type="line" smooth="yes"/>
      <point x="900" y="694"/>
      <point x="923" y="698"/>
      <point x="923" y="674" type="curve" smooth="yes"/>
      <point x="923" y="652"/>
      <point x="898" y="629"/>
      <point x="867" y="605" type="curve" smooth="yes"/>
      <point x="603" y="387" type="line"/>
      <point x="620" y="416"/>
      <point x="629" y="466"/>
      <point x="629" y="509" type="curve" smooth="yes"/>
      <point x="629" y="631"/>
      <point x="559" y="714"/>
      <point x="381" y="714" type="curve" smooth="yes"/>
      <point x="64" y="714" type="line"/>
      <point x="64" y="694" type="line"/>
      <point x="129" y="694" type="line" smooth="yes"/>
      <point x="185" y="694"/>
      <point x="189" y="683"/>
      <point x="189" y="604" type="curve" smooth="yes"/>
      <point x="189" y="107" type="line" smooth="yes"/>
      <point x="189" y="31"/>
      <point x="183" y="20"/>
      <point x="135" y="20" type="curve" smooth="yes"/>
      <point x="64" y="20" type="line"/>
    </contour>
    <contour>
      <point x="217" y="309" type="line"/>
      <point x="217" y="689" type="line"/>
      <point x="381" y="689" type="line" smooth="yes"/>
      <point x="535" y="689"/>
      <point x="601" y="619"/>
      <point x="601" y="509" type="curve" smooth="yes"/>
      <point x="601" y="382"/>
      <point x="543" y="309"/>
      <point x="342" y="309" type="curve" smooth="yes"/>
    </contour>
  </outline>
</glyph>
<glyph name="uni0527" format="2">
  <advance width="733"/>
  <unicode hex="0527"/>
  <anchor x="367" y="0" name="bottom"/>
  <anchor x="367" y="760" name="top"/>
  <outline>
    <contour>
      <point x="704" y="-210" type="line"/>
      <point x="724" y="-210" type="line"/>
      <point x="724" y="30" type="line"/>
      <point x="613" y="30" type="line" smooth="yes"/>
      <point x="581" y="30"/>
      <point x="584" y="42"/>
      <point x="584" y="92" type="curve" smooth="yes"/>
      <point x="584" y="360" type="line" smooth="yes"/>
      <point x="584" y="496"/>
      <point x="518" y="542"/>
      <point x="389" y="542" type="curve" smooth="yes"/>
      <point x="247" y="542"/>
      <point x="193" y="476"/>
      <point x="175" y="419" type="curve"/>
      <point x="173" y="419" type="line"/>
      <point x="175" y="425"/>
      <point x="176" y="447"/>
      <point x="176" y="469" type="curve" smooth="yes"/>
      <point x="176" y="760" type="line"/>
      <point x="25" y="760" type="line"/>
      <point x="25" y="740" type="line"/>
      <point x="63" y="740" type="line" smooth="yes"/>
      <point x="145" y="740"/>
      <point x="148" y="741"/>
      <point x="148" y="660" type="curve" smooth="yes"/>
      <point x="148" y="92" type="line" smooth="yes"/>
      <point x="148" y="22"/>
      <point x="144" y="20"/>
      <point x="69" y="20" type="curve" smooth="yes"/>
      <point x="20" y="20" type="line"/>
      <point x="20" y="0" type="line"/>
      <point x="297" y="0" type="line"/>
      <point x="297" y="20" type="line"/>
      <point x="258" y="20" type="line" smooth="yes"/>
      <point x="180" y="20"/>
      <point x="176" y="22"/>
      <point x="176" y="92" type="curve" smooth="yes"/>
      <point x="176" y="335" type="line" smooth="yes"/>
      <point x="176" y="463"/>
      <point x="269" y="517"/>
      <point x="395" y="517" type="curve" smooth="yes"/>
      <point x="503" y="517"/>
      <point x="556" y="474"/>
      <point x="556" y="356" type="curve" smooth="yes"/>
      <point x="556" y="0" type="line"/>
      <point x="704" y="0" type="line" smooth="yes"/>
      <point x="680" y="0"/>
      <point x="687" y="18"/>
      <point x="687" y="82" type="curve" smooth="yes"/>
    </contour>
  </outline>
</glyph>
<glyph name="uni0529" format="2">
  <advance width="855"/>
  <unicode hex="0529"/>
  <anchor x="427" y="-240" name="bottom"/>
  <anchor x="427" y="536" name="top"/>
  <outline>
    <contour>
      <point x="4" y="-240" type="line"/>
      <point x="21" y="-240" type="line" smooth="yes"/>
      <point x="129" y="-240"/>
      <point x="202" y="-222"/>
      <point x="201" y="-44" type="curve" smooth="yes"/>
      <point x="201" y="262" type="line"/>
      <point x="656" y="262" type="line"/>
      <point x="656" y="92" type="line" smooth="yes"/>
      <point x="656" y="22"/>
      <point x="652" y="20"/>
      <point x="569" y="20" type="curve" smooth="yes"/>
      <point x="530" y="20" type="line"/>
      <point x="530" y="0" type="line"/>
      <point x="817" y="0" type="line"/>
      <point x="817" y="20" type="line"/>
      <point x="766" y="20" type="line" smooth="yes"/>
      <point x="687" y="20"/>
      <point x="684" y="22"/>
      <point x="684" y="92" type="curve" smooth="yes"/>
      <point x="684" y="444" type="line" smooth="yes"/>
      <point x="684" y="512"/>
      <point x="686" y="516"/>
      <point x="770" y="516" type="curve" smooth="yes"/>
      <point x="817" y="516" type="line"/>
      <point x="817" y="536" type="line"/>
      <point x="530" y="536" type="line"/>
      <point x="530" y="516" type="line"/>
      <point x="571" y="516" type="line" smooth="yes"/>
      <point x="654" y="516"/>
      <point x="656" y="512"/>
      <point x="656" y="444" type="curve" smooth="yes"/>
      <point x="656" y="287" type="line"/>
      <point x="201" y="287" type="line"/>
      <point x="201" y="444" type="line" smooth="yes"/>
      <point x="201" y="512"/>
      <point x="203" y="516"/>
      <point x="287" y="516" type="curve" smooth="yes"/>
      <point x="328" y="516" type="line"/>
      <point x="328" y="536" type="line"/>
      <point x="41" y="536" type="line"/>
      <point x="41" y="516" type="line"/>
      <point x="88" y="516" type="line" smooth="yes"/>
      <point x="171" y="516"/>
      <point x="173" y="512"/>
      <point x="173" y="444" type="curve" smooth="yes"/>
      <point x="173" y="-56" type="line" smooth="yes"/>
      <point x="173" y="-201"/>
      <point x="118" y="-215"/>
      <point x="15" y="-215" type="curve" smooth="yes"/>
      <point x="4" y="-215" type="line"/>
    </contour>
  </outline>
</glyph>
<glyph name="uni052B" format="2">
  <advance width="1338"/>
  <unicode hex="052B"/>
  <anchor x="670" y="-210" name="bottom"/>
  <anchor x="670" y="536" name="top"/>
  <outline>
    <contour>
      <point x="15" y="-210" type="line"/>
      <point x="35" y="-210" type="line"/>
      <point x="48" y="76" type="line" smooth="yes"/>
      <point x="51" y="15"/>
      <point x="49" y="0"/>
      <point x="24" y="0" type="curve" smooth="yes"/>
      <point x="582" y="0" type="line" smooth="yes"/>
      <point x="541" y="0"/>
      <point x="539" y="18"/>
      <point x="540" y="82" type="curve" smooth="yes"/>
      <point x="551" y="-210" type="line"/>
      <point x="571" y="-210" type="line"/>
      <point x="571" y="30" type="line"/>
      <point x="481" y="30" type="line" smooth="yes"/>
      <point x="471" y="30"/>
      <point x="469" y="36"/>
      <point x="469" y="92" type="curve" smooth="yes"/>
      <point x="469" y="257" type="line"/>
      <point x="844" y="257" type="line"/>
      <point x="844" y="92" type="line" smooth="yes"/>
      <point x="844" y="22"/>
      <point x="840" y="20"/>
      <point x="755" y="20" type="curve" smooth="yes"/>
      <point x="698" y="20" type="line"/>
      <point x="698" y="0" type="line"/>
      <point x="990" y="0" type="line"/>
      <point x="990" y="20" type="line"/>
      <point x="943" y="20" type="line" smooth="yes"/>
      <point x="872" y="20"/>
      <point x="872" y="22"/>
      <point x="872" y="92" type="curve" smooth="yes"/>
      <point x="872" y="257" type="line"/>
      <point x="1038" y="257"/>
      <point x="1089" y="256"/>
      <point x="1122" y="194" type="curve" smooth="yes"/>
      <point x="1194" y="50" type="line" smooth="yes"/>
      <point x="1196" y="52"/>
      <point x="1228" y="0"/>
      <point x="1314" y="0" type="curve" smooth="yes"/>
      <point x="1329" y="0" type="line"/>
      <point x="1329" y="30" type="line"/>
      <point x="1308" y="30" type="line" smooth="yes"/>
      <point x="1261" y="30"/>
      <point x="1238" y="23"/>
      <point x="1201" y="94" type="curve" smooth="yes"/>
      <point x="1145" y="203" type="line"/>
      <point x="1120" y="254"/>
      <point x="1094" y="271"/>
      <point x="1013" y="279" type="curve"/>
      <point x="1051" y="297"/>
      <point x="1076" y="342"/>
      <point x="1112" y="396" type="curve" smooth="yes"/>
      <point x="1152" y="455"/>
      <point x="1189" y="517"/>
      <point x="1240" y="517" type="curve" smooth="yes"/>
      <point x="1295" y="517"/>
      <point x="1310" y="494"/>
      <point x="1309" y="433" type="curve"/>
      <point x="1335" y="438"/>
      <point x="1332" y="461"/>
      <point x="1332" y="475" type="curve" smooth="yes"/>
      <point x="1332" y="515"/>
      <point x="1289" y="542"/>
      <point x="1252" y="542" type="curve" smooth="yes"/>
      <point x="1172" y="542"/>
      <point x="1158" y="520"/>
      <point x="1102" y="429" type="curve" smooth="yes"/>
      <point x="1069" y="378"/>
      <point x="1033" y="334"/>
      <point x="1017" y="317" type="curve"/>
      <point x="988" y="285"/>
      <point x="961" y="282"/>
      <point x="872" y="282" type="curve"/>
      <point x="872" y="444" type="line" smooth="yes"/>
      <point x="872" y="511"/>
      <point x="873" y="516"/>
      <point x="944" y="516" type="curve" smooth="yes"/>
      <point x="990" y="516" type="line"/>
      <point x="990" y="536" type="line"/>
      <point x="698" y="536" type="line"/>
      <point x="698" y="516" type="line"/>
      <point x="776" y="516" type="line" smooth="yes"/>
      <point x="843" y="516"/>
      <point x="844" y="511"/>
      <point x="844" y="444" type="curve" smooth="yes"/>
      <point x="844" y="282" type="line"/>
      <point x="469" y="282" type="line"/>
      <point x="469" y="444" type="line" smooth="yes"/>
      <point x="469" y="513"/>
      <point x="469" y="516"/>
      <point x="529" y="516" type="curve" smooth="yes"/>
      <point x="597" y="516" type="line"/>
      <point x="597" y="536" type="line"/>
      <point x="95" y="536" type="line"/>
      <point x="95" y="516" type="line"/>
      <point x="157" y="516" type="line" smooth="yes"/>
      <point x="219" y="516"/>
      <point x="210" y="505"/>
      <point x="210" y="485" type="curve" smooth="yes"/>
      <point x="210" y="383"/>
      <point x="197" y="311"/>
      <point x="172" y="223" type="curve" smooth="yes"/>
      <point x="155" y="167"/>
      <point x="131" y="97"/>
      <point x="107" y="25" type="curve"/>
      <point x="15" y="25" type="line"/>
    </contour>
    <contour>
      <point x="140" y="25" type="line"/>
      <point x="199" y="196"/>
      <point x="231" y="283"/>
      <point x="251" y="511" type="curve"/>
      <point x="441" y="511" type="line"/>
      <point x="441" y="25" type="line"/>
    </contour>
  </outline>
</glyph>
<glyph name="uni1AB4" format="2">
  <unicode hex="1AB4"/>
  <anchor x="-2" y="536" name="_top"/>
  <anchor x="-2" y="821" name="top"/>
  <outline>
    <contour>
      <point x="-1" y="735" type="curve" smooth="yes"/>
      <point x="13" y="735"/>
      <point x="18" y="743"/>
      <point x="18" y="779" type="curve" smooth="yes"/>
      <point x="18" y="811"/>
      <point x="13" y="821"/>
      <point x="-1" y="821" type="curve" smooth="yes"/>
      <point x="-12" y="821"/>
      <point x="-21" y="811"/>
      <point x="-21" y="779" type="curve" smooth="yes"/>
      <point x="-21" y="743"/>
      <point x="-12" y="735"/>
    </contour>
    <contour>
      <point x="-94" y="554" type="curve" smooth="yes"/>
      <point x="-80" y="554"/>
      <point x="-75" y="562"/>
      <point x="-75" y="598" type="curve" smooth="yes"/>
      <point x="-75" y="630"/>
      <point x="-80" y="640"/>
      <point x="-94" y="640" type="curve" smooth="yes"/>
      <point x="-105" y="640"/>
      <point x="-114" y="630"/>
      <point x="-114" y="598" type="curve" smooth="yes"/>
      <point x="-114" y="562"/>
      <point x="-105" y="554"/>
    </contour>
    <contour>
      <point x="93" y="554" type="curve" smooth="yes"/>
      <point x="107" y="554"/>
      <point x="112" y="562"/>
      <point x="112" y="598" type="curve" smooth="yes"/>
      <point x="112" y="630"/>
      <point x="107" y="640"/>
      <point x="93" y="640" type="curve" smooth="yes"/>
      <point x="81" y="640"/>
      <point x="74" y="630"/>
      <point x="74" y="598" type="curve" smooth="yes"/>
      <point x="74" y="562"/>
      <point x="81" y="554"/>
    </contour>
  </outline>
</glyph>
<glyph name="uni1AB6" format="2">
  <unicode hex="1AB6"/>
  <anchor x="0" y="0" name="_bottom"/>
  <anchor x="0" y="-170" name="bottom"/>
  <outline>
    <contour>
      <point x="-130" y="-170" type="curve" smooth="yes"/>
      <point x="-64" y="-170"/>
      <point x="-62" y="-100"/>
      <point x="0" y="-100" type="curve" smooth="yes"/>
      <point x="62" y="-100"/>
      <point x="64" y="-170"/>
      <point x="126" y="-170" type="curve" smooth="yes"/>
      <point x="180" y="-170"/>
      <point x="200" y="-103"/>
      <point x="245" y="-103" type="curve" smooth="yes"/>
      <point x="272" y="-103"/>
      <point x="297" y="-118"/>
      <point x="295" y="-157" type="curve"/>
      <point x="321" y="-157" type="line"/>
      <point x="321" y="-110"/>
      <point x="293" y="-78"/>
      <point x="246" y="-78" type="curve" smooth="yes"/>
      <point x="200" y="-78"/>
      <point x="173" y="-148"/>
      <point x="126" y="-148" type="curve" smooth="yes"/>
      <point x="65" y="-148"/>
      <point x="74" y="-78"/>
      <point x="0" y="-78" type="curve" smooth="yes"/>
      <point x="-74" y="-78"/>
      <point x="-67" y="-148"/>
      <point x="-130" y="-148" type="curve" smooth="yes"/>
      <point x="-175" y="-148"/>
      <point x="-200" y="-78"/>
      <point x="-246" y="-78" type="curve" smooth="yes"/>
      <point x="-293" y="-78"/>
      <point x="-321" y="-110"/>
      <point x="-321" y="-157" type="curve"/>
      <point x="-295" y="-157" type="line"/>
      <point x="-297" y="-118"/>
      <point x="-272" y="-103"/>
      <point x="-245" y="-103" type="curve" smooth="yes"/>
      <point x="-204" y="-103"/>
      <point x="-186" y="-170"/>
    </contour>
  </outline>
</glyph>
<glyph name="uni1AB8" format="2">
  <unicode hex="1AB8"/>
  <anchor x="-313" y="0" name="_bottom"/>
  <anchor x="-313" y="-231" name="bottom"/>
  <outline>
    <contour>
      <point x="-226" y="-231" type="curve" smooth="yes"/>
      <point x="-193" y="-231"/>
      <point x="-184" y="-216"/>
      <point x="-184" y="-219" type="curve" smooth="yes"/>
      <point x="-184" y="-221"/>
      <point x="-184" y="-217"/>
      <point x="-186" y="-214" type="curve"/>
      <point x="-197" y="-211"/>
      <point x="-210" y="-208"/>
      <point x="-227" y="-208" type="curve" smooth="yes"/>
      <point x="-265" y="-208"/>
      <point x="-276" y="-190"/>
      <point x="-276" y="-180" type="curve" smooth="yes"/>
      <point x="-276" y="-40" type="line"/>
      <point x="-304" y="-40" type="line"/>
      <point x="-304" y="-165" type="line" smooth="yes"/>
      <point x="-304" y="-206"/>
      <point x="-284" y="-231"/>
    </contour>
    <contour>
      <point x="-362" y="-231" type="curve" smooth="yes"/>
      <point x="-329" y="-231"/>
      <point x="-320" y="-216"/>
      <point x="-320" y="-219" type="curve" smooth="yes"/>
      <point x="-320" y="-221"/>
      <point x="-320" y="-217"/>
      <point x="-322" y="-214" type="curve"/>
      <point x="-333" y="-211"/>
      <point x="-346" y="-208"/>
      <point x="-363" y="-208" type="curve" smooth="yes"/>
      <point x="-401" y="-208"/>
      <point x="-412" y="-190"/>
      <point x="-412" y="-180" type="curve" smooth="yes"/>
      <point x="-412" y="-40" type="line"/>
      <point x="-440" y="-40" type="line"/>
      <point x="-440" y="-165" type="line" smooth="yes"/>
      <point x="-440" y="-206"/>
      <point x="-420" y="-231"/>
    </contour>
  </outline>
</glyph>
<glyph name="uni1C80" format="2">
  <advance width="554"/>
  <unicode hex="1C80"/>
  <anchor x="276" y="0" name="bottom"/>
  <anchor x="276" y="546" name="top"/>
  <outline>
    <contour>
      <point x="330" y="-12" type="curve" smooth="yes"/>
      <point x="401" y="-12"/>
      <point x="465" y="14"/>
      <point x="465" y="105" type="curve" smooth="yes"/>
      <point x="465" y="180"/>
      <point x="404" y="216"/>
      <point x="331" y="216" type="curve" smooth="yes"/>
      <point x="238" y="216"/>
      <point x="166" y="158"/>
      <point x="127" y="130" type="curve"/>
      <point x="111" y="173"/>
      <point x="106" y="218"/>
      <point x="106" y="254" type="curve" smooth="yes"/>
      <point x="106" y="302"/>
      <point x="112" y="347"/>
      <point x="123" y="387" type="curve"/>
      <point x="165" y="359"/>
      <point x="235" y="318"/>
      <point x="335" y="318" type="curve" smooth="yes"/>
      <point x="410" y="318"/>
      <point x="465" y="358"/>
      <point x="465" y="433" type="curve" smooth="yes"/>
      <point x="465" y="524"/>
      <point x="401" y="546"/>
      <point x="333" y="546" type="curve" smooth="yes"/>
      <point x="198" y="546"/>
      <point x="80" y="441"/>
      <point x="80" y="254" type="curve" smooth="yes"/>
      <point x="80" y="91"/>
      <point x="177" y="-12"/>
    </contour>
    <contour>
      <point x="324" y="13" type="curve" smooth="yes"/>
      <point x="227" y="13"/>
      <point x="173" y="71"/>
      <point x="140" y="101" type="curve"/>
      <point x="155" y="121"/>
      <point x="238" y="191"/>
      <point x="333" y="191" type="curve" smooth="yes"/>
      <point x="389" y="191"/>
      <point x="437" y="154"/>
      <point x="437" y="106" type="curve" smooth="yes"/>
      <point x="437" y="43"/>
      <point x="387" y="13"/>
    </contour>
    <contour>
      <point x="331" y="343" type="curve" smooth="yes"/>
      <point x="242" y="343"/>
      <point x="165" y="388"/>
      <point x="135" y="415" type="curve"/>
      <point x="170" y="473"/>
      <point x="233" y="521"/>
      <point x="333" y="521" type="curve" smooth="yes"/>
      <point x="420" y="521"/>
      <point x="437" y="465"/>
      <point x="437" y="432" type="curve" smooth="yes"/>
      <point x="437" y="398"/>
      <point x="429" y="343"/>
    </contour>
  </outline>
</glyph>
<glyph name="uni1C84" format="2">
  <advance width="696"/>
  <unicode hex="1C84"/>
  <anchor x="348" y="0" name="bottom"/>
  <anchor x="348" y="714" name="top"/>
  <outline>
    <contour>
      <point x="228" y="0" type="line"/>
      <point x="457" y="0" type="line"/>
      <point x="457" y="20" type="line"/>
      <point x="395" y="20" type="line" smooth="yes"/>
      <point x="354" y="20"/>
      <point x="347" y="17"/>
      <point x="347" y="31" type="curve" smooth="yes"/>
      <point x="347" y="37"/>
      <point x="355" y="60"/>
      <point x="359" y="65" type="curve" smooth="yes"/>
      <point x="631" y="733" type="line"/>
      <point x="631" y="714" type="line"/>
      <point x="80" y="714" type="line"/>
      <point x="74" y="526" type="line"/>
      <point x="94" y="526" type="line"/>
      <point x="109" y="656" type="line" smooth="yes"/>
      <point x="114" y="675"/>
      <point x="110" y="689"/>
      <point x="138" y="689" type="curve" smooth="yes"/>
      <point x="584" y="689" type="line"/>
      <point x="350" y="127" type="line" smooth="yes"/>
      <point x="311" y="21"/>
      <point x="310" y="20"/>
      <point x="287" y="20" type="curve" smooth="yes"/>
      <point x="228" y="20" type="line"/>
    </contour>
  </outline>
</glyph>
<glyph name="uni1D06" format="2">
  <advance width="734"/>
  <unicode hex="1D06"/>
  <anchor x="368" y="0" name="bottom"/>
  <anchor x="368" y="536" name="top"/>
  <outline>
    <contour>
      <point x="72" y="0" type="line"/>
      <point x="354" y="0" type="line" smooth="yes"/>
      <point x="564" y="0"/>
      <point x="654" y="102"/>
      <point x="654" y="258" type="curve" smooth="yes"/>
      <point x="654" y="413"/>
      <point x="554" y="536"/>
      <point x="348" y="536" type="curve" smooth="yes"/>
      <point x="72" y="536" type="line"/>
      <point x="72" y="516" type="line"/>
      <point x="117" y="516" type="line" smooth="yes"/>
      <point x="170" y="516"/>
      <point x="174" y="515"/>
      <point x="174" y="444" type="curve" smooth="yes"/>
      <point x="174" y="295" type="line"/>
      <point x="61" y="295" type="line"/>
      <point x="61" y="270" type="line"/>
      <point x="174" y="270" type="line"/>
      <point x="174" y="92" type="line" smooth="yes"/>
      <point x="174" y="22"/>
      <point x="174" y="20"/>
      <point x="117" y="20" type="curve" smooth="yes"/>
      <point x="72" y="20" type="line"/>
    </contour>
    <contour>
      <point x="202" y="25" type="line"/>
      <point x="202" y="270" type="line"/>
      <point x="438" y="270" type="line"/>
      <point x="438" y="295" type="line"/>
      <point x="202" y="295" type="line"/>
      <point x="202" y="511" type="line"/>
      <point x="336" y="511" type="line" smooth="yes"/>
      <point x="547" y="511"/>
      <point x="626" y="408"/>
      <point x="626" y="258" type="curve" smooth="yes"/>
      <point x="626" y="99"/>
      <point x="551" y="25"/>
      <point x="335" y="25" type="curve" smooth="yes"/>
    </contour>
  </outline>
</glyph>
<glyph name="uni1D15" format="2">
  <advance width="591"/>
  <unicode hex="1D15"/>
  <anchor x="295" y="0" name="bottom"/>
  <anchor x="295" y="536" name="top"/>
  <outline>
    <contour>
      <point x="299" y="-9" type="curve" smooth="yes"/>
      <point x="440" y="-9"/>
      <point x="519" y="53"/>
      <point x="519" y="157" type="curve" smooth="yes"/>
      <point x="519" y="237"/>
      <point x="449" y="296"/>
      <point x="387" y="318" type="curve"/>
      <point x="461" y="335"/>
      <point x="494" y="384"/>
      <point x="494" y="444" type="curve" smooth="yes"/>
      <point x="494" y="504"/>
      <point x="466" y="542"/>
      <point x="429" y="542" type="curve"/>
      <point x="445" y="525"/>
      <point x="468" y="498"/>
      <point x="468" y="444" type="curve" smooth="yes"/>
      <point x="468" y="401"/>
      <point x="423" y="326"/>
      <point x="299" y="326" type="curve" smooth="yes"/>
      <point x="182" y="326"/>
      <point x="126" y="397"/>
      <point x="126" y="444" type="curve" smooth="yes"/>
      <point x="126" y="500"/>
      <point x="149" y="527"/>
      <point x="162" y="542" type="curve"/>
      <point x="120" y="542"/>
      <point x="100" y="499"/>
      <point x="100" y="446" type="curve" smooth="yes"/>
      <point x="100" y="392"/>
      <point x="147" y="335"/>
      <point x="212" y="318" type="curve"/>
      <point x="143" y="302"/>
      <point x="71" y="235"/>
      <point x="71" y="157" type="curve" smooth="yes"/>
      <point x="71" y="61"/>
      <point x="150" y="-9"/>
    </contour>
    <contour>
      <point x="300" y="14" type="curve" smooth="yes"/>
      <point x="167" y="14"/>
      <point x="99" y="73"/>
      <point x="99" y="158" type="curve" smooth="yes"/>
      <point x="99" y="234"/>
      <point x="157" y="305"/>
      <point x="297" y="305" type="curve" smooth="yes"/>
      <point x="437" y="305"/>
      <point x="491" y="237"/>
      <point x="491" y="158" type="curve" smooth="yes"/>
      <point x="491" y="74"/>
      <point x="429" y="14"/>
    </contour>
  </outline>
</glyph>
<glyph name="uni1D27" format="2">
  <advance width="753"/>
  <unicode hex="1D27"/>
  <outline>
    <contour>
      <point x="12" y="0" type="line"/>
      <point x="233" y="0" type="line"/>
      <point x="233" y="20" type="line"/>
      <point x="180" y="20" type="line" smooth="yes"/>
      <point x="154" y="20"/>
      <point x="134" y="21"/>
      <point x="134" y="38" type="curve" smooth="yes"/>
      <point x="134" y="54"/>
      <point x="139" y="60"/>
      <point x="149" y="77" type="curve" smooth="yes"/>
      <point x="306" y="380" type="line" smooth="yes"/>
      <point x="325" y="388"/>
      <point x="349" y="423"/>
      <point x="377" y="499" type="curve"/>
      <point x="379" y="499" type="line"/>
      <point x="399" y="460"/>
      <point x="418" y="440"/>
      <point x="452" y="379" type="curve" smooth="yes"/>
      <point x="616" y="43" type="line" smooth="yes"/>
      <point x="620" y="43"/>
      <point x="622" y="52"/>
      <point x="622" y="48" type="curve" smooth="yes"/>
      <point x="622" y="23"/>
      <point x="608" y="20"/>
      <point x="583" y="20" type="curve" smooth="yes"/>
      <point x="513" y="20" type="line"/>
      <point x="513" y="0" type="line"/>
      <point x="738" y="0" type="line"/>
      <point x="738" y="20" type="line"/>
      <point x="711" y="20" type="line" smooth="yes"/>
      <point x="683" y="19"/>
      <point x="673" y="16"/>
      <point x="657" y="42" type="curve" smooth="yes"/>
      <point x="396" y="536" type="line"/>
      <point x="363" y="536" type="line"/>
      <point x="117" y="76" type="line" smooth="yes"/>
      <point x="95" y="35"/>
      <point x="95" y="20"/>
      <point x="42" y="20" type="curve" smooth="yes"/>
      <point x="12" y="20" type="line"/>
    </contour>
  </outline>
</glyph>
<glyph name="uni1D28" format="2">
  <advance width="733"/>
  <unicode hex="1D28"/>
  <outline>
    <contour>
      <point x="54" y="0" type="line"/>
      <point x="289" y="0" type="line"/>
      <point x="289" y="20" type="line"/>
      <point x="236" y="20" type="line" smooth="yes"/>
      <point x="185" y="20"/>
      <point x="185" y="22"/>
      <point x="185" y="92" type="curve" smooth="yes"/>
      <point x="185" y="511" type="line"/>
      <point x="546" y="511" type="line"/>
      <point x="546" y="92" type="line" smooth="yes"/>
      <point x="546" y="22"/>
      <point x="546" y="20"/>
      <point x="492" y="20" type="curve" smooth="yes"/>
      <point x="439" y="20" type="line"/>
      <point x="439" y="0" type="line"/>
      <point x="674" y="0" type="line"/>
      <point x="674" y="20" type="line"/>
      <point x="629" y="20" type="line" smooth="yes"/>
      <point x="574" y="20"/>
      <point x="574" y="22"/>
      <point x="574" y="92" type="curve" smooth="yes"/>
      <point x="574" y="444" type="line" smooth="yes"/>
      <point x="574" y="512"/>
      <point x="574" y="516"/>
      <point x="629" y="516" type="curve" smooth="yes"/>
      <point x="674" y="516" type="line"/>
      <point x="674" y="536" type="line"/>
      <point x="54" y="536" type="line"/>
      <point x="54" y="516" type="line"/>
      <point x="101" y="516" type="line" smooth="yes"/>
      <point x="157" y="516"/>
      <point x="157" y="512"/>
      <point x="157" y="444" type="curve" smooth="yes"/>
      <point x="157" y="92" type="line" smooth="yes"/>
      <point x="157" y="22"/>
      <point x="157" y="20"/>
      <point x="101" y="20" type="curve" smooth="yes"/>
      <point x="54" y="20" type="line"/>
    </contour>
  </outline>
</glyph>
<glyph name="uni1D6B" format="2">
  <advance width="1076"/>
  <unicode hex="1D6B"/>
  <outline>
    <contour>
      <point x="347" y="-10" type="curve" smooth="yes"/>
      <point x="437" y="-10"/>
      <point x="535" y="14"/>
      <point x="579" y="148" type="curve"/>
      <point x="609" y="45"/>
      <point x="690" y="-10"/>
      <point x="805" y="-10" type="curve" smooth="yes"/>
      <point x="932" y="-10"/>
      <point x="997" y="56"/>
      <point x="997" y="93" type="curve" smooth="yes"/>
      <point x="997" y="98"/>
      <point x="995" y="102"/>
      <point x="988" y="107" type="curve"/>
      <point x="958" y="51"/>
      <point x="901" y="15"/>
      <point x="807" y="15" type="curve" smooth="yes"/>
      <point x="679" y="15"/>
      <point x="584" y="109"/>
      <point x="588" y="282" type="curve"/>
      <point x="1012" y="282" type="line"/>
      <point x="1012" y="289" type="line" smooth="yes"/>
      <point x="1012" y="451"/>
      <point x="923" y="542"/>
      <point x="795" y="542" type="curve" smooth="yes"/>
      <point x="686" y="542"/>
      <point x="621" y="495"/>
      <point x="588" y="396" type="curve"/>
      <point x="593" y="536" type="line"/>
      <point x="442" y="536" type="line"/>
      <point x="442" y="516" type="line"/>
      <point x="493" y="516" type="line" smooth="yes"/>
      <point x="549" y="516"/>
      <point x="559" y="512"/>
      <point x="559" y="458" type="curve" smooth="yes"/>
      <point x="559" y="201" type="line" smooth="yes"/>
      <point x="559" y="104"/>
      <point x="483" y="15"/>
      <point x="345" y="15" type="curve" smooth="yes"/>
      <point x="197" y="15"/>
      <point x="177" y="102"/>
      <point x="177" y="179" type="curve" smooth="yes"/>
      <point x="177" y="536" type="line"/>
      <point x="18" y="536" type="line"/>
      <point x="18" y="516" type="line"/>
      <point x="82" y="516" type="line" smooth="yes"/>
      <point x="145" y="516"/>
      <point x="149" y="511"/>
      <point x="149" y="441" type="curve" smooth="yes"/>
      <point x="149" y="184" type="line" smooth="yes"/>
      <point x="149" y="60"/>
      <point x="201" y="-10"/>
    </contour>
    <contour>
      <point x="592" y="305" type="line"/>
      <point x="602" y="433"/>
      <point x="647" y="517"/>
      <point x="793" y="517" type="curve" smooth="yes"/>
      <point x="910" y="517"/>
      <point x="984" y="431"/>
      <point x="984" y="305" type="curve"/>
    </contour>
  </outline>
</glyph>
<glyph name="uni1D6E" format="2">
  <advance width="392"/>
  <unicode hex="1D6E"/>
  <anchor x="329" y="772" name="top"/>
  <anchor x="472" y="772" name="topright"/>
  <anchor x="197" y="0" name="bottom"/>
  <outline>
    <contour>
      <point x="15" y="287" type="curve"/>
      <point x="34" y="287" type="line"/>
      <point x="40" y="310"/>
      <point x="49" y="347"/>
      <point x="102" y="347" type="curve" smooth="yes"/>
      <point x="171" y="347"/>
      <point x="234" y="321"/>
      <point x="304" y="321" type="curve" smooth="yes"/>
      <point x="361" y="321"/>
      <point x="382" y="355"/>
      <point x="386" y="395" type="curve"/>
      <point x="367" y="395" type="line"/>
      <point x="362" y="371"/>
      <point x="351" y="345"/>
      <point x="305" y="345" type="curve" smooth="yes"/>
      <point x="244" y="345"/>
      <point x="191" y="371"/>
      <point x="107" y="371" type="curve" smooth="yes"/>
      <point x="46" y="371"/>
      <point x="19" y="320"/>
    </contour>
    <component base="f"/>
  </outline>
</glyph>
<glyph name="uni1D7B" format="2">
  <advance width="373"/>
  <unicode hex="1D7B"/>
  <anchor x="193" y="0" name="bottom"/>
  <anchor x="193" y="536" name="top"/>
  <outline>
    <contour>
      <point x="46" y="282" type="line"/>
      <point x="331" y="282" type="line"/>
      <point x="331" y="307" type="line"/>
      <point x="46" y="307" type="line"/>
    </contour>
    <component base="uni026A"/>
  </outline>
</glyph>
<glyph name="uni1D88" format="2">
  <advance width="705"/>
  <unicode hex="1D88"/>
  <anchor x="352" y="536" name="top"/>
  <anchor x="665" y="536" name="topright"/>
  <anchor x="352" y="-240" name="bottom"/>
  <outline>
    <contour>
      <point x="494" y="-199" type="curve" smooth="yes"/>
      <point x="573" y="-199"/>
      <point x="583" y="-131"/>
      <point x="583" y="-124" type="curve" smooth="yes"/>
      <point x="583" y="87" type="line"/>
      <point x="559" y="135" type="line"/>
      <point x="559" y="-112" type="line" smooth="yes"/>
      <point x="559" y="-162"/>
      <point x="534" y="-176"/>
      <point x="490" y="-176" type="curve" smooth="yes"/>
      <point x="462" y="-176"/>
      <point x="454" y="-159"/>
      <point x="442" y="-161" type="curve"/>
      <point x="428" y="-160"/>
      <point x="423" y="-167"/>
      <point x="423" y="-176" type="curve" smooth="yes"/>
      <point x="423" y="-187"/>
      <point x="456" y="-199"/>
    </contour>
    <component base="p"/>
  </outline>
</glyph>
<glyph name="uni1D90" format="2">
  <advance width="702"/>
  <unicode hex="1D90"/>
  <anchor x="351" y="536" name="top"/>
  <anchor x="351" y="0" name="bottom"/>
  <outline>
    <contour>
      <point x="754" y="-192" type="curve" smooth="yes"/>
      <point x="792" y="-192"/>
      <point x="825" y="-180"/>
      <point x="825" y="-169" type="curve" smooth="yes"/>
      <point x="825" y="-160"/>
      <point x="820" y="-153"/>
      <point x="806" y="-154" type="curve"/>
      <point x="794" y="-152"/>
      <point x="786" y="-169"/>
      <point x="758" y="-169" type="curve" smooth="yes"/>
      <point x="714" y="-169"/>
      <point x="689" y="-155"/>
      <point x="689" y="-105" type="curve" smooth="yes"/>
      <point x="689" y="27" type="line"/>
      <point x="665" y="27" type="line"/>
      <point x="665" y="-117" type="line" smooth="yes"/>
      <point x="665" y="-124"/>
      <point x="675" y="-192"/>
    </contour>
    <component base="uni0251"/>
  </outline>
</glyph>
<glyph name="uni1D94" format="2">
  <advance width="546"/>
  <unicode hex="1D94"/>
  <anchor x="282" y="536" name="top"/>
  <anchor x="276" y="0" name="bottom"/>
  <outline>
    <contour>
      <point x="137" y="-199" type="curve" smooth="yes"/>
      <point x="175" y="-199"/>
      <point x="208" y="-187"/>
      <point x="208" y="-176" type="curve" smooth="yes"/>
      <point x="208" y="-167"/>
      <point x="203" y="-160"/>
      <point x="189" y="-161" type="curve"/>
      <point x="177" y="-159"/>
      <point x="169" y="-176"/>
      <point x="141" y="-176" type="curve" smooth="yes"/>
      <point x="97" y="-176"/>
      <point x="72" y="-162"/>
      <point x="72" y="-112" type="curve" smooth="yes"/>
      <point x="72" y="86" type="line"/>
      <point x="48" y="97" type="line"/>
      <point x="48" y="-124" type="line" smooth="yes"/>
      <point x="48" y="-131"/>
      <point x="58" y="-199"/>
    </contour>
    <component base="afii10073"/>
  </outline>
</glyph>
<glyph name="dottedgrave" format="2">
  <unicode hex="1DC0"/>
  <anchor x="11" y="536" name="_top"/>
  <anchor x="11" y="780" name="top"/>
  <outline>
    <contour>
      <point x="43" y="666" type="curve"/>
      <point x="53" y="666" type="line"/>
      <point x="53" y="670" type="line"/>
      <point x="39" y="696"/>
      <point x="14" y="750"/>
      <point x="0" y="780" type="curve"/>
      <point x="-38" y="780" type="line"/>
      <point x="-38" y="774" type="line"/>
      <point x="-17" y="741"/>
      <point x="13" y="701"/>
    </contour>
    <contour>
      <point x="-59" y="675" type="curve" smooth="yes"/>
      <point x="-45" y="675"/>
      <point x="-40" y="685"/>
      <point x="-40" y="713" type="curve" smooth="yes"/>
      <point x="-40" y="737"/>
      <point x="-45" y="749"/>
      <point x="-59" y="749" type="curve" smooth="yes"/>
      <point x="-70" y="749"/>
      <point x="-79" y="737"/>
      <point x="-79" y="713" type="curve" smooth="yes"/>
      <point x="-79" y="685"/>
      <point x="-70" y="675"/>
    </contour>
    <contour>
      <point x="80" y="697" type="curve" smooth="yes"/>
      <point x="94" y="697"/>
      <point x="99" y="707"/>
      <point x="99" y="735" type="curve" smooth="yes"/>
      <point x="99" y="759"/>
      <point x="94" y="771"/>
      <point x="80" y="771" type="curve" smooth="yes"/>
      <point x="69" y="771"/>
      <point x="60" y="759"/>
      <point x="60" y="735" type="curve" smooth="yes"/>
      <point x="60" y="707"/>
      <point x="69" y="697"/>
    </contour>
  </outline>
</glyph>
<glyph name="snakebelow" format="2">
  <unicode hex="1DC2"/>
  <anchor x="4" y="0" name="_bottom"/>
  <anchor x="4" y="-222" name="bottom"/>
  <outline>
    <contour>
      <point x="59" y="-222" type="curve"/>
      <point x="59" y="-205" type="line"/>
      <point x="-14" y="-207"/>
      <point x="-15" y="-203"/>
      <point x="-15" y="-191" type="curve" smooth="yes"/>
      <point x="-15" y="-177"/>
      <point x="60" y="-177"/>
      <point x="60" y="-150" type="curve" smooth="yes"/>
      <point x="60" y="-117"/>
      <point x="-11" y="-130"/>
      <point x="-11" y="-118" type="curve" smooth="yes"/>
      <point x="-11" y="-107"/>
      <point x="64" y="-104"/>
      <point x="64" y="-72" type="curve" smooth="yes"/>
      <point x="64" y="-52"/>
      <point x="51" y="-42"/>
      <point x="9" y="-42" type="curve" smooth="yes"/>
      <point x="-27" y="-42"/>
      <point x="-34" y="-47"/>
      <point x="-56" y="-51" type="curve"/>
      <point x="-54" y="-62" type="line"/>
      <point x="-22" y="-51"/>
      <point x="-15" y="-52"/>
      <point x="6" y="-52" type="curve" smooth="yes"/>
      <point x="45" y="-52"/>
      <point x="44" y="-60"/>
      <point x="44" y="-64" type="curve" smooth="yes"/>
      <point x="44" y="-95"/>
      <point x="-36" y="-89"/>
      <point x="-36" y="-121" type="curve" smooth="yes"/>
      <point x="-36" y="-142"/>
      <point x="35" y="-128"/>
      <point x="35" y="-152" type="curve" smooth="yes"/>
      <point x="35" y="-168"/>
      <point x="-36" y="-170"/>
      <point x="-36" y="-191" type="curve" smooth="yes"/>
      <point x="-36" y="-218"/>
      <point x="-13" y="-222"/>
    </contour>
  </outline>
</glyph>
<glyph name="acutegraveacute" format="2">
  <unicode hex="1DC9"/>
  <anchor x="-7" y="536" name="_top"/>
  <anchor x="-7" y="731" name="top"/>
  <outline>
    <contour>
      <point x="98" y="647" type="line"/>
      <point x="242" y="706" type="line"/>
      <point x="233" y="723" type="line"/>
      <point x="93" y="663" type="line"/>
      <point x="-91" y="731" type="line"/>
      <point x="-256" y="663" type="line"/>
      <point x="-246" y="645" type="line"/>
      <point x="-95" y="713" type="line"/>
    </contour>
  </outline>
</glyph>
<glyph name="macronbreve" format="2">
  <unicode hex="1DCC"/>
  <anchor x="-154" y="536" name="_top"/>
  <anchor x="-154" y="699" name="top"/>
  <outline>
    <contour>
      <point x="16" y="606" type="curve" smooth="yes"/>
      <point x="96" y="606"/>
      <point x="145" y="652"/>
      <point x="151" y="699" type="curve"/>
      <point x="131" y="699" type="line"/>
      <point x="116" y="655"/>
      <point x="70" y="643"/>
      <point x="15" y="643" type="curve" smooth="yes"/>
      <point x="-35" y="643"/>
      <point x="-87" y="654"/>
      <point x="-109" y="699" type="curve"/>
      <point x="-124" y="699" type="line"/>
      <point x="-116" y="647"/>
      <point x="-59" y="606"/>
    </contour>
    <contour>
      <point x="-460" y="677" type="line"/>
      <point x="-111" y="677" type="line"/>
      <point x="-111" y="699" type="line"/>
      <point x="-460" y="699" type="line"/>
    </contour>
  </outline>
</glyph>
<glyph name="LL.middleWelsh" format="2">
  <advance width="981"/>
  <unicode hex="1EFA"/>
  <anchor x="491" y="0" name="bottom"/>
  <anchor x="491" y="714" name="top"/>
  <outline>
    <contour>
      <point x="64" y="0" type="line"/>
      <point x="905" y="0" type="line"/>
      <point x="915" y="205" type="line"/>
      <point x="895" y="205" type="line"/>
      <point x="888" y="94" type="line" smooth="yes"/>
      <point x="885" y="39"/>
      <point x="879" y="25"/>
      <point x="827" y="25" type="curve" smooth="yes"/>
      <point x="479" y="25" type="line"/>
      <point x="479" y="606" type="line" smooth="yes"/>
      <point x="479" y="683"/>
      <point x="485" y="694"/>
      <point x="535" y="694" type="curve" smooth="yes"/>
      <point x="593" y="694" type="line"/>
      <point x="593" y="714" type="line"/>
      <point x="64" y="714" type="line"/>
      <point x="64" y="694" type="line"/>
      <point x="130" y="694" type="line" smooth="yes"/>
      <point x="180" y="694"/>
      <point x="186" y="683"/>
      <point x="186" y="606" type="curve" smooth="yes"/>
      <point x="186" y="108" type="line" smooth="yes"/>
      <point x="186" y="31"/>
      <point x="180" y="20"/>
      <point x="130" y="20" type="curve" smooth="yes"/>
      <point x="64" y="20" type="line"/>
    </contour>
    <contour>
      <point x="270" y="20" type="line" smooth="yes"/>
      <point x="220" y="20"/>
      <point x="214" y="31"/>
      <point x="214" y="108" type="curve" smooth="yes"/>
      <point x="214" y="606" type="line" smooth="yes"/>
      <point x="214" y="683"/>
      <point x="220" y="694"/>
      <point x="270" y="694" type="curve" smooth="yes"/>
      <point x="395" y="694" type="line" smooth="yes"/>
      <point x="445" y="694"/>
      <point x="451" y="683"/>
      <point x="451" y="606" type="curve" smooth="yes"/>
      <point x="451" y="108" type="line" smooth="yes"/>
      <point x="451" y="31"/>
      <point x="445" y="20"/>
      <point x="395" y="20" type="curve" smooth="yes"/>
    </contour>
  </outline>
</glyph>
<glyph name="Yloop" format="2">
  <advance width="799"/>
  <unicode hex="1EFE"/>
  <anchor x="399" y="0" name="bottom"/>
  <anchor x="399" y="714" name="top"/>
  <outline>
    <contour>
      <point x="259" y="-111" type="curve" smooth="yes"/>
      <point x="290" y="-111"/>
      <point x="301" y="-109"/>
      <point x="307" y="-130" type="curve" smooth="yes"/>
      <point x="696" y="621" type="line" smooth="yes"/>
      <point x="725" y="676"/>
      <point x="729" y="694"/>
      <point x="764" y="694" type="curve" smooth="yes"/>
      <point x="795" y="694" type="line"/>
      <point x="795" y="714" type="line"/>
      <point x="574" y="714" type="line"/>
      <point x="574" y="694" type="line"/>
      <point x="608" y="694" type="line" smooth="yes"/>
      <point x="657" y="694"/>
      <point x="670" y="682"/>
      <point x="670" y="659" type="curve" smooth="yes"/>
      <point x="670" y="643"/>
      <point x="668" y="633"/>
      <point x="647" y="591" type="curve" smooth="yes"/>
      <point x="521" y="376" type="line" smooth="yes"/>
      <point x="491" y="328"/>
      <point x="446" y="244"/>
      <point x="407" y="174" type="curve"/>
      <point x="382" y="205"/>
      <point x="362" y="243"/>
      <point x="334" y="290" type="curve" smooth="yes"/>
      <point x="139" y="591" type="line" smooth="yes"/>
      <point x="125" y="615"/>
      <point x="111" y="646"/>
      <point x="111" y="658" type="curve" smooth="yes"/>
      <point x="111" y="697"/>
      <point x="132" y="694"/>
      <point x="189" y="694" type="curve" smooth="yes"/>
      <point x="219" y="694" type="line"/>
      <point x="219" y="714" type="line"/>
      <point x="0" y="714" type="line"/>
      <point x="0" y="694" type="line"/>
      <point x="31" y="694" type="line" smooth="yes"/>
      <point x="30" y="694"/>
      <point x="55" y="685"/>
      <point x="90" y="622" type="curve" smooth="yes"/>
      <point x="395" y="140" type="line"/>
      <point x="369" y="122"/>
      <point x="354" y="112"/>
      <point x="336" y="112" type="curve" smooth="yes"/>
      <point x="255" y="110"/>
      <point x="173" y="81"/>
      <point x="173" y="-4" type="curve" smooth="yes"/>
      <point x="173" y="-74"/>
      <point x="214" y="-111"/>
    </contour>
    <contour>
      <point x="266" y="-86" type="curve" smooth="yes"/>
      <point x="243" y="-86"/>
      <point x="201" y="-76"/>
      <point x="201" y="-3" type="curve" smooth="yes"/>
      <point x="201" y="65"/>
      <point x="274" y="88"/>
      <point x="346" y="88" type="curve" smooth="yes"/>
      <point x="355" y="88"/>
      <point x="373" y="95"/>
      <point x="378" y="114" type="curve"/>
      <point x="351" y="46" type="line" smooth="yes"/>
      <point x="317" y="-47"/>
      <point x="312" y="-86"/>
    </contour>
  </outline>
</glyph>
<glyph name="uni1FBD" format="2">
  <advance width="57"/>
  <unicode hex="1FBD"/>
  <anchor x="35" y="536" name="_top"/>
  <outline>
    <contour>
      <point x="-13" y="547" type="line"/>
      <point x="67" y="568"/>
      <point x="84" y="589"/>
      <point x="84" y="661" type="curve" smooth="yes"/>
      <point x="84" y="697"/>
      <point x="66" y="730"/>
      <point x="40" y="730" type="curve" smooth="yes"/>
      <point x="17" y="730"/>
      <point x="0" y="714"/>
      <point x="0" y="691" type="curve" smooth="yes"/>
      <point x="0" y="642"/>
      <point x="62" y="659"/>
      <point x="62" y="627" type="curve" smooth="yes"/>
      <point x="62" y="607"/>
      <point x="39" y="572"/>
      <point x="-13" y="570" type="curve"/>
    </contour>
  </outline>
</glyph>
<glyph name="uni1FCD" format="2">
  <advance width="497"/>
  <unicode hex="1FCD"/>
  <anchor x="250" y="536" name="_top"/>
  <anchor x="250" y="730" name="top"/>
  <outline>
    <contour>
      <point x="125" y="547" type="line"/>
      <point x="205" y="568"/>
      <point x="222" y="589"/>
      <point x="222" y="661" type="curve" smooth="yes"/>
      <point x="222" y="697"/>
      <point x="204" y="730"/>
      <point x="178" y="730" type="curve" smooth="yes"/>
      <point x="155" y="730"/>
      <point x="138" y="714"/>
      <point x="138" y="691" type="curve" smooth="yes"/>
      <point x="138" y="642"/>
      <point x="200" y="659"/>
      <point x="200" y="627" type="curve" smooth="yes"/>
      <point x="200" y="607"/>
      <point x="177" y="572"/>
      <point x="125" y="570" type="curve"/>
    </contour>
    <contour>
      <point x="365" y="573" type="curve"/>
      <point x="373" y="573" type="line"/>
      <point x="373" y="588" type="line"/>
      <point x="354" y="616"/>
      <point x="339" y="679"/>
      <point x="336" y="713" type="curve"/>
      <point x="279" y="713" type="line"/>
      <point x="279" y="701" type="line"/>
      <point x="276" y="698"/>
      <point x="325" y="607"/>
    </contour>
  </outline>
</glyph>
